<?xml version="1.0" encoding="UTF-8"?>
<svg width="120px" height="130px" viewBox="0 0 120 130" version="1.1" xmlns="http://www.w3.org/2000/svg" xmlns:xlink="http://www.w3.org/1999/xlink">
    <!-- Generator: Sketch 52.2 (67145) - http://www.bohemiancoding.com/sketch -->
    <title>undraw_secure_data_0rwp</title>
    <desc>Created with Sketch.</desc>
    <defs>
        <linearGradient x1="49.9989355%" y1="100%" x2="49.9989355%" y2="0%" id="linearGradient-1">
            <stop stop-color="#808080" stop-opacity="0.25" offset="0%"></stop>
            <stop stop-color="#808080" stop-opacity="0.12" offset="54%"></stop>
            <stop stop-color="#808080" stop-opacity="0.1" offset="100%"></stop>
        </linearGradient>
        <linearGradient x1="49.9969943%" y1="100%" x2="49.9969943%" y2="0%" id="linearGradient-2">
            <stop stop-color="#808080" stop-opacity="0.25" offset="0%"></stop>
            <stop stop-color="#808080" stop-opacity="0.12" offset="54%"></stop>
            <stop stop-color="#808080" stop-opacity="0.1" offset="100%"></stop>
        </linearGradient>
        <linearGradient x1="50%" y1="100%" x2="50%" y2="0%" id="linearGradient-3">
            <stop stop-color="#808080" stop-opacity="0.25" offset="0%"></stop>
            <stop stop-color="#808080" stop-opacity="0.12" offset="54%"></stop>
            <stop stop-color="#808080" stop-opacity="0.1" offset="100%"></stop>
        </linearGradient>
        <rect id="path-4" x="0.0933947368" y="0.0996344946" width="27.5789164" height="18.3907162"></rect>
        <linearGradient x1="49.9969943%" y1="100.005925%" x2="49.9969943%" y2="0%" id="linearGradient-6">
            <stop stop-color="#808080" stop-opacity="0.25" offset="0%"></stop>
            <stop stop-color="#808080" stop-opacity="0.12" offset="54%"></stop>
            <stop stop-color="#808080" stop-opacity="0.1" offset="100%"></stop>
        </linearGradient>
        <rect id="path-7" x="0.0933947368" y="0.00914648212" width="27.5789164" height="18.5710173"></rect>
        <linearGradient x1="9.00646748e-15%" y1="49.9989355%" x2="100%" y2="49.9989355%" id="linearGradient-9">
            <stop stop-color="#808080" stop-opacity="0.25" offset="0%"></stop>
            <stop stop-color="#808080" stop-opacity="0.12" offset="54%"></stop>
            <stop stop-color="#808080" stop-opacity="0.1" offset="100%"></stop>
        </linearGradient>
        <linearGradient x1="0.0060114217%" y1="50.0034497%" x2="100.006011%" y2="50.0034497%" id="linearGradient-10">
            <stop stop-color="#808080" stop-opacity="0.25" offset="0%"></stop>
            <stop stop-color="#808080" stop-opacity="0.12" offset="54%"></stop>
            <stop stop-color="#808080" stop-opacity="0.1" offset="100%"></stop>
        </linearGradient>
        <linearGradient x1="50.0035804%" y1="99.9522605%" x2="50.0035804%" y2="-0.0429655798%" id="linearGradient-11">
            <stop stop-color="#808080" stop-opacity="0.25" offset="0%"></stop>
            <stop stop-color="#808080" stop-opacity="0.12" offset="54%"></stop>
            <stop stop-color="#808080" stop-opacity="0.1" offset="100%"></stop>
        </linearGradient>
        <linearGradient x1="50.0002659%" y1="100.049377%" x2="50.0002659%" y2="0.0607623353%" id="linearGradient-12">
            <stop stop-color="#808080" stop-opacity="0.25" offset="0%"></stop>
            <stop stop-color="#808080" stop-opacity="0.12" offset="54%"></stop>
            <stop stop-color="#808080" stop-opacity="0.1" offset="100%"></stop>
        </linearGradient>
    </defs>
    <g id="landing" stroke="none" stroke-width="1" fill="none" fill-rule="evenodd">
        <g id="003-L" transform="translate(-538.000000, -732.000000)">
            <g id="undraw_secure_data_0rwp" transform="translate(538.000000, 732.000000)">
                <g id="Group" opacity="0.5" transform="translate(0.000000, 5.811765)" fill="url(#linearGradient-1)">
                    <rect id="Rectangle" x="0.164241289" y="0.0200711095" width="85.7138789" height="115.160727"></rect>
                </g>
                <rect id="Rectangle" fill="#F2F2F2" x="1.22352941" y="7.64705882" width="83.2" height="111.035294"></rect>
                <rect id="Rectangle" fill="#E0E0E0" x="7.64705882" y="12.2352941" width="28.7529412" height="1"></rect>
                <rect id="Rectangle" fill="#50D6A9" opacity="0.7" x="7.64705882" y="16.2117647" width="28.7529412" height="1"></rect>
                <rect id="Rectangle" fill="#E0E0E0" x="40.3764706" y="12.2352941" width="28.7529412" height="1"></rect>
                <rect id="Rectangle" fill="#E0E0E0" x="44.9647059" y="37.6235294" width="28.7529412" height="1"></rect>
                <rect id="Rectangle" fill="#E0E0E0" x="45.5764706" y="40.0705882" width="28.7529412" height="1"></rect>
                <rect id="Rectangle" fill="#E0E0E0" x="47.1058824" y="42.5176471" width="28.7529412" height="1"></rect>
                <rect id="Rectangle" fill="#E0E0E0" x="44.9647059" y="77.0823529" width="28.7529412" height="1"></rect>
                <rect id="Rectangle" fill="#E0E0E0" x="45.5764706" y="79.5294118" width="28.7529412" height="1"></rect>
                <rect id="Rectangle" fill="#E0E0E0" x="47.1058824" y="81.9764706" width="28.7529412" height="1"></rect>
                <g id="Group" opacity="0.5" transform="translate(7.952941, 28.447059)" fill="url(#linearGradient-2)">
                    <rect id="Rectangle" x="0.129271709" y="0.118124567" width="30.2878151" height="30.6742242"></rect>
                </g>
                <rect id="Rectangle" fill="#F5F5F5" x="7.95294118" y="29.0588235" width="29.9764706" height="29.3647059"></rect>
                <g id="Group" opacity="0.5" transform="translate(9.176471, 30.894118)" fill="url(#linearGradient-3)">
                    <rect id="Rectangle" x="0.0968495034" y="0.0181798002" width="27.9036211" height="19.1233319"></rect>
                </g>
                <rect id="689f37f3-cc41-448d-b172-63ec123bc985" fill="#FFFFFF" x="9.48235294" y="31.2" width="27.5294118" height="18.6588235"></rect>
                <g id="Clipped" transform="translate(34.870588, 43.435294)">
                    <mask id="mask-5" fill="white">
                        <use xlink:href="#path-4"></use>
                    </mask>
                    <g id="8cc91f6d-19b0-43cc-9c18-2faa83ac34ba"></g>
                    <g id="Group" mask="url(#mask-5)" fill="#50D6A9" opacity="0.4">
                        <g transform="translate(-29.117183, -11.593832)">
                            <polygon id="Path" points="1.06579876 17.2422022 8.00997214 6.60486122 10.9216904 11.2586979 17.1919567 4.83317875 22.5685635 11.2586979 27.2730944 1.73182867 39.3686285 20.7873786 0.17030805 19.457711"></polygon>
                            <ellipse id="Oval" cx="6.4405743" cy="2.17384352" rx="2.01622755" ry="1.99450143"></ellipse>
                        </g>
                    </g>
                </g>
                <g id="Group" opacity="0.5" transform="translate(7.952941, 67.905882)" fill="url(#linearGradient-6)">
                    <rect id="Rectangle" x="0.129271709" y="0.0255927602" width="30.2878151" height="30.8557285"></rect>
                </g>
                <rect id="Rectangle" fill="#F5F5F5" x="7.95294118" y="68.8235294" width="29.9764706" height="29.3647059"></rect>
                <g id="Group" opacity="0.5" transform="translate(9.176471, 70.352941)" fill="url(#linearGradient-3)">
                    <rect id="Rectangle" x="0.0968495034" y="0.109078801" width="27.9036211" height="19.1233319"></rect>
                </g>
                <rect id="b429ac3a-f8a8-4171-bcce-5b6c002c0714" fill="#FFFFFF" x="9.48235294" y="70.6588235" width="27.5294118" height="18.6588235"></rect>
                <g id="Clipped" transform="translate(34.870588, 82.894118)">
                    <mask id="mask-8" fill="white">
                        <use xlink:href="#path-7"></use>
                    </mask>
                    <g id="5b44e697-61fe-43bd-9a58-5f3e41301748"></g>
                    <g id="Group" mask="url(#mask-8)" fill="#BDBDBD" opacity="0.4">
                        <g transform="translate(-29.117183, -11.707497)">
                            <polygon id="Path" points="1.06579876 17.3179493 8.00997214 6.57814994 10.9216904 11.2776125 17.1919567 4.78909804 22.5685635 11.2776125 27.2730944 1.65551326 39.3686285 20.8978824 0.17030805 19.5551788"></polygon>
                            <ellipse id="Oval" cx="6.4405743" cy="2.10369089" rx="2.01622755" ry="2.01405536"></ellipse>
                        </g>
                    </g>
                </g>
                <g id="Group" opacity="0.5" transform="translate(12.541176, 0.000000)" fill="url(#linearGradient-9)">
                    <polygon id="Rectangle" transform="translate(53.415095, 65.039740) rotate(-78.760000) translate(-53.415095, -65.039740) " points="-4.19729987 22.1895365 111.036524 22.1773968 111.027489 107.889943 -4.20633416 107.902082"></polygon>
                </g>
                <polygon id="Rectangle" fill="#FFFFFF" transform="translate(65.893856, 64.591344) rotate(-78.760000) translate(-65.893856, -64.591344) " points="10.3011619 23.0073503 121.465723 23.0352313 121.48655 106.175338 10.3219889 106.147457"></polygon>
                <polygon id="Rectangle" fill="#E0E0E0" transform="translate(69.741899, 14.374714) rotate(11.240000) translate(-69.741899, -14.374714) " points="40.2407125 13.9358908 99.2433099 13.9211104 99.243086 14.8135367 40.2404887 14.8283171"></polygon>
                <polygon id="Rectangle" fill="#E0E0E0" transform="translate(53.273673, 97.132986) rotate(11.240000) translate(-53.273673, -97.132986) " points="23.7724864 96.6941635 82.7750838 96.6793831 82.7748599 97.5718093 23.7722626 97.5865898"></polygon>
                <polygon id="Rectangle" fill="#E0E0E0" transform="translate(45.695173, 100.863777) rotate(11.240000) translate(-45.695173, -100.863777) " points="22.8989511 100.423274 68.491618 100.411853 68.4913942 101.304279 22.8987272 101.3157"></polygon>
                <polygon id="Rectangle" fill="#50D6A9" opacity="0.7" transform="translate(30.664568, 103.113793) rotate(11.240000) translate(-30.664568, -103.113793) " points="22.1717844 102.669707 39.1575744 102.665452 39.1573506 103.557879 22.1715606 103.562134"></polygon>
                <polygon id="Rectangle" fill="#50D6A9" opacity="0.7" transform="translate(54.272311, 16.541005) rotate(11.240000) translate(-54.272311, -16.541005) " points="39.5222299 16.0984867 69.022615 16.0910967 69.0223912 16.983523 39.5220061 16.990913"></polygon>
                <polygon id="Rectangle" fill="#E0E0E0" transform="translate(64.889690, 23.881377) rotate(11.240000) translate(-64.889690, -23.881377) " points="38.2937746 23.4418262 91.4858285 23.4285013 91.4856047 24.3209276 38.2935508 24.3342525"></polygon>
                <polygon id="Rectangle" fill="#3AD29F" opacity="0.7" transform="translate(44.158226, 25.001484) rotate(11.240000) translate(-44.158226, -25.001484) " points="37.677207 24.5568946 50.6394697 24.5536475 50.6392458 25.4460738 37.6769831 25.4493209"></polygon>
                <polygon id="Rectangle" fill="#E0E0E0" transform="translate(65.734179, 34.517451) rotate(11.240000) translate(-65.734179, -34.517451) " points="36.2329919 34.0786276 95.2355893 34.0638472 95.2353654 34.9562735 36.2327681 34.9710539"></polygon>
                <g id="Group" opacity="0.5" transform="translate(35.788235, 49.552941)" fill="url(#linearGradient-10)">
                    <polygon id="Rectangle" transform="translate(29.075532, 20.149978) rotate(-78.760000) translate(-29.075532, -20.149978) " points="13.8776648 -6.33987484 44.2700222 -6.33793695 44.2733992 46.6398307 13.8810418 46.6378928"></polygon>
                </g>
                <polygon id="Rectangle" fill="#FFFFFF" transform="translate(65.032647, 69.540147) rotate(11.240000) translate(-65.032647, -69.540147) " points="38.8870975 54.7021263 91.1856433 54.6890253 91.178197 84.3781685 38.8796512 84.3912695"></polygon>
                <polygon id="Rectangle" fill="#E0E0E0" transform="translate(64.732320, 39.552865) rotate(11.240000) translate(-64.732320, -39.552865) " points="35.2311333 39.1140422 94.2337306 39.0992618 94.2335068 39.9916881 35.2309095 40.0064685"></polygon>
                <polygon id="Rectangle" fill="#50D6A9" transform="translate(47.934049, 66.145336) rotate(11.240000) translate(-47.934049, -66.145336) " points="44.6961981 55.3202321 51.1773295 55.3186086 51.171899 76.97044 44.6907677 76.9720636"></polygon>
                <polygon id="Rectangle" fill="#3AD29F" transform="translate(58.636057, 71.912113) rotate(11.240000) translate(-58.636057, -71.912113) " points="55.3973108 64.6585388 61.8784422 64.6569152 61.8748033 79.1656863 55.3936719 79.1673099"></polygon>
                <polygon id="Rectangle" fill="#F55F44" transform="translate(69.382006, 77.456787) rotate(11.240000) translate(-69.382006, -77.456787) " points="66.1424201 73.5511807 72.6235514 73.5495571 72.6215919 81.3623935 66.1404606 81.364017"></polygon>
                <polygon id="Rectangle" fill="#FDD835" transform="translate(81.565260, 75.779433) rotate(11.240000) translate(-81.565260, -75.779433) " points="78.3266816 67.8560834 84.807813 67.8544598 84.8038381 83.7027829 78.3227067 83.7044064"></polygon>
                <rect id="Rectangle" fill="url(#linearGradient-3)" x="69.7411765" y="100.023529" width="33.9529412" height="27.8352941"></rect>
                <path d="M76.8014187,94.6199096 C76.8014187,89.164692 81.2414723,84.7423643 86.7185561,84.7423643 C92.1956398,84.7423643 96.6356934,89.164692 96.6356934,94.6199096 L96.6356934,100.941176 L99.4117647,100.941176 L99.4117647,94.6199096 C99.4117647,87.6371311 93.7284146,81.9764706 86.7176471,81.9764706 C79.7068795,81.9764706 74.0235294,87.6371311 74.0235294,94.6199096 L74.0235294,100.941176 L76.7996007,100.941176 L76.8014187,94.6199096 Z" id="Path" fill="url(#linearGradient-11)"></path>
                <path d="M77.3112513,94.5170386 C77.3112513,89.2378252 81.5911122,84.9581771 86.8705882,84.9581771 C92.1500642,84.9581771 96.4299251,89.2378252 96.4299251,94.5170386 L96.4299251,100.635294 L99.1058824,100.635294 L99.1058824,94.5170386 C99.1058824,87.7600083 93.6279546,82.2823529 86.8705882,82.2823529 C80.1132219,82.2823529 74.6352941,87.7600083 74.6352941,94.5170386 L74.6352941,100.635294 L77.3112513,100.635294 L77.3112513,94.5170386 Z" id="Path" fill="#F5F5F5"></path>
                <rect id="Rectangle" fill="#50D6A9" x="70.0470588" y="100.023529" width="33.3411765" height="27.2235294"></rect>
                <rect id="Rectangle" fill="#F5F5F5" x="70.0470588" y="100.023529" width="33.3411765" height="27.2235294"></rect>
                <rect id="Rectangle" fill="#50D6A9" x="70.0470588" y="105.529412" width="33.3411765" height="16.5176471"></rect>
                <path d="M89.3176371,110.706825 C89.3189329,109.619327 88.5873784,108.664372 87.5288807,108.371824 C86.4703829,108.079275 85.3446252,108.520904 84.7762404,109.45167 C84.2078556,110.382436 84.3362866,111.573993 85.0902728,112.365199 L85.0902728,117.532436 C85.0902728,118.505386 85.887353,119.294118 86.8706012,119.294118 C87.8538495,119.294118 88.6509297,118.505386 88.6509297,117.532436 L88.6509297,112.370636 C89.0807182,111.921252 89.3194254,111.325543 89.3176371,110.706825 Z" id="Path" fill="url(#linearGradient-12)"></path>
                <path d="M89.0117629,110.982213 C89.0129983,110.045625 88.372882,109.223141 87.4466294,108.971175 C86.5203767,108.71921 85.5352629,109.099589 85.0379505,109.90123 C84.5406381,110.702872 84.6531529,111.729078 85.3130578,112.410382 L85.3130578,116.859607 C85.3130578,117.697348 86.0103946,118.376471 86.870603,118.376471 C87.7308114,118.376471 88.4281481,117.697348 88.4281481,116.859607 L88.4281481,112.410382 C88.8031374,112.024573 89.0120043,111.513453 89.0117629,110.982213 Z" id="Path" fill="#000000" opacity="0.2"></path>
            </g>
        </g>
    </g>
</svg>