<?xml version="1.0" encoding="UTF-8"?>
<svg width="136px" height="110px" viewBox="0 0 136 110" version="1.1" xmlns="http://www.w3.org/2000/svg" xmlns:xlink="http://www.w3.org/1999/xlink">
    <!-- Generator: Sketch 52.2 (67145) - http://www.bohemiancoding.com/sketch -->
    <title>undraw_server_q2pb</title>
    <desc>Created with Sketch.</desc>
    <defs>
        <linearGradient x1="50%" y1="100%" x2="50%" y2="0%" id="linearGradient-1">
            <stop stop-color="#808080" stop-opacity="0.25" offset="0%"></stop>
            <stop stop-color="#808080" stop-opacity="0.12" offset="54%"></stop>
            <stop stop-color="#808080" stop-opacity="0.1" offset="100%"></stop>
        </linearGradient>
        <linearGradient x1="49.9982618%" y1="100%" x2="49.9982618%" y2="0%" id="linearGradient-2">
            <stop stop-color="#808080" stop-opacity="0.25" offset="0%"></stop>
            <stop stop-color="#808080" stop-opacity="0.12" offset="54%"></stop>
            <stop stop-color="#808080" stop-opacity="0.1" offset="100%"></stop>
        </linearGradient>
    </defs>
    <g id="landing" stroke="none" stroke-width="1" fill="none" fill-rule="evenodd">
        <g id="003-L" transform="translate(-205.000000, -729.000000)">
            <g id="undraw_server_q2pb" transform="translate(205.000000, 729.000000)">
                <rect id="Rectangle" fill="url(#linearGradient-1)" x="0" y="0" width="70.8232446" height="79.0072639"></rect>
                <rect id="Rectangle" fill="#FFFFFF" x="1.2590799" y="52.8813559" width="68.6198547" height="24.5520581"></rect>
                <rect id="Rectangle" fill="#64FFDA" x="6.92493947" y="58.5472155" width="2.51815981" height="12.590799"></rect>
                <g id="Group" opacity="0.7" transform="translate(11.961259, 58.547215)" fill="#64FFDA">
                    <rect id="Rectangle" x="0.134980772" y="0.010208756" width="2.5663011" height="12.4206531"></rect>
                </g>
                <g id="Group" opacity="0.6" transform="translate(17.312349, 58.547215)" fill="#64FFDA">
                    <rect id="Rectangle" x="0.0389527845" y="0.010208756" width="2.72669492" height="12.4206531"></rect>
                </g>
                <g id="Group" opacity="0.5" transform="translate(22.348668, 58.547215)" fill="#64FFDA">
                    <rect id="Rectangle" x="0.103318616" y="0.010208756" width="2.5663011" height="12.4206531"></rect>
                </g>
                <g id="Group" opacity="0.5" transform="translate(27.699758, 58.547215)" fill="#64FFDA">
                    <rect id="Rectangle" x="0.00354116223" y="0.010208756" width="2.72669492" height="12.4206531"></rect>
                </g>
                <g id="Group" opacity="0.4" transform="translate(32.736077, 58.547215)" fill="#64FFDA">
                    <rect id="Rectangle" x="0.0743644068" y="0.010208756" width="2.72669492" height="12.4206531"></rect>
                </g>
                <g id="Group" opacity="0.3" transform="translate(38.087167, 58.547215)" fill="#64FFDA">
                    <rect id="Rectangle" x="0.138313631" y="0.010208756" width="2.5663011" height="12.4206531"></rect>
                </g>
                <circle id="Oval" fill="#50D6A9" cx="59.9636804" cy="64.68523" r="6.4527845"></circle>
                <rect id="Rectangle" fill="#FFFFFF" x="1.2590799" y="27.3849879" width="68.6198547" height="24.5520581"></rect>
                <rect id="Rectangle" fill="#64FFDA" x="6.92493947" y="33.0508475" width="2.51815981" height="12.590799"></rect>
                <g id="Group" opacity="0.7" transform="translate(11.961259, 33.050847)" fill="#64FFDA">
                    <rect id="Rectangle" x="0.134980772" y="0.00850729664" width="2.5663011" height="12.4206531"></rect>
                </g>
                <g id="Group" opacity="0.6" transform="translate(17.312349, 33.050847)" fill="#64FFDA">
                    <rect id="Rectangle" x="0.0389527845" y="0.00850729664" width="2.72669492" height="12.4206531"></rect>
                </g>
                <g id="Group" opacity="0.5" transform="translate(22.348668, 33.050847)" fill="#64FFDA">
                    <rect id="Rectangle" x="0.103318616" y="0.00850729664" width="2.5663011" height="12.4206531"></rect>
                </g>
                <g id="Group" opacity="0.5" transform="translate(27.699758, 33.050847)" fill="#64FFDA">
                    <rect id="Rectangle" x="0.00354116223" y="0.00850729664" width="2.72669492" height="12.4206531"></rect>
                </g>
                <g id="Group" opacity="0.4" transform="translate(32.736077, 33.050847)" fill="#64FFDA">
                    <rect id="Rectangle" x="0.0743644068" y="0.00850729664" width="2.72669492" height="12.4206531"></rect>
                </g>
                <g id="Group" opacity="0.3" transform="translate(38.087167, 33.050847)" fill="#64FFDA">
                    <rect id="Rectangle" x="0.138313631" y="0.00850729664" width="2.5663011" height="12.4206531"></rect>
                </g>
                <circle id="Oval" fill="#50D6A9" cx="59.9636804" cy="39.188862" r="6.4527845"></circle>
                <rect id="Rectangle" fill="#FFFFFF" x="1.2590799" y="1.88861985" width="68.6198547" height="24.5520581"></rect>
                <rect id="Rectangle" fill="#64FFDA" x="6.92493947" y="7.55447942" width="2.51815981" height="12.590799"></rect>
                <g id="Group" opacity="0.7" transform="translate(11.961259, 7.554479)" fill="#64FFDA">
                    <rect id="Rectangle" x="0.134980772" y="0.00850729664" width="2.5663011" height="12.4206531"></rect>
                </g>
                <g id="Group" opacity="0.6" transform="translate(17.312349, 7.554479)" fill="#64FFDA">
                    <rect id="Rectangle" x="0.0389527845" y="0.00850729664" width="2.72669492" height="12.4206531"></rect>
                </g>
                <g id="Group" opacity="0.5" transform="translate(22.348668, 7.554479)" fill="#64FFDA">
                    <rect id="Rectangle" x="0.103318616" y="0.00850729664" width="2.5663011" height="12.4206531"></rect>
                </g>
                <g id="Group" opacity="0.5" transform="translate(27.699758, 7.554479)" fill="#64FFDA">
                    <rect id="Rectangle" x="0.00354116223" y="0.00850729664" width="2.72669492" height="12.4206531"></rect>
                </g>
                <g id="Group" opacity="0.4" transform="translate(32.736077, 7.554479)" fill="#64FFDA">
                    <rect id="Rectangle" x="0.0743644068" y="0.00850729664" width="2.72669492" height="12.4206531"></rect>
                </g>
                <g id="Group" opacity="0.3" transform="translate(38.087167, 7.554479)" fill="#64FFDA">
                    <rect id="Rectangle" x="0.138313631" y="0.00850729664" width="2.5663011" height="12.4206531"></rect>
                </g>
                <circle id="Oval" fill="url(#linearGradient-1)" cx="60.1210654" cy="13.8498789" r="6.92493947"></circle>
                <circle id="Oval" fill="url(#linearGradient-1)" cx="60.1210654" cy="39.346247" r="6.92493947"></circle>
                <circle id="Oval" fill="url(#linearGradient-1)" cx="60.1210654" cy="64.842615" r="6.92493947"></circle>
                <circle id="Oval" fill="#50D6A9" cx="59.9636804" cy="13.6924939" r="6.4527845"></circle>
                <g id="Group" opacity="0.7" transform="translate(79.322034, 27.384988)" stroke="#50D6A9" stroke-linecap="round" stroke-linejoin="round" stroke-width="4">
                    <path d="M0,0.115034118 L1.03463522,0.115034118" id="Path"></path>
                    <path d="M6.79065586,0.115034118 L35.5759322,0.115034118" id="Path" stroke-dasharray="12.52"></path>
                    <polyline id="Path" points="38.4539425 0.115034118 39.4885777 0.115034118 39.4885777 1.1451904"></polyline>
                    <path d="M39.4885777,6.60673564 L39.4885777,26.4011886" id="Path" stroke-dasharray="11.93"></path>
                    <path d="M39.4885777,29.1311028 L39.4885777,30.1612591" id="Path"></path>
                </g>
                <g id="Group" opacity="0.7" transform="translate(11.922518, 82.099274)" stroke="#50D6A9" stroke-linecap="round" stroke-linejoin="round" stroke-width="4">
                    <path d="M43.5885925,9.12002421 L42.5539573,9.11486683" id="Path"></path>
                    <path d="M36.7979366,9.08736077 L8.01438467,8.94983051" id="Path" stroke-dasharray="12.52"></path>
                    <path d="M1.24486367,11.9498305 L1.22072218,6.69956416" id="Path" stroke-dasharray="11.55"></path>
                    <path d="M1.2379661,1.05210654 L1.24486367,0.02062954" id="Path"></path>
                </g>
                <path d="M104.324068,88.5956416 C104.324068,88.5956416 106.377826,102.52378 118.498789,107.16707 L69.3946731,107.16707 C81.5156365,102.52378 83.5693947,88.5956416 83.5693947,88.5956416 L104.324068,88.5956416 Z" id="Path" fill="#E0E0E0"></path>
                <rect id="Rectangle" fill="url(#linearGradient-2)" x="69.0799031" y="107.16707" width="49.7336562" height="2.83292978"></rect>
                <rect id="Rectangle" fill="#F5F5F5" x="69.3946731" y="107.16707" width="49.1041162" height="2.20338983"></rect>
                <path d="M133.95845,39.4915254 L54.2497824,39.4915254 C53.2265711,39.4915254 52.3970944,40.3187464 52.3970944,41.3391752 L52.3970944,91.4216565 C52.3970944,92.6423741 53.38938,93.6319613 54.6134263,93.6319613 L133.594806,93.6319613 C134.182614,93.6319613 134.746347,93.3990905 135.161989,92.984578 C135.577632,92.5700654 135.811138,92.0078658 135.811138,91.4216565 L135.811138,41.3391752 C135.811138,40.3187464 134.981661,39.4915254 133.95845,39.4915254 Z" id="Path" fill="url(#linearGradient-1)"></path>
                <path d="M55.1974612,40.1210654 L132.696002,40.1210654 C133.721074,40.1210654 134.552058,40.9477718 134.552058,41.9675659 L134.552058,84.8184019 L53.3414044,84.8184019 L53.3414052,41.9692836 C53.340947,41.4792637 53.5362929,41.0091576 53.8844206,40.6625 C54.2325483,40.3158424 54.7049052,40.1210652 55.1974612,40.1210654 Z" id="Path" fill="#FFFFFF"></path>
                <path d="M132.331697,92.0581114 L55.5617654,92.0581114 C54.3354938,92.0581114 53.3414044,91.0869212 53.3414044,89.8888974 L53.3414044,84.8184019 L134.552058,84.8184019 L134.552058,89.8888974 C134.552058,91.0869212 133.557969,92.0581114 132.331697,92.0581114 Z" id="Path" fill="#F5F5F5"></path>
                <rect id="Rectangle" fill="#50D6A9" x="57.433414" y="43.5835351" width="73.3414044" height="36.1985472"></rect>
                <polygon id="Path" fill="#FFFFFF" opacity="0.2" points="60.2884994 45.9978055 130.774818 45.9978055 130.774818 43.5835351 57.433414 43.5835351 57.433414 79.7820823 60.2884994 79.7820823"></polygon>
            </g>
        </g>
    </g>
</svg>