<?xml version="1.0" encoding="UTF-8"?>
<svg width="446px" height="257px" viewBox="0 0 446 257" version="1.1" xmlns="http://www.w3.org/2000/svg" xmlns:xlink="http://www.w3.org/1999/xlink">
    <!-- Generator: Sketch 52.2 (67145) - http://www.bohemiancoding.com/sketch -->
    <title>product-tour</title>
    <desc>Created with Sketch.</desc>
    <defs>
        <linearGradient x1="25.4274251%" y1="7.864782%" x2="54.6221802%" y2="100%" id="linearGradient-1">
            <stop stop-color="#4FFFC4" offset="0%"></stop>
            <stop stop-color="#3CD19F" offset="100%"></stop>
        </linearGradient>
        <linearGradient x1="50%" y1="100%" x2="50%" y2="0%" id="linearGradient-2">
            <stop stop-color="#808080" stop-opacity="0.25" offset="0%"></stop>
            <stop stop-color="#808080" stop-opacity="0.12" offset="54%"></stop>
            <stop stop-color="#808080" stop-opacity="0.1" offset="100%"></stop>
        </linearGradient>
        <linearGradient x1="0%" y1="50.0037512%" x2="100%" y2="50.0037512%" id="linearGradient-3">
            <stop stop-color="#808080" stop-opacity="0.25" offset="0%"></stop>
            <stop stop-color="#808080" stop-opacity="0.12" offset="54%"></stop>
            <stop stop-color="#808080" stop-opacity="0.1" offset="100%"></stop>
        </linearGradient>
    </defs>
    <g id="landing" stroke="none" stroke-width="1" fill="none" fill-rule="evenodd">
        <g id="002" transform="translate(-124.000000, -132.000000)">
            <g id="product-tour" transform="translate(124.000000, 132.000000)">
                <g id="product-tour.ef41ebaf" transform="translate(223.000000, 128.500000) scale(-1, 1) translate(-223.000000, -128.500000) ">
                    <g id="securebar" transform="translate(278.700260, 18.000000) scale(-1, 1) translate(-278.700260, -18.000000) translate(117.200260, 0.000000)">
                        <rect id="Rectangle-2" stroke="#979797" fill="#F2F2F2" x="0.5" y="0.5" width="321.46554" height="34.9302832"></rect>
                        <g id="rotate-cw" transform="translate(40.707283, 10.379860)" stroke="#72777D" stroke-linecap="round" stroke-linejoin="round" stroke-width="2">
                            <polyline id="Shape" points="15.9636406 0.798450738 15.9636406 5.58915517 11.1745484 5.58915517"></polyline>
                            <path d="M13.9602037,9.58140886 C12.8943288,12.5993806 9.96156327,14.5483358 6.76731944,14.3614055 C3.57307562,14.1744752 0.887494402,11.8967287 0.180678072,8.77501734 C-0.526138259,5.65330598 0.91622564,2.44028284 3.71821165,0.894774878 C6.52019766,-0.650733088 10.0062393,-0.156099697 12.2680578,2.10790995 L15.9636406,5.58915517" id="Shape"></path>
                        </g>
                        <g id="url" transform="translate(70.240019, 5.589155)">
                            <rect id="Rectangle-3" stroke="#BBBBBB" fill="#FFFFFF" x="0.5" y="0.5" width="236.858245" height="23.7519729" rx="4"></rect>
                            <g id="Group-2" transform="translate(7.981820, 2.395352)">
                                <path d="M19.9693607,15.2828462 C19.4174899,15.2828462 18.898365,15.1822611 18.4119704,14.9810879 C17.9255758,14.7799148 17.5151865,14.4804987 17.1807902,14.0828308 C16.8463939,13.685163 16.6347687,13.2009511 16.5459081,12.6301807 L17.5841683,12.3214049 C17.6309371,12.7518219 17.7665643,13.1155655 17.9910541,13.4126469 C18.2155439,13.7097282 18.5008288,13.9307814 18.8469173,14.0758132 C19.1930057,14.220845 19.5694882,14.2933598 19.976376,14.2933598 C20.5890461,14.2933598 21.0766027,14.1424822 21.4390602,13.8407225 C21.8015177,13.5389627 21.9827437,13.0980259 21.9827437,12.5178986 C21.9827437,12.134266 21.8821925,11.8102885 21.681087,11.5459564 C21.4799816,11.2816242 21.2321111,11.0640797 20.9374682,10.8933164 C20.6428254,10.7225532 20.2429589,10.527231 19.7378568,10.3073441 C19.1813091,10.0640649 18.7358438,9.84301163 18.4014475,9.64417769 C18.0670512,9.44534375 17.7841048,9.17984594 17.5525996,8.8476763 C17.3210945,8.51550665 17.2053437,8.1061488 17.2053437,7.61959044 C17.2053437,7.1236752 17.3257713,6.6850775 17.5666302,6.30378417 C17.807489,5.92249085 18.1325267,5.62775319 18.5417529,5.41956236 C18.9509792,5.21137153 19.4011213,5.10727767 19.8921928,5.10727767 C20.4861554,5.10727767 21.0169723,5.235933 21.4846594,5.49324751 C21.9523466,5.75056202 22.3381826,6.136528 22.6421793,6.65115703 L21.8073619,7.2125677 C21.6156102,6.8336136 21.3490326,6.5482327 21.007621,6.35641642 C20.6662094,6.16460015 20.2897269,6.06869345 19.8781622,6.06869345 C19.5975499,6.06869345 19.3356491,6.12834274 19.0924518,6.24764311 C18.8492545,6.36694347 18.653998,6.53653458 18.5066766,6.75642153 C18.3593551,6.97630848 18.2856955,7.23127994 18.2856955,7.52134358 C18.2856955,7.83479944 18.3768931,8.10614522 18.5592911,8.33538906 C18.7416891,8.56463289 18.9685139,8.75761588 19.2397725,8.91434381 C19.511031,9.07107174 19.8804983,9.25469798 20.3481854,9.46522804 C20.9327943,9.727221 21.4051512,9.96815734 21.7652703,10.1880443 C22.1253894,10.4079312 22.4317199,10.7014993 22.6842709,11.0687573 C22.9368219,11.4360153 23.0630956,11.8909873 23.0630956,12.433687 C23.0630956,12.9997789 22.9286375,13.4991955 22.6597175,13.9319517 C22.3907974,14.364708 22.0213301,14.6980422 21.5513045,14.9319645 C21.081279,15.1658868 20.5539696,15.2828462 19.9693607,15.2828462 Z M27.5458542,15.2688109 C26.863031,15.2688109 26.2842769,15.1085765 25.8095745,14.788103 C25.334872,14.4676295 24.9794352,14.0372189 24.7432532,13.4968585 C24.5070712,12.956498 24.3889819,12.3588355 24.3889819,11.7038531 C24.3889819,11.0582276 24.5047328,10.4582259 24.7362379,9.90383013 C24.967743,9.34943432 25.3126571,8.90381905 25.7709905,8.56697096 C26.2293238,8.23012287 26.7835248,8.06170135 27.4336099,8.06170135 C28.1491712,8.06170135 28.7279253,8.22661409 29.1698896,8.55644451 C29.611854,8.88627493 29.9287072,9.30849832 30.1204589,9.82312735 C30.3122107,10.3377564 30.4080851,10.8898047 30.4080851,11.4792888 C30.4080851,11.6289991 30.3963931,11.8091166 30.3730087,12.0196466 L25.4903796,12.0196466 C25.4857027,12.4453852 25.5617007,12.8348599 25.7183759,13.1880826 C25.8750511,13.5413052 26.107722,13.8231774 26.4163955,14.0337074 C26.725069,14.2442375 27.0992131,14.3495009 27.5388389,14.3495009 C27.9644342,14.3495009 28.3339015,14.29453 28.6472519,14.1845865 C28.9606023,14.0746431 29.2482255,13.8793209 29.5101303,13.5986141 L30.225688,14.1740601 C29.8468615,14.5576926 29.4458258,14.836056 29.0225689,15.0091585 C28.5993121,15.1822609 28.1070788,15.2688109 27.5458542,15.2688109 Z M29.4049012,11.1634953 C29.3908706,10.5272267 29.2248442,9.9950615 28.9068169,9.56698372 C28.5887897,9.13890594 28.0977256,8.92487026 27.4336099,8.92487026 C27.0220452,8.92487026 26.6736235,9.02545534 26.3883344,9.2266285 C26.1030452,9.42780167 25.8867432,9.69680826 25.7394217,10.0336563 C25.5921003,10.3705044 25.5090871,10.7471137 25.4903796,11.1634953 L29.4049012,11.1634953 Z M34.7224772,15.3109167 C34.077069,15.3109167 33.5240373,15.1448344 33.0633654,14.8126647 C32.6026936,14.4804951 32.2566103,14.037219 32.0251052,13.4828232 C31.7936001,12.9284274 31.6778493,12.3260865 31.6778493,11.6757826 C31.6778493,11.0301571 31.7936001,10.4278162 32.0251052,9.86874196 C32.2566103,9.3096677 32.6003552,8.86054365 33.0563502,8.52135634 C33.5123451,8.18216903 34.0630384,8.01257792 34.7084467,8.01257792 C35.3351474,8.01257792 35.8846715,8.17749065 36.3570355,8.50732107 C36.8293995,8.8371515 37.1895132,9.2944627 37.4373874,9.87926841 L36.4482341,10.3003264 C36.3453429,9.87458786 36.1348868,9.53423604 35.8168596,9.27926075 C35.4988324,9.02428546 35.1293651,8.89679973 34.7084467,8.89679973 C34.2547902,8.89679973 33.8806461,9.03364221 33.5860032,9.30733129 C33.2913603,9.58102036 33.0785658,9.92955934 32.9476135,10.3529587 C32.8166611,10.776358 32.7511858,11.2172949 32.7511858,11.6757826 C32.7511858,12.1436271 32.8154919,12.5857336 32.9441058,13.0021153 C33.0727198,13.418497 33.284345,13.7600184 33.5789879,14.0266898 C33.8736308,14.2933612 34.2501133,14.4266949 34.7084467,14.4266949 C35.1340419,14.4266949 35.5035092,14.3027179 35.8168596,14.0547603 C36.13021,13.8068027 36.340666,13.474638 36.4482341,13.0582564 L37.3602194,13.4512438 C37.1497602,14.0360495 36.8153689,14.4921912 36.3570355,14.8196824 C35.8987021,15.1471736 35.3538548,15.3109167 34.7224772,15.3109167 Z M41.274741,15.324952 C40.4562885,15.324952 39.8506428,15.0430798 39.4577856,14.4793271 C39.0649284,13.9155744 38.8685028,13.1658648 38.8685028,12.2301756 L38.8685028,8.15994822 L39.9137783,8.15994822 L39.9137783,12.300352 C39.9137783,12.9085499 40.0236831,13.4173232 40.2434961,13.8266872 C40.463309,14.2360512 40.8444683,14.4407302 41.3869854,14.4407302 C41.7564582,14.4407302 42.1013723,14.3354667 42.4217379,14.1249366 C42.7421036,13.9144066 42.9981585,13.6266865 43.1899102,13.2617677 C43.3816619,12.896849 43.4775363,12.4898303 43.4775363,12.0406995 L43.4775363,8.15994822 L44.5157966,8.15994822 L44.5157966,15.170564 L43.4775363,15.170564 L43.4775363,13.984584 C43.379322,14.1997925 43.2249876,14.4103194 43.0145284,14.616171 C42.8040692,14.8220226 42.5480143,14.9916137 42.2463561,15.1249494 C41.944698,15.2582851 41.6208295,15.324952 41.274741,15.324952 Z M46.8799431,8.15994822 L47.9252186,8.15994822 L47.9252186,9.40206934 C48.1076166,8.97633078 48.3870555,8.63831815 48.7635436,8.38802131 C49.1400317,8.13772446 49.550421,8.01257792 49.9947238,8.01257792 C50.2238905,8.01257792 50.4343465,8.04532655 50.6260982,8.11082479 C50.81785,8.17632302 50.9838764,8.26521216 51.1241825,8.37749486 L50.6822204,9.28276957 C50.4717612,9.10498863 50.1864763,9.0160995 49.8263573,9.0160995 C49.4288232,9.0160995 49.0862475,9.12019335 48.7986199,9.32838419 C48.5109924,9.53657502 48.2911827,9.83949983 48.1391844,10.2371677 C47.9871861,10.6348356 47.9111881,11.1120299 47.9111881,11.6687649 L47.9111881,15.170564 L46.8799431,15.170564 L46.8799431,8.15994822 Z M55.0737805,15.2688109 C54.3909573,15.2688109 53.8122032,15.1085765 53.3375008,14.788103 C52.8627983,14.4676295 52.5073615,14.0372189 52.2711795,13.4968585 C52.0349975,12.956498 51.9169082,12.3588355 51.9169082,11.7038531 C51.9169082,11.0582276 52.0326591,10.4582259 52.2641642,9.90383013 C52.4956693,9.34943432 52.8405834,8.90381905 53.2989168,8.56697096 C53.7572501,8.23012287 54.3114511,8.06170135 54.9615362,8.06170135 C55.6770975,8.06170135 56.2558516,8.22661409 56.6978159,8.55644451 C57.1397803,8.88627493 57.4566335,9.30849832 57.6483852,9.82312735 C57.840137,10.3377564 57.9360114,10.8898047 57.9360114,11.4792888 C57.9360114,11.6289991 57.9243194,11.8091166 57.900935,12.0196466 L53.0183059,12.0196466 C53.013629,12.4453852 53.089627,12.8348599 53.2463022,13.1880826 C53.4029774,13.5413052 53.6356483,13.8231774 53.9443218,14.0337074 C54.2529953,14.2442375 54.6271394,14.3495009 55.0667652,14.3495009 C55.4923605,14.3495009 55.8618278,14.29453 56.1751782,14.1845865 C56.4885286,14.0746431 56.7761518,13.8793209 57.0380566,13.5986141 L57.7536143,14.1740601 C57.3747878,14.5576926 56.9737521,14.836056 56.5504952,15.0091585 C56.1272384,15.1822609 55.6350051,15.2688109 55.0737805,15.2688109 Z M56.9328275,11.1634953 C56.9187969,10.5272267 56.7527705,9.9950615 56.4347432,9.56698372 C56.116716,9.13890594 55.6256519,8.92487026 54.9615362,8.92487026 C54.5499715,8.92487026 54.2015498,9.02545534 53.9162607,9.2266285 C53.6309715,9.42780167 53.4146695,9.69680826 53.267348,10.0336563 C53.1200266,10.3705044 53.0370134,10.7471137 53.0183059,11.1634953 L56.9328275,11.1634953 Z" id="Secure" fill="#3B8039"></path>
                                <g id="lock" transform="translate(0.000000, 3.193803)" stroke="#3B8039" stroke-linecap="round" stroke-linejoin="round" stroke-width="2">
                                    <path d="M2,5.37903655 L7.41014602,5.37903655 C8.51471552,5.37903655 9.41014602,6.27446705 9.41014602,7.37903655 L9.41014602,10.7752118 C9.41014602,11.8797813 8.51471552,12.7752118 7.41014602,12.7752118 L2,12.7752118 C0.8954305,12.7752118 1.3527075e-16,11.8797813 0,10.7752118 L0,7.37903655 C-1.3527075e-16,6.27446705 0.8954305,5.37903655 2,5.37903655 Z" id="Rectangle-path" fill="#3B8039"></path>
                                    <path d="M1.34430657,6.05141612 L1.34430657,3.36189785 C1.34430657,1.50517293 2.84897296,1.18677493e-15 4.70507301,8.8817842e-16 C6.56117306,2.90985397e-16 8.06583945,1.50517293 8.06583945,3.36189785 L8.06583945,6.05141612" id="Shape"></path>
                                </g>
                                <path d="M65.8500174,0.399225369 L65.8500174,18.7635924" id="Line" stroke="#9B9B9B" stroke-linecap="square"></path>
                            </g>
                            <path d="M82.6071631,6.85154945 L83.6454234,6.85154945 L83.6454234,10.9077416 C83.8792669,10.524109 84.2043046,10.2153363 84.6205461,9.98141397 C85.0367877,9.74749168 85.4717302,9.63053229 85.9253867,9.63053229 C86.45855,9.63053229 86.9016769,9.75684843 87.2547807,10.0094845 C87.6078844,10.2621206 87.8674469,10.6001332 88.0334758,11.0235325 C88.1995048,11.4469319 88.282518,11.9206174 88.282518,12.4446033 L88.282518,16.7674655 L87.2232119,16.7674655 L87.2232119,12.6130265 C87.2232119,12.0422561 87.1121379,11.5662314 86.8899865,11.1849381 C86.6678352,10.8036448 86.2831683,10.613001 85.7359743,10.613001 C85.3384403,10.613001 84.9794958,10.719434 84.6591301,10.9323033 C84.3387644,11.1451726 84.0897248,11.4328927 83.9120037,11.7954722 C83.7342826,12.1580518 83.6454234,12.5545441 83.6454234,12.9849611 L83.6454234,16.7674655 L82.6071631,16.7674655 L82.6071631,6.85154945 Z M92.4285436,16.9078182 C91.2967407,16.9078182 90.7308478,16.2411497 90.7308478,14.9077926 L90.7308478,10.613001 L89.6084043,10.613001 L89.6084043,9.7568497 L90.7378631,9.7568497 L90.7378631,8.17788217 L91.7761233,7.19541349 L91.7761233,9.7568497 L93.5509871,9.7568497 L93.5509871,10.613001 L91.7761233,10.613001 L91.7761233,14.9148103 C91.7761233,15.2844075 91.8579673,15.56511 92.0216578,15.7569263 C92.1853483,15.9487426 92.4004812,16.0446493 92.6670628,16.0446493 C92.8915526,16.0446493 93.1253927,15.9861696 93.36859,15.8692084 L93.36859,16.7674655 C93.2797294,16.8048931 93.1499482,16.8376417 92.9792424,16.8657124 C92.8085366,16.893783 92.6249722,16.9078182 92.4285436,16.9078182 Z M97.1498215,16.9078182 C96.0180186,16.9078182 95.4521257,16.2411497 95.4521257,14.9077926 L95.4521257,10.613001 L94.3296822,10.613001 L94.3296822,9.7568497 L95.459141,9.7568497 L95.459141,8.17788217 L96.4974012,7.19541349 L96.4974012,9.7568497 L98.2722649,9.7568497 L98.2722649,10.613001 L96.4974012,10.613001 L96.4974012,14.9148103 C96.4974012,15.2844075 96.5792452,15.56511 96.7429357,15.7569263 C96.9066262,15.9487426 97.121759,16.0446493 97.3883407,16.0446493 C97.6128305,16.0446493 97.8466706,15.9861696 98.0898679,15.8692084 L98.0898679,16.7674655 C98.0010073,16.8048931 97.8712261,16.8376417 97.7005203,16.8657124 C97.5298145,16.893783 97.34625,16.9078182 97.1498215,16.9078182 Z M99.9348843,9.7568497 L100.987175,9.7568497 L100.987175,10.7112478 C101.221019,10.3650429 101.521503,10.0948667 101.888638,9.90071118 C102.255772,9.70655569 102.6685,9.60947939 103.126833,9.60947939 C103.734826,9.60947939 104.253951,9.77088335 104.684223,10.0936961 C105.114495,10.4165089 105.439533,10.853937 105.659346,11.4059936 C105.879159,11.9580501 105.989064,12.5755957 105.989064,13.2586488 C105.989064,13.9370234 105.879159,14.5522298 105.659346,15.1042864 C105.439533,15.656343 105.115665,16.0949407 104.687731,16.4200926 C104.259797,16.7452446 103.741842,16.9078182 103.133848,16.9078182 C102.680192,16.9078182 102.268633,16.8130811 101.89916,16.623604 C101.529688,16.434127 101.225696,16.1639508 100.987175,15.8130674 L100.987175,19.841189 L99.9348843,19.841189 L99.9348843,9.7568497 Z M102.90936,16.0235964 C103.358339,16.0235964 103.734822,15.8961106 104.038818,15.6411353 C104.342815,15.38616 104.568471,15.049317 104.715792,14.6305961 C104.863113,14.2118752 104.936773,13.754564 104.936773,13.2586488 C104.936773,12.7627335 104.863113,12.3054223 104.715792,11.8867014 C104.568471,11.4679806 104.342815,11.1311375 104.038818,10.8761622 C103.734822,10.6211869 103.358339,10.4937012 102.90936,10.4937012 C102.455703,10.4937012 102.078051,10.6211869 101.776393,10.8761622 C101.474735,11.1311375 101.251418,11.4679806 101.106435,11.8867014 C100.961452,12.3054223 100.888961,12.7627335 100.888961,13.2586488 C100.888961,13.7592425 100.961452,14.2188929 101.106435,14.6376138 C101.251418,15.0563346 101.474735,15.3920081 101.776393,15.6446442 C102.078051,15.8972802 102.455703,16.0235964 102.90936,16.0235964 Z M109.784326,16.9078182 C109.358731,16.9078182 108.967048,16.8294554 108.609268,16.6727275 C108.251487,16.5159995 107.949834,16.3066422 107.704298,16.0446493 C107.458762,15.7826563 107.279874,15.492597 107.167629,15.1744627 L108.051554,14.7183165 C108.182506,15.1159844 108.395301,15.4376227 108.689943,15.6832411 C108.984586,15.9288595 109.354054,16.0516669 109.798356,16.0516669 C110.209921,16.0516669 110.541974,15.9510818 110.794525,15.7499087 C111.047076,15.5487355 111.17335,15.2633546 111.17335,14.8937574 C111.17335,14.6177291 111.097352,14.3908279 110.945353,14.2130469 C110.793355,14.035266 110.606283,13.8972539 110.384132,13.7990066 C110.16198,13.7007592 109.856819,13.5884782 109.468639,13.4621602 C109.029013,13.3218068 108.675914,13.1873035 108.409333,13.0586462 C108.142751,12.929989 107.915926,12.7440235 107.728851,12.5007444 C107.541776,12.2574652 107.44824,11.9416748 107.44824,11.5533639 C107.44824,11.1463391 107.548792,10.7966305 107.749897,10.5042277 C107.951003,10.2118248 108.219919,9.98960197 108.556653,9.83755248 C108.893388,9.685503 109.265194,9.60947939 109.672082,9.60947939 C110.195891,9.60947939 110.655387,9.73462594 111.050582,9.98492278 C111.445778,10.2352196 111.753278,10.5755714 111.973091,11.0059884 L111.201411,11.4480994 C111.047074,11.1346435 110.838956,10.891368 110.577052,10.7182655 C110.315147,10.545163 110.001801,10.458613 109.637005,10.458613 C109.262855,10.458613 108.964709,10.5475022 108.742558,10.7252831 C108.520407,10.903064 108.409333,11.1369828 108.409333,11.4270465 C108.409333,11.6516118 108.477146,11.8364077 108.612775,11.9814395 C108.748405,12.1264713 108.919108,12.2434307 109.12489,12.3323212 C109.330673,12.4212116 109.613619,12.5217967 109.973738,12.6340794 C110.441425,12.7791112 110.823754,12.9218017 111.120735,13.062155 C111.417716,13.2025084 111.670264,13.4106961 111.878384,13.6867244 C112.086505,13.9627527 112.190564,14.3229876 112.190564,14.76744 C112.190564,15.2259277 112.078321,15.616572 111.853831,15.9393848 C111.629341,16.2621975 111.333534,16.5043034 110.966399,16.6657098 C110.599265,16.8271162 110.205244,16.9078182 109.784326,16.9078182 Z" id="https" fill="#3B8039"></path>
                            <path d="M114.213301,9.27419246 L115.581279,9.27419246 L115.581279,10.6285957 L114.213301,10.6285957 L114.213301,9.27419246 Z M114.213301,14.6075939 L115.581279,14.6075939 L115.581279,15.9690148 L114.213301,15.9690148 L114.213301,14.6075939 Z M122.617596,5.33028247 L123.683918,5.33028247 L118.401418,18.9865971 L117.328081,18.9865971 L122.617596,5.33028247 Z M129.120753,5.33028247 L130.187074,5.33028247 L124.904575,18.9865971 L123.831238,18.9865971 L129.120753,5.33028247 Z" id="://" fill="#9B9B9B"></path>
                        </g>
                        <g id="arrow-right" transform="translate(9.578184, 11.976761)" stroke="#D8D9DB" stroke-linecap="round" stroke-linejoin="round" stroke-width="2">
                            <path d="M0,6.38760591 L15.9636406,6.38760591" id="Shape"></path>
                            <polyline id="Shape" points="10.3763664 0 16.7618226 5.98838054 10.3763664 11.9767611"></polyline>
                        </g>
                        <path d="M203.156813,22.4969733 C202.717187,22.4969733 202.325505,22.4139322 201.981755,22.2478474 C201.638005,22.0817625 201.369089,21.8408262 201.174999,21.5250311 C200.980909,21.209236 200.883865,20.8361356 200.883865,20.4057186 C200.883865,19.7133086 201.145766,19.1975177 201.669576,18.8583304 C202.193385,18.5191431 202.960381,18.349552 203.970585,18.349552 L205.570067,18.349552 C205.570067,16.8571278 204.997159,16.1109269 203.851325,16.1109269 C203.397669,16.1109269 203.011833,16.2126816 202.693805,16.416194 C202.375778,16.6197064 202.113877,16.871169 201.908095,17.1705896 L201.14343,16.5740907 C201.807546,15.6571154 202.689123,15.1986346 203.788188,15.1986346 C204.372797,15.1986346 204.870876,15.3167635 205.282441,15.5530251 C205.694005,15.7892866 206.005012,16.1226208 206.215472,16.5530378 C206.425931,16.9834548 206.531159,17.484041 206.531159,18.0548114 L206.531159,22.3566207 L205.640219,22.3566207 L205.619174,21.0022174 C205.375976,21.5074896 205.036908,21.8829292 204.601959,22.1285476 C204.16701,22.374166 203.6853,22.4969733 203.156813,22.4969733 Z M203.276073,21.6127515 C203.729729,21.6127515 204.131934,21.4899442 204.4827,21.2443258 C204.833465,20.9987074 205.102381,20.6840866 205.289456,20.3004541 C205.476531,19.9168215 205.570067,19.5308555 205.570067,19.1425446 L204.068799,19.1425446 C203.357914,19.1425446 202.829436,19.2431296 202.483347,19.4443028 C202.137259,19.645476 201.964217,19.9753014 201.964217,20.4337891 C201.964217,20.831457 202.084645,21.1273642 202.325504,21.3215197 C202.566362,21.5156752 202.883216,21.6127515 203.276073,21.6127515 Z M210.663154,22.4969733 C209.531351,22.4969733 208.965458,21.8303048 208.965458,20.4969478 L208.965458,16.2021561 L207.843015,16.2021561 L207.843015,15.3460049 L208.972473,15.3460049 L208.972473,13.7670373 L210.010734,12.7845687 L210.010734,15.3460049 L211.785597,15.3460049 L211.785597,16.2021561 L210.010734,16.2021561 L210.010734,20.5039654 C210.010734,20.8735627 210.092578,21.1542652 210.256268,21.3460815 C210.419959,21.5378977 210.635092,21.6338044 210.901673,21.6338044 C211.126163,21.6338044 211.360003,21.5753247 211.6032,21.4583636 L211.6032,22.3566207 C211.51434,22.3940482 211.384559,22.4267969 211.213853,22.4548675 C211.043147,22.4829382 210.859583,22.4969733 210.663154,22.4969733 Z M213.448217,12.4407046 L214.486477,12.4407046 L214.486477,16.4968967 C214.720321,16.1132642 215.045358,15.8044914 215.4616,15.5705691 C215.877841,15.3366468 216.312784,15.2196875 216.76644,15.2196875 C217.299604,15.2196875 217.742731,15.3460036 218.095834,15.5986397 C218.448938,15.8512757 218.708501,16.1892884 218.87453,16.6126877 C219.040558,17.036087 219.123572,17.5097726 219.123572,18.0337585 L219.123572,22.3566207 L218.064266,22.3566207 L218.064266,18.2021817 C218.064266,17.6314113 217.953192,17.1553866 217.73104,16.7740933 C217.508889,16.3927999 217.124222,16.2021561 216.577028,16.2021561 C216.179494,16.2021561 215.82055,16.3085892 215.500184,16.5214585 C215.179818,16.7343277 214.930779,17.0220478 214.753057,17.3846274 C214.575336,17.7472069 214.486477,18.1436992 214.486477,18.5741162 L214.486477,22.3566207 L213.448217,22.3566207 L213.448217,12.4407046 Z M223.936048,22.4548675 C223.253225,22.4548675 222.674471,22.2946332 222.199768,21.9741597 C221.725066,21.6536861 221.369629,21.2232756 221.133447,20.6829151 C220.897265,20.1425546 220.779176,19.5448921 220.779176,18.8899098 C220.779176,18.2442842 220.894927,17.6442826 221.126432,17.0898868 C221.357937,16.535491 221.702851,16.0898757 222.161184,15.7530276 C222.619518,15.4161795 223.173719,15.247758 223.823804,15.247758 C224.539365,15.247758 225.118119,15.4126707 225.560084,15.7425012 C226.002048,16.0723316 226.318901,16.494555 226.510653,17.009184 C226.702405,17.523813 226.798279,18.0758613 226.798279,18.6653455 C226.798279,18.8150557 226.786587,18.9951732 226.763203,19.2057033 L221.880573,19.2057033 C221.875897,19.6314418 221.951895,20.0209166 222.10857,20.3741392 C222.265245,20.7273619 222.497916,21.009234 222.806589,21.2197641 C223.115263,21.4302941 223.489407,21.5355576 223.929033,21.5355576 C224.354628,21.5355576 224.724095,21.4805866 225.037446,21.3706432 C225.350796,21.2606997 225.638419,21.0653775 225.900324,20.7846708 L226.615882,21.3601167 C226.237055,21.7437493 225.83602,22.0221126 225.412763,22.1952151 C224.989506,22.3683176 224.497273,22.4548675 223.936048,22.4548675 Z M225.795095,18.349552 C225.781064,17.7132834 225.615038,17.1811181 225.297011,16.7530404 C224.978984,16.3249626 224.487919,16.1109269 223.823804,16.1109269 C223.412239,16.1109269 223.063817,16.211512 222.778528,16.4126851 C222.493239,16.6138583 222.276937,16.8828649 222.129616,17.219713 C221.982294,17.5565611 221.899281,17.9331703 221.880573,18.349552 L225.795095,18.349552 Z M228.601204,15.3460049 L229.646479,15.3460049 L229.646479,16.5670731 C229.885,16.146013 230.197176,15.8161875 230.583018,15.5775868 C230.96886,15.338986 231.409648,15.2196875 231.905397,15.2196875 C232.43856,15.2196875 232.880518,15.3483428 233.231283,15.6056573 C233.582048,15.8629718 233.840442,16.208002 234.006471,16.6407582 C234.1725,17.0735145 234.255513,17.5588959 234.255513,18.0969172 L234.255513,22.3566207 L233.217253,22.3566207 L233.217253,18.2021817 C233.217253,17.6314113 233.092148,17.1401819 232.841936,16.7284787 C232.591723,16.3167754 232.18601,16.1109269 231.624786,16.1109269 C231.250636,16.1109269 230.913907,16.2091728 230.614587,16.4056675 C230.315267,16.6021622 230.079089,16.8957303 229.906044,17.2863805 C229.733,17.6770307 229.646479,18.1530554 229.646479,18.7144689 L229.646479,22.3566207 L228.601204,22.3566207 L228.601204,15.3460049 Z M238.085851,22.4969733 C237.646225,22.4969733 237.254543,22.4139322 236.910793,22.2478474 C236.567043,22.0817625 236.298127,21.8408262 236.104037,21.5250311 C235.909947,21.209236 235.812903,20.8361356 235.812903,20.4057186 C235.812903,19.7133086 236.074804,19.1975177 236.598614,18.8583304 C237.122423,18.5191431 237.889419,18.349552 238.899623,18.349552 L240.499105,18.349552 C240.499105,16.8571278 239.926197,16.1109269 238.780363,16.1109269 C238.326707,16.1109269 237.940871,16.2126816 237.622843,16.416194 C237.304816,16.6197064 237.042915,16.871169 236.837133,17.1705896 L236.072468,16.5740907 C236.736584,15.6571154 237.618161,15.1986346 238.717226,15.1986346 C239.301835,15.1986346 239.799914,15.3167635 240.211479,15.5530251 C240.623043,15.7892866 240.93405,16.1226208 241.14451,16.5530378 C241.354969,16.9834548 241.460197,17.484041 241.460197,18.0548114 L241.460197,22.3566207 L240.569257,22.3566207 L240.548212,21.0022174 C240.305014,21.5074896 239.965946,21.8829292 239.530997,22.1285476 C239.096048,22.374166 238.614338,22.4969733 238.085851,22.4969733 Z M238.205111,21.6127515 C238.658767,21.6127515 239.060972,21.4899442 239.411738,21.2443258 C239.762503,20.9987074 240.031419,20.6840866 240.218494,20.3004541 C240.405569,19.9168215 240.499105,19.5308555 240.499105,19.1425446 L238.997837,19.1425446 C238.286952,19.1425446 237.758474,19.2431296 237.412385,19.4443028 C237.066297,19.645476 236.893255,19.9753014 236.893255,20.4337891 C236.893255,20.831457 237.013683,21.1273642 237.254541,21.3215197 C237.4954,21.5156752 237.812254,21.6127515 238.205111,21.6127515 Z M244.090924,20.9951998 L245.479948,20.9951998 L245.479948,22.3566207 L244.090924,22.3566207 L244.090924,20.9951998 Z M249.668065,21.584681 C249.864493,21.584681 250.091318,21.5612891 250.348546,21.5145047 L250.348546,22.3566207 C250.222271,22.3940482 250.074951,22.4267969 249.906584,22.4548675 C249.738217,22.4829382 249.569852,22.4969733 249.401485,22.4969733 C249.069427,22.4969733 248.820387,22.4291369 248.654358,22.293462 C248.488329,22.157787 248.381932,21.982348 248.335163,21.7671395 C248.288394,21.551931 248.26501,21.2759068 248.26501,20.9390587 L248.26501,12.4407046 L249.324317,12.4407046 L249.324317,21.1846759 C249.324317,21.2501741 249.34887,21.3332153 249.397977,21.4338019 C249.447084,21.5343885 249.537112,21.584681 249.668065,21.584681 Z M254.648908,22.4969733 C254.008176,22.4969733 253.436437,22.3320606 252.933674,22.0022302 C252.43091,21.6723998 252.040397,21.2279541 251.762123,20.6688798 C251.48385,20.1098056 251.344715,19.498108 251.344715,18.8337687 C251.344715,18.1694294 251.48385,17.560071 251.762123,17.0056752 C252.040397,16.4512794 252.429741,16.0115121 252.930166,15.6863601 C253.430591,15.3612081 254.0035,15.1986346 254.648908,15.1986346 C255.289639,15.1986346 255.863716,15.3612081 256.371157,15.6863601 C256.878598,16.0115121 257.274956,16.452449 257.560246,17.009184 C257.845535,17.565919 257.988177,18.1741078 257.988177,18.8337687 C257.988177,19.498108 257.845535,20.1098056 257.560246,20.6688798 C257.274956,21.2279541 256.878598,21.6723998 256.371157,22.0022302 C255.863716,22.3320606 255.289639,22.4969733 254.648908,22.4969733 Z M254.655923,21.6267868 C255.156348,21.6267868 255.57726,21.4946227 255.918672,21.2302905 C256.260084,20.9659583 256.5138,20.6220977 256.679829,20.1986984 C256.845858,19.7752991 256.928871,19.320327 256.928871,18.8337687 C256.928871,18.3425319 256.845858,17.8875599 256.679829,17.468839 C256.5138,17.0501181 256.261253,16.7121055 255.92218,16.4547909 C255.583106,16.1974764 255.165702,16.0688211 254.669954,16.0688211 C254.174205,16.0688211 253.755632,16.1974764 253.41422,16.4547909 C253.072808,16.7121055 252.817923,17.0512877 252.649555,17.4723478 C252.481188,17.8934079 252.397006,18.3472103 252.397006,18.8337687 C252.397006,19.3250055 252.481188,19.7834863 252.649555,20.2092248 C252.817923,20.6349634 253.071639,20.9776544 253.410712,21.2373081 C253.749785,21.4969619 254.164852,21.6267868 254.655923,21.6267868 Z M262.281523,22.4969733 C261.636115,22.4969733 261.083083,22.330891 260.622412,21.9987214 C260.16174,21.6665517 259.815657,21.2232756 259.584151,20.6688798 C259.352646,20.114484 259.236895,19.5121432 259.236895,18.8618392 C259.236895,18.2162137 259.352646,17.6138729 259.584151,17.0547986 C259.815657,16.4957243 260.159401,16.0466003 260.615396,15.707413 C261.071391,15.3682257 261.622085,15.1986346 262.267493,15.1986346 C262.894194,15.1986346 263.443718,15.3635473 263.916082,15.6933777 C264.388446,16.0232081 264.748559,16.4805193 264.996434,17.0653251 L264.00728,17.4863831 C263.904389,17.0606445 263.693933,16.7202927 263.375906,16.4653174 C263.057879,16.2103421 262.688411,16.0828564 262.267493,16.0828564 C261.813836,16.0828564 261.439692,16.2196989 261.145049,16.4933879 C260.850407,16.767077 260.637612,17.115616 260.50666,17.5390153 C260.375707,17.9624146 260.310232,18.4033515 260.310232,18.8618392 C260.310232,19.3296838 260.374538,19.7717903 260.503152,20.1881719 C260.631766,20.6045536 260.843391,20.946075 261.138034,21.2127464 C261.432677,21.4794178 261.809159,21.6127515 262.267493,21.6127515 C262.693088,21.6127515 263.062555,21.4887746 263.375906,21.240817 C263.689256,20.9928593 263.899712,20.6606947 264.00728,20.244313 L264.919266,20.6373005 C264.708806,21.2221062 264.374415,21.6782478 263.916082,22.005739 C263.457748,22.3332302 262.912901,22.4969733 262.281523,22.4969733 Z M268.237489,22.4969733 C267.797863,22.4969733 267.406181,22.4139322 267.062431,22.2478474 C266.718681,22.0817625 266.449765,21.8408262 266.255675,21.5250311 C266.061585,21.209236 265.964541,20.8361356 265.964541,20.4057186 C265.964541,19.7133086 266.226442,19.1975177 266.750252,18.8583304 C267.274061,18.5191431 268.041056,18.349552 269.051261,18.349552 L270.650743,18.349552 C270.650743,16.8571278 270.077834,16.1109269 268.932001,16.1109269 C268.478345,16.1109269 268.092508,16.2126816 267.774481,16.416194 C267.456454,16.6197064 267.194553,16.871169 266.988771,17.1705896 L266.224106,16.5740907 C266.888222,15.6571154 267.769799,15.1986346 268.868864,15.1986346 C269.453472,15.1986346 269.951552,15.3167635 270.363116,15.5530251 C270.774681,15.7892866 271.085688,16.1226208 271.296148,16.5530378 C271.506607,16.9834548 271.611835,17.484041 271.611835,18.0548114 L271.611835,22.3566207 L270.720895,22.3566207 L270.69985,21.0022174 C270.456652,21.5074896 270.117584,21.8829292 269.682635,22.1285476 C269.247686,22.374166 268.765976,22.4969733 268.237489,22.4969733 Z M268.356749,21.6127515 C268.810405,21.6127515 269.21261,21.4899442 269.563375,21.2443258 C269.914141,20.9987074 270.183057,20.6840866 270.370132,20.3004541 C270.557207,19.9168215 270.650743,19.5308555 270.650743,19.1425446 L269.149474,19.1425446 C268.43859,19.1425446 267.910112,19.2431296 267.564023,19.4443028 C267.217935,19.645476 267.044893,19.9753014 267.044893,20.4337891 C267.044893,20.831457 267.165321,21.1273642 267.406179,21.3215197 C267.647038,21.5156752 267.963892,21.6127515 268.356749,21.6127515 Z M275.175593,21.584681 C275.372021,21.584681 275.598846,21.5612891 275.856074,21.5145047 L275.856074,22.3566207 C275.729799,22.3940482 275.582479,22.4267969 275.414112,22.4548675 C275.245745,22.4829382 275.07738,22.4969733 274.909013,22.4969733 C274.576955,22.4969733 274.327915,22.4291369 274.161886,22.293462 C273.995857,22.157787 273.88946,21.982348 273.842691,21.7671395 C273.795923,21.551931 273.772539,21.2759068 273.772539,20.9390587 L273.772539,12.4407046 L274.831845,12.4407046 L274.831845,21.1846759 C274.831845,21.2501741 274.856398,21.3332153 274.905505,21.4338019 C274.954612,21.5343885 275.04464,21.584681 275.175593,21.584681 Z" id="athena.local" fill="#4A4A4A"></path>
                    </g>
                    <g id="insecurebar" transform="translate(284.500000, 124.052288) scale(-1, 1) translate(-284.500000, -124.052288) translate(123.000000, 106.052288)">
                        <rect id="Rectangle-2" stroke="#979797" fill="#F2F2F2" x="0.5" y="0.5" width="321.46554" height="34.9302832"></rect>
                        <g id="rotate-cw" transform="translate(40.707283, 10.379860)" stroke="#72777D" stroke-linecap="round" stroke-linejoin="round" stroke-width="2">
                            <polyline id="Shape" points="15.9636406 0.798450738 15.9636406 5.58915517 11.1745484 5.58915517"></polyline>
                            <path d="M13.9602037,9.58140886 C12.8943288,12.5993806 9.96156327,14.5483358 6.76731944,14.3614055 C3.57307562,14.1744752 0.887494402,11.8967287 0.180678072,8.77501734 C-0.526138259,5.65330598 0.91622564,2.44028284 3.71821165,0.894774878 C6.52019766,-0.650733088 10.0062393,-0.156099697 12.2680578,2.10790995 L15.9636406,5.58915517" id="Shape"></path>
                        </g>
                        <g id="url" transform="translate(70.240019, 5.589155)">
                            <rect id="Rectangle-3" stroke="#BBBBBB" fill="#FFFFFF" x="0.5" y="0.5" width="236.858245" height="23.7519729" rx="4"></rect>
                            <path d="M36.8824014,15.9955258 C37.07883,15.9955258 37.3056549,15.9721339 37.5628828,15.9253495 L37.5628828,16.7674655 C37.4366073,16.8048931 37.289288,16.8376417 37.1209207,16.8657124 C36.9525533,16.893783 36.7841885,16.9078182 36.6158211,16.9078182 C36.2837632,16.9078182 36.0347236,16.8399817 35.8686947,16.7043068 C35.7026657,16.5686319 35.5962685,16.3931928 35.5494998,16.1779843 C35.5027311,15.9627758 35.4793471,15.6867516 35.4793471,15.3499035 L35.4793471,6.85154945 L36.5386531,6.85154945 L36.5386531,15.5955207 C36.5386531,15.661019 36.5632063,15.7440601 36.6123135,15.8446467 C36.6614206,15.9452333 36.751449,15.9955258 36.8824014,15.9955258 Z M41.8632444,16.9078182 C41.222513,16.9078182 40.6507741,16.7429054 40.1480104,16.413075 C39.6452468,16.0832446 39.2547339,15.6387989 38.97646,15.0797247 C38.6981862,14.5206504 38.5590514,13.9089528 38.5590514,13.2446135 C38.5590514,12.5802742 38.6981862,11.9709158 38.97646,11.41652 C39.2547339,10.8621242 39.6440776,10.4223569 40.1445028,10.0972049 C40.644928,9.77205294 41.2178361,9.60947939 41.8632444,9.60947939 C42.5039757,9.60947939 43.078053,9.77205294 43.5854936,10.0972049 C44.0929341,10.4223569 44.489293,10.8632938 44.7745821,11.4200288 C45.0598713,11.9767639 45.2025137,12.5849527 45.2025137,13.2446135 C45.2025137,13.9089528 45.0598713,14.5206504 44.7745821,15.0797247 C44.489293,15.6387989 44.0929341,16.0832446 43.5854936,16.413075 C43.078053,16.7429054 42.5039757,16.9078182 41.8632444,16.9078182 Z M41.8702596,16.0376316 C42.3706849,16.0376316 42.7915969,15.9054675 43.1330085,15.6411353 C43.4744201,15.3768032 43.7281366,15.0329426 43.8941655,14.6095432 C44.0601945,14.1861439 44.1432077,13.7311719 44.1432077,13.2446135 C44.1432077,12.7533767 44.0601945,12.2984047 43.8941655,11.8796838 C43.7281366,11.4609629 43.4755893,11.1229503 43.1365162,10.8656358 C42.797443,10.6083213 42.3800385,10.4796659 41.8842902,10.4796659 C41.3885418,10.4796659 40.9699681,10.6083213 40.6285565,10.8656358 C40.2871449,11.1229503 40.0322593,11.4621325 39.8638919,11.8831926 C39.6955246,12.3042527 39.6113421,12.7580552 39.6113421,13.2446135 C39.6113421,13.7358503 39.6955246,14.1943311 39.8638919,14.6200697 C40.0322593,15.0458082 40.2859757,15.3884992 40.6250489,15.648153 C40.9641221,15.9078067 41.3791882,16.0376316 41.8702596,16.0376316 Z M49.49586,16.9078182 C48.8504518,16.9078182 48.2974201,16.7417358 47.8367482,16.4095662 C47.3760764,16.0773966 47.0299932,15.6341205 46.798488,15.0797247 C46.5669829,14.5253288 46.4512321,13.922988 46.4512321,13.2726841 C46.4512321,12.6270585 46.5669829,12.0247177 46.798488,11.4656434 C47.0299932,10.9065692 47.373738,10.4574451 47.829733,10.1182578 C48.2857279,9.77907051 48.8364212,9.60947939 49.4818295,9.60947939 C50.1085302,9.60947939 50.6580543,9.77439213 51.1304183,10.1042226 C51.6027823,10.434053 51.962896,10.8913642 52.2107702,11.4761699 L51.2216169,11.8972279 C51.1187257,11.4714893 50.9082696,11.1311375 50.5902424,10.8761622 C50.2722152,10.6211869 49.9027479,10.4937012 49.4818295,10.4937012 C49.028173,10.4937012 48.6540289,10.6305437 48.359386,10.9042328 C48.0647431,11.1779218 47.8519487,11.5264608 47.7209963,11.9498601 C47.5900439,12.3732595 47.5245687,12.8141964 47.5245687,13.2726841 C47.5245687,13.7405286 47.5888747,14.1826351 47.7174886,14.5990168 C47.8461026,15.0153984 48.0577278,15.3569198 48.3523707,15.6235913 C48.6470136,15.8902627 49.0234961,16.0235964 49.4818295,16.0235964 C49.9074247,16.0235964 50.276892,15.8996194 50.5902424,15.6516618 C50.9035928,15.4037042 51.1140488,15.0715395 51.2216169,14.6551578 L52.1336022,15.0481453 C51.923143,15.632951 51.5887517,16.0890926 51.1304183,16.4165838 C50.6720849,16.744075 50.1272376,16.9078182 49.49586,16.9078182 Z M55.4518257,16.9078182 C55.0121998,16.9078182 54.6205177,16.824777 54.2767677,16.6586922 C53.9330177,16.4926074 53.6641016,16.251671 53.4700115,15.9358759 C53.2759213,15.6200809 53.1788777,15.2469804 53.1788777,14.8165634 C53.1788777,14.1241534 53.4407785,13.6083625 53.9645881,13.2691752 C54.4883977,12.9299879 55.2553931,12.7603968 56.2655972,12.7603968 L57.8650792,12.7603968 C57.8650792,11.2679726 57.2921711,10.5217717 56.1463376,10.5217717 C55.6926811,10.5217717 55.306845,10.6235264 54.9888178,10.8270388 C54.6707905,11.0305512 54.4088897,11.2820139 54.2031073,11.5814344 L53.4384427,10.9849355 C54.1025584,10.0679602 54.9841354,9.60947939 56.0832002,9.60947939 C56.6678091,9.60947939 57.1658884,9.72760838 57.5774531,9.96386988 C57.9890177,10.2001314 58.300025,10.5334656 58.5104842,10.9638826 C58.7209434,11.3942997 58.8261714,11.8948858 58.8261714,12.4656562 L58.8261714,16.7674655 L57.9352319,16.7674655 L57.9141861,15.4130623 C57.6709888,15.9183344 57.3319207,16.293774 56.8969717,16.5393924 C56.4620227,16.7850108 55.9803122,16.9078182 55.4518257,16.9078182 Z M55.5710853,16.0235964 C56.0247418,16.0235964 56.4269467,15.900789 56.7777121,15.6551706 C57.1284774,15.4095522 57.3973935,15.0949315 57.5844683,14.7112989 C57.7715432,14.3276664 57.8650792,13.9417004 57.8650792,13.5533894 L56.363811,13.5533894 C55.6529266,13.5533894 55.1244481,13.6539745 54.7783596,13.8551476 C54.4322712,14.0563208 54.2592295,14.3861463 54.2592295,14.8446339 C54.2592295,15.2423018 54.3796571,15.5382091 54.620516,15.7323646 C54.8613749,15.9265201 55.1782282,16.0235964 55.5710853,16.0235964 Z M62.3899295,15.9955258 C62.5863581,15.9955258 62.8131829,15.9721339 63.0704108,15.9253495 L63.0704108,16.7674655 C62.9441353,16.8048931 62.7968161,16.8376417 62.6284487,16.8657124 C62.4600813,16.893783 62.2917165,16.9078182 62.1233491,16.9078182 C61.7912913,16.9078182 61.5422516,16.8399817 61.3762227,16.7043068 C61.2101938,16.5686319 61.1037965,16.3931928 61.0570278,16.1779843 C61.0102591,15.9627758 60.9868751,15.6867516 60.9868751,15.3499035 L60.9868751,6.85154945 L62.0461812,6.85154945 L62.0461812,15.5955207 C62.0461812,15.661019 62.0707344,15.7440601 62.1198415,15.8446467 C62.1689487,15.9452333 62.2589771,15.9955258 62.3899295,15.9955258 Z M64.6558622,6.85154945 L65.6941225,6.85154945 L65.6941225,10.9077416 C65.927966,10.524109 66.2530037,10.2153363 66.6692452,9.98141397 C67.0854868,9.74749168 67.5204293,9.63053229 67.9740858,9.63053229 C68.5072491,9.63053229 68.950376,9.75684843 69.3034798,10.0094845 C69.6565835,10.2621206 69.916146,10.6001332 70.0821749,11.0235325 C70.2482039,11.4469319 70.3312171,11.9206174 70.3312171,12.4446033 L70.3312171,16.7674655 L69.271911,16.7674655 L69.271911,12.6130265 C69.271911,12.0422561 69.160837,11.5662314 68.9386856,11.1849381 C68.7165343,10.8036448 68.3318674,10.613001 67.7846734,10.613001 C67.3871394,10.613001 67.0281949,10.719434 66.7078292,10.9323033 C66.3874635,11.1451726 66.1384239,11.4328927 65.9607028,11.7954722 C65.7829817,12.1580518 65.6941225,12.5545441 65.6941225,12.9849611 L65.6941225,16.7674655 L64.6558622,16.7674655 L64.6558622,6.85154945 Z M75.2559378,16.9078182 C74.6152065,16.9078182 74.0434675,16.7429054 73.5407039,16.413075 C73.0379402,16.0832446 72.6474273,15.6387989 72.3691535,15.0797247 C72.0908797,14.5206504 71.9517448,13.9089528 71.9517448,13.2446135 C71.9517448,12.5802742 72.0908797,11.9709158 72.3691535,11.41652 C72.6474273,10.8621242 73.036771,10.4223569 73.5371963,10.0972049 C74.0376215,9.77205294 74.6105296,9.60947939 75.2559378,9.60947939 C75.8966692,9.60947939 76.4707465,9.77205294 76.978187,10.0972049 C77.4856276,10.4223569 77.8819865,10.8632938 78.1672756,11.4200288 C78.4525647,11.9767639 78.5952072,12.5849527 78.5952072,13.2446135 C78.5952072,13.9089528 78.4525647,14.5206504 78.1672756,15.0797247 C77.8819865,15.6387989 77.4856276,16.0832446 76.978187,16.413075 C76.4707465,16.7429054 75.8966692,16.9078182 75.2559378,16.9078182 Z M75.2629531,16.0376316 C75.7633783,16.0376316 76.1842904,15.9054675 76.525702,15.6411353 C76.8671136,15.3768032 77.1208301,15.0329426 77.286859,14.6095432 C77.4528879,14.1861439 77.5359011,13.7311719 77.5359011,13.2446135 C77.5359011,12.7533767 77.4528879,12.2984047 77.286859,11.8796838 C77.1208301,11.4609629 76.8682828,11.1229503 76.5292097,10.8656358 C76.1901365,10.6083213 75.772732,10.4796659 75.2769836,10.4796659 C74.7812353,10.4796659 74.3626616,10.6083213 74.02125,10.8656358 C73.6798384,11.1229503 73.4249528,11.4621325 73.2565854,11.8831926 C73.088218,12.3042527 73.0040356,12.7580552 73.0040356,13.2446135 C73.0040356,13.7358503 73.088218,14.1943311 73.2565854,14.6200697 C73.4249528,15.0458082 73.6786692,15.3884992 74.0177424,15.648153 C74.3568155,15.9078067 74.7718816,16.0376316 75.2629531,16.0376316 Z M82.3203165,16.9078182 C81.8947212,16.9078182 81.5030391,16.8294554 81.1452585,16.6727275 C80.7874778,16.5159995 80.4858241,16.3066422 80.2402884,16.0446493 C79.9947527,15.7826563 79.815865,15.492597 79.7036201,15.1744627 L80.5875444,14.7183165 C80.7184967,15.1159844 80.9312912,15.4376227 81.2259341,15.6832411 C81.520577,15.9288595 81.8900443,16.0516669 82.334347,16.0516669 C82.7459117,16.0516669 83.0779646,15.9510818 83.3305156,15.7499087 C83.5830666,15.5487355 83.7093403,15.2633546 83.7093403,14.8937574 C83.7093403,14.6177291 83.6333423,14.3908279 83.4813439,14.2130469 C83.3293456,14.035266 83.1422736,13.8972539 82.9201222,13.7990066 C82.6979708,13.7007592 82.3928096,13.5884782 82.0046292,13.4621602 C81.5650034,13.3218068 81.2119049,13.1873035 80.9453232,13.0586462 C80.6787416,12.929989 80.4519167,12.7440235 80.2648419,12.5007444 C80.077767,12.2574652 79.984231,11.9416748 79.984231,11.5533639 C79.984231,11.1463391 80.0847822,10.7966305 80.2858877,10.5042277 C80.4869931,10.2118248 80.7559092,9.98960197 81.0926439,9.83755248 C81.4293786,9.685503 81.8011843,9.60947939 82.2080721,9.60947939 C82.7318817,9.60947939 83.1913774,9.73462594 83.586573,9.98492278 C83.9817686,10.2352196 84.2892683,10.5755714 84.5090813,11.0059884 L83.7374014,11.4480994 C83.5830646,11.1346435 83.374947,10.891368 83.1130422,10.7182655 C82.8511374,10.545163 82.5377917,10.458613 82.1729958,10.458613 C81.7988461,10.458613 81.5007,10.5475022 81.2785486,10.7252831 C81.0563972,10.903064 80.9453232,11.1369828 80.9453232,11.4270465 C80.9453232,11.6516118 81.0131368,11.8364077 81.1487661,11.9814395 C81.2843954,12.1264713 81.4550986,12.2434307 81.6608809,12.3323212 C81.8666633,12.4212116 82.1496097,12.5217967 82.5097288,12.6340794 C82.9774159,12.7791112 83.3597444,12.9218017 83.6567257,13.062155 C83.9537071,13.2025084 84.2062543,13.4106961 84.4143751,13.6867244 C84.6224959,13.9627527 84.7265547,14.3229876 84.7265547,14.76744 C84.7265547,15.2259277 84.6143115,15.616572 84.3898216,15.9393848 C84.1653318,16.2621975 83.8695242,16.5043034 83.5023898,16.6657098 C83.1352554,16.8271162 82.7412349,16.9078182 82.3203165,16.9078182 Z M88.4165876,16.9078182 C87.2847848,16.9078182 86.7188919,16.2411497 86.7188919,14.9077926 L86.7188919,10.613001 L85.5964484,10.613001 L85.5964484,9.7568497 L86.7259071,9.7568497 L86.7259071,8.17788217 L87.7641673,7.19541349 L87.7641673,9.7568497 L89.5390311,9.7568497 L89.5390311,10.613001 L87.7641673,10.613001 L87.7641673,14.9148103 C87.7641673,15.2844075 87.8460114,15.56511 88.0097019,15.7569263 C88.1733923,15.9487426 88.3885252,16.0446493 88.6551069,16.0446493 C88.8795967,16.0446493 89.1134367,15.9861696 89.356634,15.8692084 L89.356634,16.7674655 C89.2677735,16.8048931 89.1379922,16.8376417 88.9672864,16.8657124 C88.7965806,16.893783 88.6130162,16.9078182 88.4165876,16.9078182 Z" id="localhost" fill="#4A4A4A"></path>
                            <path d="M91.8642039,10.0726432 L93.2321819,10.0726432 L93.2321819,11.4270465 L91.8642039,11.4270465 L91.8642039,10.0726432 Z M91.8642039,15.4060446 L93.2321819,15.4060446 L93.2321819,16.7674655 L91.8642039,16.7674655 L91.8642039,15.4060446 Z M98.9285826,16.9078182 C98.3767118,16.9078182 97.8762941,16.78735 97.4273144,16.5464101 C96.9783348,16.3054701 96.6053599,15.9768142 96.3083786,15.5604326 C96.0113973,15.1440509 95.8067872,14.6762133 95.6945423,14.1569059 L96.6836956,13.8270771 C96.8052943,14.4259181 97.0403035,14.9323523 97.3887304,15.3463947 C97.7371573,15.7604372 98.243421,15.9674553 98.9075368,15.9674553 C99.3752239,15.9674553 99.7750904,15.8504959 100.107148,15.6165736 C100.439206,15.3826513 100.688246,15.0797265 100.854275,14.7077901 C101.020304,14.3358537 101.103317,13.9417005 101.103317,13.5253189 C101.103317,13.1136156 101.022642,12.7311584 100.86129,12.3779358 C100.699938,12.0247131 100.461421,11.7405018 100.145732,11.5252933 C99.8300434,11.3100848 99.4477149,11.2024822 98.9987353,11.2024822 C98.5824938,11.2024822 98.1966577,11.2995585 97.8412155,11.493714 C97.4857732,11.6878695 97.2004884,11.9557065 96.9853523,12.297233 L96.0312753,11.8481045 L96.901169,6.85154945 L101.797829,6.85154945 L101.797829,7.81998287 L97.7500169,7.81998287 L97.2168563,11.0200237 C97.4787611,10.7533523 97.7780763,10.5650477 98.1148111,10.4551042 C98.4515458,10.3451607 98.7952907,10.2901898 99.146056,10.2901898 C99.7493724,10.2901898 100.286035,10.4363891 100.756061,10.7287919 C101.226086,11.0211948 101.592046,11.4153479 101.853951,11.9112632 C102.115856,12.4071784 102.246806,12.9451916 102.246806,13.5253189 C102.246806,14.1288383 102.102994,14.6902434 101.815367,15.2095509 C101.527739,15.7288584 101.13138,16.141725 100.626278,16.4481632 C100.121176,16.7546014 99.5552833,16.9078182 98.9285826,16.9078182 Z M107.129435,16.9078182 C106.264214,16.9078182 105.555679,16.6505075 105.003808,16.1358785 C104.451937,15.6212495 104.05324,14.9756336 103.807704,14.1990117 C103.562168,13.4223897 103.439402,12.6247267 103.439402,11.8059987 C103.439402,10.9825922 103.558661,10.1814204 103.797181,9.40245921 C104.035702,8.623498 104.423876,7.97671259 104.961716,7.46208356 C105.499556,6.94745453 106.187046,6.69014388 107.024206,6.69014388 C107.805244,6.69014388 108.472857,6.93108022 109.027066,7.41296013 C109.581275,7.89484003 109.99868,8.52875991 110.279292,9.31473879 C110.559905,10.1007177 110.700209,10.9404861 110.700209,11.8340692 C110.700209,12.7182954 110.563412,13.5475375 110.289815,14.3218203 C110.016218,15.096103 109.610506,15.7206661 109.072666,16.1955284 C108.534825,16.6703906 107.887088,16.9078182 107.129435,16.9078182 Z M107.087344,15.897279 C107.662599,15.897279 108.132617,15.6844129 108.497413,15.2586743 C108.862209,14.8329358 109.125279,14.3066185 109.286631,13.6797068 C109.447983,13.0527951 109.528658,12.4235536 109.528658,11.7919634 C109.528658,11.1416594 109.446814,10.5089092 109.283124,9.89369355 C109.119433,9.27847794 108.850517,8.76502623 108.476367,8.35332301 C108.102218,7.94161979 107.618169,7.73577126 107.024206,7.73577126 C106.43492,7.73577126 105.95321,7.94278938 105.57906,8.35683182 C105.20491,8.77087427 104.935994,9.28666517 104.772304,9.90422 C104.608613,10.5217748 104.526769,11.1556947 104.526769,11.8059987 C104.526769,12.4563026 104.609783,13.0925617 104.775812,13.714795 C104.94184,14.3370282 105.216603,14.8563279 105.600106,15.2727096 C105.983609,15.6890912 106.47935,15.897279 107.087344,15.897279 Z M115.232074,16.9078182 C114.366853,16.9078182 113.658318,16.6505075 113.106447,16.1358785 C112.554576,15.6212495 112.155879,14.9756336 111.910343,14.1990117 C111.664807,13.4223897 111.542041,12.6247267 111.542041,11.8059987 C111.542041,10.9825922 111.6613,10.1814204 111.89982,9.40245921 C112.13834,8.623498 112.526515,7.97671259 113.064355,7.46208356 C113.602195,6.94745453 114.289685,6.69014388 115.126845,6.69014388 C115.907883,6.69014388 116.575496,6.93108022 117.129705,7.41296013 C117.683914,7.89484003 118.101319,8.52875991 118.381931,9.31473879 C118.662543,10.1007177 118.802847,10.9404861 118.802847,11.8340692 C118.802847,12.7182954 118.666051,13.5475375 118.392454,14.3218203 C118.118857,15.096103 117.713145,15.7206661 117.175304,16.1955284 C116.637464,16.6703906 115.989727,16.9078182 115.232074,16.9078182 Z M115.189982,15.897279 C115.765238,15.897279 116.235256,15.6844129 116.600052,15.2586743 C116.964848,14.8329358 117.227918,14.3066185 117.38927,13.6797068 C117.550622,13.0527951 117.631297,12.4235536 117.631297,11.7919634 C117.631297,11.1416594 117.549453,10.5089092 117.385763,9.89369355 C117.222072,9.27847794 116.953156,8.76502623 116.579006,8.35332301 C116.204857,7.94161979 115.720808,7.73577126 115.126845,7.73577126 C114.537559,7.73577126 114.055849,7.94278938 113.681699,8.35683182 C113.307549,8.77087427 113.038633,9.28666517 112.874943,9.90422 C112.711252,10.5217748 112.629408,11.1556947 112.629408,11.8059987 C112.629408,12.4563026 112.712421,13.0925617 112.87845,13.714795 C113.044479,14.3370282 113.319241,14.8563279 113.702745,15.2727096 C114.086248,15.6890912 114.581989,15.897279 115.189982,15.897279 Z M123.334713,16.9078182 C122.469492,16.9078182 121.760956,16.6505075 121.209086,16.1358785 C120.657215,15.6212495 120.258518,14.9756336 120.012982,14.1990117 C119.767446,13.4223897 119.64468,12.6247267 119.64468,11.8059987 C119.64468,10.9825922 119.763938,10.1814204 120.002459,9.40245921 C120.240979,8.623498 120.629154,7.97671259 121.166994,7.46208356 C121.704834,6.94745453 122.392324,6.69014388 123.229484,6.69014388 C124.010521,6.69014388 124.678135,6.93108022 125.232344,7.41296013 C125.786553,7.89484003 126.203958,8.52875991 126.48457,9.31473879 C126.765182,10.1007177 126.905486,10.9404861 126.905486,11.8340692 C126.905486,12.7182954 126.76869,13.5475375 126.495093,14.3218203 C126.221496,15.096103 125.815783,15.7206661 125.277943,16.1955284 C124.740103,16.6703906 124.092366,16.9078182 123.334713,16.9078182 Z M123.292621,15.897279 C123.867876,15.897279 124.337895,15.6844129 124.702691,15.2586743 C125.067487,14.8329358 125.330557,14.3066185 125.491909,13.6797068 C125.653261,13.0527951 125.733936,12.4235536 125.733936,11.7919634 C125.733936,11.1416594 125.652092,10.5089092 125.488401,9.89369355 C125.324711,9.27847794 125.055795,8.76502623 124.681645,8.35332301 C124.307495,7.94161979 123.823447,7.73577126 123.229484,7.73577126 C122.640198,7.73577126 122.158488,7.94278938 121.784338,8.35683182 C121.410188,8.77087427 121.141272,9.28666517 120.977582,9.90422 C120.813891,10.5217748 120.732047,11.1556947 120.732047,11.8059987 C120.732047,12.4563026 120.81506,13.0925617 120.981089,13.714795 C121.147118,14.3370282 121.42188,14.8563279 121.805384,15.2727096 C122.188887,15.6890912 122.684628,15.897279 123.292621,15.897279 Z" id=":5000" fill="#9B9B9B"></path>
                        </g>
                        <g id="arrow-right" transform="translate(9.578184, 11.976761)" stroke="#D8D9DB" stroke-linecap="round" stroke-linejoin="round" stroke-width="2">
                            <path d="M0,6.38760591 L15.9636406,6.38760591" id="Shape"></path>
                            <polyline id="Shape" points="10.3763664 0 16.7618226 5.98838054 10.3763664 11.9767611"></polyline>
                        </g>
                        <g id="info" transform="translate(81.414567, 10.379860)">
                            <ellipse id="Oval" stroke="#606368" stroke-width="2" stroke-linecap="round" stroke-linejoin="round" cx="7.58272927" cy="7.58528201" rx="7.58272927" ry="7.58528201"></ellipse>
                            <path d="M7.58272927,11.4178456 L7.58272927,8.38373275" id="Shape" stroke="#606368" stroke-width="2" stroke-linecap="round" stroke-linejoin="round"></path>
                            <ellipse id="Oval-2" fill="#606368" cx="7.58272927" cy="5.1899298" rx="1.19727304" ry="1.19767611"></ellipse>
                        </g>
                    </g>
                    <path d="M257.139292,46.024704 C236.072052,59.1865468 208.746132,58.3370023 184.800082,51.4878037 C160.854031,44.638605 138.857554,32.444186 115.526439,23.7780189 C96.0805362,16.5403027 41.6879036,30.2004129 20.971404,51.4878037 C-2.10007144,75.1815597 -9.09676952,95.5079702 15.8468434,117.275008 C28.5418488,128.339411 70.3347194,174.796339 77.9952805,189.967626 C83.6486737,201.163835 84.2340917,240.859368 99.3496687,243.222999 C140.588275,249.671501 229.594729,249.671501 265.119791,254.236278 C295.305488,258.095285 326.06887,256.097371 355.310356,248.378893 C372.902072,243.740949 390.562113,236.651926 402.920043,223.445371 C411.834332,213.921529 417.386974,201.873443 422.597984,189.967626 C428.155181,177.2773 433.498288,164.496194 438.627307,151.624308 C441.701986,143.901176 444.731113,136.023581 445.528252,127.755765 C446.967657,112.776953 440.900292,97.968864 432.637378,85.3273163 C413.018653,55.2883976 379.976109,34.1839231 344.191408,28.8224436 C308.406707,23.460964 270.549445,33.9319051 242.795348,56.8452184" id="Shape" fill="#494B6A" fill-rule="nonzero" opacity="0.04453125"></path>
                    <ellipse id="Oval" fill="#494B6A" fill-rule="nonzero" opacity="0.1" cx="180.539662" cy="220.435425" rx="54.5175553" ry="9.33028322"></ellipse>
                </g>
                <g id="Group-4" transform="translate(63.000000, 39.000000)">
                    <g id="Group-3" transform="translate(0.000000, 29.696203)" fill="#3B8039">
                        <ellipse id="Oval-3" cx="8.34615385" cy="8.01603376" rx="2.25213675" ry="2.30970464"></ellipse>
                        <ellipse id="Oval-3" cx="22.1239316" cy="8.01603376" rx="2.25213675" ry="2.30970464"></ellipse>
                        <ellipse id="Oval-3" cx="15.2350427" cy="13.9940928" rx="2.25213675" ry="2.30970464"></ellipse>
                        <ellipse id="Oval-3" cx="2.25213675" cy="2.30970464" rx="2.25213675" ry="2.30970464"></ellipse>
                        <ellipse id="Oval-3" cx="28.7478632" cy="2.30970464" rx="2.25213675" ry="2.30970464"></ellipse>
                    </g>
                    <g id="Group-3" transform="translate(0.000000, 15.139241)" fill="#5CAD5A">
                        <ellipse id="Oval-3" cx="8.34615385" cy="8.01603376" rx="2.25213675" ry="2.30970464"></ellipse>
                        <ellipse id="Oval-3" cx="22.1239316" cy="8.01603376" rx="2.25213675" ry="2.30970464"></ellipse>
                        <ellipse id="Oval-3" cx="15.2350427" cy="13.9940928" rx="2.25213675" ry="2.30970464"></ellipse>
                        <ellipse id="Oval-3" cx="2.25213675" cy="2.30970464" rx="2.25213675" ry="2.30970464"></ellipse>
                        <ellipse id="Oval-3" cx="28.7478632" cy="2.30970464" rx="2.25213675" ry="2.30970464"></ellipse>
                    </g>
                    <g id="Group-3" fill="#8EC38C">
                        <ellipse id="Oval-3" cx="8.34615385" cy="8.01603376" rx="2.25213675" ry="2.30970464"></ellipse>
                        <ellipse id="Oval-3" cx="22.1239316" cy="8.01603376" rx="2.25213675" ry="2.30970464"></ellipse>
                        <ellipse id="Oval-3" cx="15.2350427" cy="13.9940928" rx="2.25213675" ry="2.30970464"></ellipse>
                        <ellipse id="Oval-3" cx="2.25213675" cy="2.30970464" rx="2.25213675" ry="2.30970464"></ellipse>
                        <ellipse id="Oval-3" cx="28.7478632" cy="2.30970464" rx="2.25213675" ry="2.30970464"></ellipse>
                    </g>
                </g>
                <g id="Group-4" transform="translate(137.500000, 82.500000) scale(1, -1) translate(-137.500000, -82.500000) translate(122.000000, 59.000000)">
                    <g id="Group-3" transform="translate(0.000000, 29.696203)" fill="#3B8039">
                        <ellipse id="Oval-3" cx="8.34615385" cy="8.01603376" rx="2.25213675" ry="2.30970464"></ellipse>
                        <ellipse id="Oval-3" cx="22.1239316" cy="8.01603376" rx="2.25213675" ry="2.30970464"></ellipse>
                        <ellipse id="Oval-3" cx="15.2350427" cy="13.9940928" rx="2.25213675" ry="2.30970464"></ellipse>
                        <ellipse id="Oval-3" cx="2.25213675" cy="2.30970464" rx="2.25213675" ry="2.30970464"></ellipse>
                        <ellipse id="Oval-3" cx="28.7478632" cy="2.30970464" rx="2.25213675" ry="2.30970464"></ellipse>
                    </g>
                    <g id="Group-3" transform="translate(0.000000, 15.139241)" fill="#5CAD5A">
                        <ellipse id="Oval-3" cx="8.34615385" cy="8.01603376" rx="2.25213675" ry="2.30970464"></ellipse>
                        <ellipse id="Oval-3" cx="22.1239316" cy="8.01603376" rx="2.25213675" ry="2.30970464"></ellipse>
                        <ellipse id="Oval-3" cx="15.2350427" cy="13.9940928" rx="2.25213675" ry="2.30970464"></ellipse>
                        <ellipse id="Oval-3" cx="2.25213675" cy="2.30970464" rx="2.25213675" ry="2.30970464"></ellipse>
                        <ellipse id="Oval-3" cx="28.7478632" cy="2.30970464" rx="2.25213675" ry="2.30970464"></ellipse>
                    </g>
                    <g id="Group-3" fill="#8EC38C">
                        <ellipse id="Oval-3" cx="8.34615385" cy="8.01603376" rx="2.25213675" ry="2.30970464"></ellipse>
                        <ellipse id="Oval-3" cx="22.1239316" cy="8.01603376" rx="2.25213675" ry="2.30970464"></ellipse>
                        <ellipse id="Oval-3" cx="15.2350427" cy="13.9940928" rx="2.25213675" ry="2.30970464"></ellipse>
                        <ellipse id="Oval-3" cx="2.25213675" cy="2.30970464" rx="2.25213675" ry="2.30970464"></ellipse>
                        <ellipse id="Oval-3" cx="28.7478632" cy="2.30970464" rx="2.25213675" ry="2.30970464"></ellipse>
                    </g>
                </g>
                <g id="Group-5" transform="translate(196.000000, 77.000000)">
                    <circle id="Oval" fill="url(#linearGradient-1)" cx="69.5" cy="69.5" r="69.5"></circle>
                    <g id="logo-old" transform="translate(29.000000, 17.000000)">
                        <g id="shield">
                            <g id="Group" opacity="0.5" fill="url(#linearGradient-2)" fill-rule="nonzero">
                                <path d="M40.9340578,0.00739534882 L0.0588133013,25.3113209 C0.0588133013,25.3113209 0.0588133013,77.5032559 40.9340578,105.966474 C81.8093023,77.5032559 81.8093023,25.3113209 81.8093023,25.3113209 L40.9340578,0.00739534882 Z" id="Shape"></path>
                            </g>
                            <path d="M40.2545455,1.507109 L0.496969697,26.1051519 C0.496969697,26.1051519 0.496969697,76.8289834 40.2545455,104.492891 C80.0121212,76.8245384 80.0121212,26.1051519 80.0121212,26.1051519 L40.2545455,1.507109 Z" id="Shape" fill="#FFFFFF" fill-rule="nonzero"></path>
                            <path d="M40.9394074,1.507109 L40.2545455,1.92646118 L40.2545455,104.012785 C40.4818424,104.17282 40.7091393,104.334337 40.9394074,104.492891 C81.0060606,76.8245384 81.0060606,26.1051519 81.0060606,26.1051519 L40.9394074,1.507109 Z" id="Shape" fill="#C3CED5" fill-rule="nonzero" opacity="0.04"></path>
                            <g id="Group" opacity="0.7" transform="translate(27.333333, 44.710900)" fill="url(#linearGradient-3)" fill-rule="nonzero">
                                <polygon id="Shape" points="3.19624681 6.68317918 10.5457352 13.5932335 19.6574239 0.111213321 23.332168 3.25336035 10.5457352 19.8760447 0.132996249 7.93914826"></polygon>
                            </g>
                            <polygon id="Shape" fill="#3AD29F" fill-rule="nonzero" points="32.3037533 51.945625 38.2668113 57.6287628 46.7154407 44.7109005 49.6969697 47.295375 38.2668113 62.7962085 29.8181818 52.9785126"></polygon>
                        </g>
                    </g>
                </g>
            </g>
        </g>
    </g>
</svg>