<?xml version="1.0" encoding="UTF-8"?>
<svg width="168px" height="130px" viewBox="0 0 168 130" version="1.1" xmlns="http://www.w3.org/2000/svg" xmlns:xlink="http://www.w3.org/1999/xlink">
    <!-- Generator: Sketch 52.2 (67145) - http://www.bohemiancoding.com/sketch -->
    <title>undraw_browser_stats_704t</title>
    <desc>Created with Sketch.</desc>
    <defs>
        <linearGradient x1="59.1220456%" y1="83.8568432%" x2="40.8839473%" y2="16.1288868%" id="linearGradient-1">
            <stop stop-color="#808080" stop-opacity="0.25" offset="0%"></stop>
            <stop stop-color="#808080" stop-opacity="0.12" offset="54%"></stop>
            <stop stop-color="#808080" stop-opacity="0.1" offset="100%"></stop>
        </linearGradient>
        <linearGradient x1="49.9938373%" y1="100.380357%" x2="49.998417%" y2="-0.166076988%" id="linearGradient-2">
            <stop stop-color="#808080" stop-opacity="0.25" offset="0%"></stop>
            <stop stop-color="#808080" stop-opacity="0.12" offset="54%"></stop>
            <stop stop-color="#808080" stop-opacity="0.1" offset="100%"></stop>
        </linearGradient>
        <linearGradient x1="49.9132849%" y1="100.055045%" x2="49.9657002%" y2="0.012766321%" id="linearGradient-3">
            <stop stop-color="#808080" stop-opacity="0.25" offset="0%"></stop>
            <stop stop-color="#808080" stop-opacity="0.12" offset="54%"></stop>
            <stop stop-color="#808080" stop-opacity="0.1" offset="100%"></stop>
        </linearGradient>
        <linearGradient x1="49.9049694%" y1="100.054976%" x2="49.9573847%" y2="0.0126977129%" id="linearGradient-4">
            <stop stop-color="#808080" stop-opacity="0.25" offset="0%"></stop>
            <stop stop-color="#808080" stop-opacity="0.12" offset="54%"></stop>
            <stop stop-color="#808080" stop-opacity="0.1" offset="100%"></stop>
        </linearGradient>
        <linearGradient x1="50%" y1="99.9996994%" x2="50%" y2="0%" id="linearGradient-5">
            <stop stop-color="#808080" stop-opacity="0.25" offset="0%"></stop>
            <stop stop-color="#808080" stop-opacity="0.12" offset="54%"></stop>
            <stop stop-color="#808080" stop-opacity="0.1" offset="100%"></stop>
        </linearGradient>
        <linearGradient x1="50.0037523%" y1="100.031886%" x2="50.0037523%" y2="0.0159430302%" id="linearGradient-6">
            <stop stop-color="#808080" stop-opacity="0.25" offset="0%"></stop>
            <stop stop-color="#808080" stop-opacity="0.12" offset="54%"></stop>
            <stop stop-color="#808080" stop-opacity="0.1" offset="100%"></stop>
        </linearGradient>
    </defs>
    <g id="landing" stroke="none" stroke-width="1" fill="none" fill-rule="evenodd">
        <g id="003-L" transform="translate(-806.000000, -736.000000)">
            <g id="undraw_browser_stats_704t" transform="translate(806.000000, 736.000000)">
                <polygon id="Path" fill="url(#linearGradient-1)" points="7.13885714 44.3262857 8.75828571 49.3034286 33.7777143 126.220714 153.544857 87.1371429 128.525429 10.2198571 126.907857 5.24271429"></polygon>
                <polygon id="Path" fill="#50D6A9" opacity="0.7" points="3.63814286 52.3231429 5.17028571 57.0384286 28.873 129.907143 144.738286 92.0975714 121.035571 19.227 119.503429 14.5135714"></polygon>
                <polygon id="Rectangle" fill="#F5F5F5" transform="translate(68.221233, 28.457483) rotate(-18.072322) translate(-68.221233, -28.457483) " points="7.3245482 25.9808612 129.117918 25.9808612 129.117918 30.9341045 7.3245482 30.9341045"></polygon>
                <polygon id="Rectangle" fill="#FFFFFF" transform="translate(80.914753, 67.255823) rotate(-18.020000) translate(-80.914753, -67.255823) " points="19.9753962 28.9420372 141.854111 28.9420372 141.854111 105.569609 19.9753962 105.569609"></polygon>
                <path d="M14.378,45.9884286 C14.6194179,46.731544 14.2128911,47.5296972 13.4698695,47.7714039 C12.7268479,48.0131105 11.9285368,47.606894 11.6865414,46.8639664 C11.4445459,46.1210388 11.8504522,45.3225699 12.5932857,45.0802857 C13.3368495,44.8388417 14.1354731,45.2452172 14.378,45.9884286 Z" id="Path" fill="#FF5252"></path>
                <path d="M18.1442857,44.759 C18.3857036,45.5021155 17.9791768,46.3002686 17.2361552,46.5419753 C16.4931336,46.783682 15.6948225,46.3774654 15.4528271,45.6345378 C15.2108317,44.8916102 15.6167379,44.0931413 16.3595714,43.8508571 C17.1031353,43.6094131 17.9017588,44.0157887 18.1442857,44.759 Z" id="Path" fill="#FFFF00"></path>
                <path d="M21.9124286,43.5277143 C22.1538464,44.2708298 21.7473196,45.0689829 21.004298,45.3106896 C20.2612764,45.5523962 19.4629654,45.1461797 19.2209699,44.4032521 C18.9789745,43.6603245 19.3848808,42.8618556 20.1277143,42.6195714 C20.8712781,42.3781274 21.6699017,42.7845029 21.9124286,43.5277143 Z" id="Path" fill="#69F0AE"></path>
                <polygon id="Rectangle" fill="url(#linearGradient-2)" transform="translate(35.014320, 51.324352) rotate(-18.070000) translate(-35.014320, -51.324352) " points="15.4799624 49.6250663 54.5486767 49.6250663 54.5486767 53.0236377 15.4799624 53.0236377"></polygon>
                <polygon id="Rectangle" fill="#50D6A9" transform="translate(34.970949, 51.189170) rotate(-18.070000) translate(-34.970949, -51.189170) " points="15.5777344 49.773099 54.364163 49.773099 54.364163 52.6052419 15.5777344 52.6052419"></polygon>
                <polygon id="Rectangle" fill="#50D6A9" transform="translate(108.448653, 27.215096) rotate(-18.070000) translate(-108.448653, -27.215096) " points="89.0554392 25.7990243 127.841868 25.7990243 127.841868 28.6311671 89.0554392 28.6311671"></polygon>
                <polygon id="Rectangle" fill="#000000" opacity="0.2" transform="translate(108.448653, 27.215096) rotate(-18.070000) translate(-108.448653, -27.215096) " points="89.0554392 25.7990243 127.841868 25.7990243 127.841868 28.6311671 89.0554392 28.6311671"></polygon>
                <polygon id="Rectangle" fill="#50D6A9" opacity="0.2" transform="translate(23.037302, 74.451917) rotate(-18.070000) translate(-23.037302, -74.451917) " points="22.1876596 73.6022739 23.8869453 73.6022739 23.8869453 75.3015596 22.1876596 75.3015596"></polygon>
                <polygon id="Rectangle" fill="#50D6A9" opacity="0.5" transform="translate(132.580590, 38.711249) rotate(-18.070000) translate(-132.580590, -38.711249) " points="131.730947 37.8616063 133.430233 37.8616063 133.430233 39.560892 131.730947 39.560892"></polygon>
                <path d="M32.7284286,71.2864286 C33.1189408,72.4842628 32.7493092,73.7993865 31.791942,74.6183826 C30.8345747,75.4373788 29.4780764,75.5989026 28.3551623,75.0276141 C27.2322481,74.4563256 26.5641359,73.2647704 26.6624551,72.0087289 C26.7607744,70.7526875 27.6061557,69.6796041 28.8042857,69.29 C30.4389781,68.7605853 32.1938881,69.6534052 32.7284286,71.2864286 Z" id="Path" fill="#50D6A9" opacity="0.2"></path>
                <path d="M129.080714,39.845 C129.609076,41.4813975 128.711227,43.2363503 127.075034,43.7653432 C125.43884,44.2943362 123.683541,43.3971648 123.153917,41.7611756 C122.624293,40.1251864 123.520787,38.3695412 125.156571,37.8392857 C126.793965,37.3106645 128.550086,38.2082558 129.080714,39.845 Z" id="Path" fill="#50D6A9" opacity="0.5"></path>
                <polygon id="Rectangle" fill="#50D6A9" opacity="0.5" transform="translate(43.491944, 67.777836) rotate(-18.070000) translate(-43.491944, -67.777836) " points="34.7160151 66.9281933 52.2678722 66.9281933 52.2678722 68.627479 34.7160151 68.627479"></polygon>
                <polygon id="Rectangle" fill="#50D6A9" opacity="0.8" transform="translate(48.310516, 82.595232) rotate(-18.070000) translate(-48.310516, -82.595232) " points="39.5345872 81.7455887 57.0864443 81.7455887 57.0864443 83.4448744 39.5345872 83.4448744"></polygon>
                <polygon id="Rectangle" fill="#50D6A9" opacity="0.7" transform="translate(71.187706, 75.129855) rotate(-18.070000) translate(-71.187706, -75.129855) " points="62.4117778 74.2802123 79.963635 74.2802123 79.963635 75.979498 62.4117778 75.979498"></polygon>
                <polygon id="Rectangle" fill="#50D6A9" opacity="0.5" transform="translate(94.065565, 67.666820) rotate(-18.070000) translate(-94.065565, -67.666820) " points="85.2896361 66.8171776 102.841493 66.8171776 102.841493 68.5164633 85.2896361 68.5164633"></polygon>
                <polygon id="Rectangle" fill="#50D6A9" opacity="0.2" transform="translate(116.944612, 60.201444) rotate(-18.070000) translate(-116.944612, -60.201444) " points="108.168684 59.3518012 125.720541 59.3518012 125.720541 61.0510869 108.168684 61.0510869"></polygon>
                <polygon id="Rectangle" fill="#50D6A9" opacity="0.8" transform="translate(53.129088, 97.412627) rotate(-18.070000) translate(-53.129088, -97.412627) " points="44.3531593 96.5629841 61.9050165 96.5629841 61.9050165 98.2622698 44.3531593 98.2622698"></polygon>
                <polygon id="Rectangle" fill="#50D6A9" opacity="0.7" transform="translate(76.006279, 89.947251) rotate(-18.070000) translate(-76.006279, -89.947251) " points="67.23035 89.0976077 84.7822071 89.0976077 84.7822071 90.7968935 67.23035 90.7968935"></polygon>
                <polygon id="Rectangle" fill="#50D6A9" opacity="0.5" transform="translate(98.884137, 82.484216) rotate(-18.070000) translate(-98.884137, -82.484216) " points="90.1082082 81.634573 107.660065 81.634573 107.660065 83.3338587 90.1082082 83.3338587"></polygon>
                <polygon id="Rectangle" fill="#50D6A9" opacity="0.2" transform="translate(121.763185, 75.018839) rotate(-18.070000) translate(-121.763185, -75.018839) " points="112.987256 74.1691966 130.539113 74.1691966 130.539113 75.8684823 112.987256 75.8684823"></polygon>
                <polygon id="Rectangle" fill="#50D6A9" opacity="0.2" transform="translate(66.369134, 60.312460) rotate(-18.070000) translate(-66.369134, -60.312460) " points="57.5932057 59.4628169 75.1450628 59.4628169 75.1450628 61.1621026 57.5932057 61.1621026"></polygon>
                <polygon id="Rectangle" fill="#64FFDA" transform="translate(89.246993, 52.849425) rotate(-18.070000) translate(-89.246993, -52.849425) " points="80.4710639 51.9997822 98.0229211 51.9997822 98.0229211 53.6990679 80.4710639 53.6990679"></polygon>
                <polygon id="Rectangle" fill="#50D6A9" opacity="0.2" transform="translate(112.124275, 45.386482) rotate(-18.070000) translate(-112.124275, -45.386482) " points="103.348346 44.536839 120.900203 44.536839 120.900203 46.2361247 103.348346 46.2361247"></polygon>
                <polygon id="Rectangle" fill="url(#linearGradient-3)" transform="translate(30.815441, 88.302442) rotate(-18.070000) translate(-30.815441, -88.302442) " points="26.4270128 83.9112276 35.20387 83.9112276 35.20387 92.6936562 26.4270128 92.6936562"></polygon>
                <polygon id="Rectangle" fill="url(#linearGradient-4)" transform="translate(35.634014, 103.119837) rotate(-18.070000) translate(-35.634014, -103.119837) " points="31.245585 98.728623 40.0224421 98.728623 40.0224421 107.511052 31.245585 107.511052"></polygon>
                <polygon id="Rectangle" fill="#50D6A9" transform="translate(30.815441, 88.302442) rotate(-18.070000) translate(-30.815441, -88.302442) " points="26.8522986 84.3365133 34.7785843 84.3365133 34.7785843 92.2683704 26.8522986 92.2683704"></polygon>
                <polygon id="Rectangle" fill="#50D6A9" transform="translate(35.634014, 103.119837) rotate(-18.070000) translate(-35.634014, -103.119837) " points="31.6708707 99.1539087 39.5971564 99.1539087 39.5971564 107.085766 31.6708707 107.085766"></polygon>
                <path d="M48.3265714,0 L0,15.7708571 L7.40442857,38.5338571 L14.2888571,36.2867143 C14.3148571,37.2895714 14.2684286,40.4355714 12.6787143,41.2174286 C12.6787143,41.2174286 16.0494286,41.327 18.1387143,35.0294286 L55.7291429,22.763 L48.3265714,0 Z" id="Path" fill="url(#linearGradient-5)"></path>
                <path d="M47.2717143,1.13471429 L1.51728571,16.0661429 L8.528,37.609 L15.0465714,35.4825714 C15.0725714,36.4334286 15.0261429,39.4104286 13.5218571,40.1514286 C13.5218571,40.1514286 16.7124286,40.2535714 18.6921429,34.2921429 L54.2824286,22.685 L47.2717143,1.13471429 Z" id="Path" fill="#50D6A9"></path>
                <path d="" id="Path" stroke="#FFFFFF" stroke-linecap="round" stroke-linejoin="round"></path>
                <path d="M6.30871429,17.9771429 L10.8661429,31.9855714" id="Path" stroke="#FFFFFF" stroke-linecap="round" stroke-linejoin="round" stroke-dasharray="0"></path>
                <path d="" id="Path" stroke="#FFFFFF" stroke-linecap="round" stroke-linejoin="round"></path>
                <path d="M11.3304286,33.8705714 L49.2792857,21.4871429" id="Path" stroke="#FFFFFF" stroke-linecap="round" stroke-linejoin="round"></path>
                <path d="M12.168,29.1274286 L44.1962857,18.6754286" id="Path" stroke="#FFFFFF" opacity="0.3" stroke-linecap="round" stroke-linejoin="round"></path>
                <path d="M10.855,25.0862857 L42.8814286,14.6361429" id="Path" stroke="#FFFFFF" opacity="0.3" stroke-linecap="round" stroke-linejoin="round"></path>
                <path d="M9.54014286,21.0451429 L41.5665714,10.595" id="Path" stroke="#FFFFFF" opacity="0.3" stroke-linecap="round" stroke-linejoin="round"></path>
                <path d="M8.22528571,17.0058571 L40.2535714,6.55385714" id="Path" stroke="#FFFFFF" opacity="0.3" stroke-linecap="round" stroke-linejoin="round"></path>
                <path d="M18.7181429,27.4225714 C18.705121,27.3615827 18.7007448,27.2990652 18.7051429,27.2368571 C18.7461029,26.7091671 19.1442393,26.2787494 19.6671429,26.1968571 L19.8045714,26.169 C20.7034286,25.9442857 21.6264286,25.6118571 22.2318571,24.9117143 C23.1827143,23.7974286 23.0731429,22.1055714 22.9097143,20.735 C22.8500023,20.3031368 22.9097354,19.8631675 23.0824286,19.4628571 C23.6711429,18.1628571 24.9674286,18.5008571 26.0724286,18.4451429 C27.9725565,18.3035927 29.5461391,16.9144677 29.9222857,15.0465714 C30.0597143,14.2665714 29.9724286,13.4624286 30.0838571,12.6787143 C30.2436892,11.5974992 30.7764684,10.6061752 31.59,9.87628571 C32.4257143,9.13342857 33.5084286,8.71 34.5484286,8.34785714 C35.3771571,8.05273156 36.2521136,7.90868768 37.1317143,7.92257143 L37.1781429,7.92257143 C38.6934424,7.98156567 40.0265756,8.94101203 40.5637143,10.3591429 C40.794,10.9552857 40.9908571,11.5644286 41.197,12.1958571 C42.3354286,15.6984286 43.3884286,18.9298571 44.7032857,22.9858571 C43.0875714,23.4984286 39.299,24.7334286 38.7808571,24.9024286 L33.1295714,26.7465714 C29.3614286,27.976 25.7585714,29.2685714 21.5558571,30.524 C20.6885714,30.7821429 21.5558571,30.524 19.6727143,31.1387143 C19.3384286,30.121 19.3217143,30.0727143 18.7181429,27.4225714 Z" id="Path" fill="#FFFFFF" opacity="0.2"></path>
                <polygon id="Rectangle" fill="#50D6A9" opacity="0.1" transform="translate(36.256545, 45.208624) rotate(-18.072322) translate(-36.256545, -45.208624) " points="12.2094671 44.6425916 60.3036229 44.6425916 60.3036229 45.7746555 12.2094671 45.7746555"></polygon>
                <path d="M167.376857,68.1478571 L157.521,37.8392857 L143.273,42.4821429 L144.677,46.8 C144.049286,46.8167143 142.077,46.787 141.590429,45.7915714 C141.590429,45.7915714 141.521714,47.905 145.462571,49.2142857 L153.130714,72.7851429 L167.376857,68.1478571 Z" id="Path" fill="url(#linearGradient-6)"></path>
                <path d="M166.431571,67.2657143 L157.274,39.1132857 L144.045571,43.433 L145.345571,47.4444286 C144.762429,47.4592857 142.931286,47.4332857 142.478143,46.5158571 C142.478143,46.5158571 142.415,48.4788571 146.075429,49.6952857 L153.199429,71.5947143 L166.431571,67.2657143 Z" id="Path" fill="#50D6A9"></path>
                <path d="" id="Path" stroke="#FFFFFF" stroke-linecap="round" stroke-linejoin="round"></path>
                <path d="M155.827286,42.1497143 L147.631714,44.8258571" id="Path" stroke="#FFFFFF" stroke-linecap="round" stroke-linejoin="round" stroke-dasharray="0"></path>
                <path d="" id="Path" stroke="#FFFFFF" stroke-linecap="round" stroke-linejoin="round"></path>
                <path d="M146.337286,45.1545714 L153.933,68.5062857" id="Path" stroke="#FFFFFF" stroke-linecap="round" stroke-linejoin="round"></path>
                <path d="M149.251143,45.6708571 L155.662,65.377" id="Path" stroke="#FFFFFF" opacity="0.3" stroke-linecap="round" stroke-linejoin="round"></path>
                <path d="M151.732286,44.8611429 L158.143143,64.5672857" id="Path" stroke="#FFFFFF" opacity="0.3" stroke-linecap="round" stroke-linejoin="round"></path>
                <path d="M154.215286,44.0514286 L160.624286,63.7575714" id="Path" stroke="#FFFFFF" opacity="0.3" stroke-linecap="round" stroke-linejoin="round"></path>
                <path d="M156.696429,43.2417143 L163.107286,62.9478571" id="Path" stroke="#FFFFFF" opacity="0.3" stroke-linecap="round" stroke-linejoin="round"></path>
                <path d="M150.294857,49.7027143 C150.331214,49.6977719 150.368072,49.6977719 150.404429,49.7027143 C150.72899,49.728163 150.993467,49.9734195 151.043286,50.2951429 C151.043286,50.3304286 151.054429,50.3582857 151.06,50.3787143 C151.197429,50.9358571 151.399857,51.493 151.830714,51.8644286 C152.510429,52.4494286 153.554143,52.3825714 154.395429,52.2804286 C154.660824,52.2433728 154.931299,52.279993 155.177286,52.3862857 C155.972143,52.7577143 155.767857,53.547 155.801286,54.2248571 C155.884832,55.3941097 156.737871,56.3641285 157.886857,56.5964286 C158.366,56.6818571 158.86,56.6261429 159.341,56.6967143 C160.005803,56.7953471 160.614989,57.1239263 161.062571,57.6252857 C161.519429,58.1397143 161.779429,58.8045714 162.000429,59.4452857 C162.181341,59.9554101 162.269399,60.49382 162.260429,61.035 L162.260429,61.0535714 C162.224024,61.985312 161.634941,62.8053503 160.763571,63.1372857 C160.392143,63.2784286 160.020714,63.401 159.634429,63.5272857 L153.008143,65.6964286 C152.694286,64.701 151.936571,62.3702857 151.832571,62.0527143 C151.437,60.8381429 151.089714,59.7907143 150.701571,58.5742857 C149.947571,56.2565714 149.154571,54.0391429 148.385714,51.454 C148.227857,50.921 148.385714,51.454 148.014286,50.2951429 C148.638286,50.0834286 148.668,50.0741429 150.294857,49.7027143 Z" id="Path" fill="#FFFFFF" opacity="0.2"></path>
                <polygon id="Rectangle" fill="#50D6A9" opacity="0.1" transform="translate(137.481077, 61.101883) rotate(-18.070000) translate(-137.481077, -61.101883) " points="136.773506 46.3710264 138.188649 46.3710264 138.188649 75.8327406 136.773506 75.8327406"></polygon>
            </g>
        </g>
    </g>
</svg>