<?xml version="1.0" encoding="UTF-8"?>
<svg width="79px" height="54px" viewBox="0 0 79 54" version="1.1" xmlns="http://www.w3.org/2000/svg" xmlns:xlink="http://www.w3.org/1999/xlink">
    <!-- Generator: Sketch 51.3 (57544) - http://www.bohemiancoding.com/sketch -->
    <title>data-flow-inactive</title>
    <desc>Created with Sketch.</desc>
    <defs></defs>
    <g id="landing" stroke="none" stroke-width="1" fill="none" fill-rule="evenodd">
        <g id="Desktop-HD" transform="translate(-1079.000000, -294.000000)">
            <g id="data-flow-inactive" transform="translate(1118.500000, 321.000000) scale(-1, 1) rotate(90.000000) translate(-1118.500000, -321.000000) translate(1091.500000, 281.500000)">
                <g id="Group-3" transform="translate(0.000000, 51.000000)" fill="#000000">
                    <ellipse id="Oval-3" cx="14.5384615" cy="13.7666667" rx="3.92307692" ry="3.96666667"></ellipse>
                    <ellipse id="Oval-3" cx="38.5384615" cy="13.7666667" rx="3.92307692" ry="3.96666667"></ellipse>
                    <ellipse id="Oval-3" cx="26.5384615" cy="24.0333333" rx="3.92307692" ry="3.96666667"></ellipse>
                    <ellipse id="Oval-3" cx="3.92307692" cy="3.96666667" rx="3.92307692" ry="3.96666667"></ellipse>
                    <ellipse id="Oval-3" cx="50.0769231" cy="3.96666667" rx="3.92307692" ry="3.96666667"></ellipse>
                </g>
                <g id="Group-3" transform="translate(0.000000, 26.000000)" fill="#4A4A4A">
                    <ellipse id="Oval-3" cx="14.5384615" cy="13.7666667" rx="3.92307692" ry="3.96666667"></ellipse>
                    <ellipse id="Oval-3" cx="38.5384615" cy="13.7666667" rx="3.92307692" ry="3.96666667"></ellipse>
                    <ellipse id="Oval-3" cx="26.5384615" cy="24.0333333" rx="3.92307692" ry="3.96666667"></ellipse>
                    <ellipse id="Oval-3" cx="3.92307692" cy="3.96666667" rx="3.92307692" ry="3.96666667"></ellipse>
                    <ellipse id="Oval-3" cx="50.0769231" cy="3.96666667" rx="3.92307692" ry="3.96666667"></ellipse>
                </g>
                <g id="Group-3" fill="#9B9B9B">
                    <ellipse id="Oval-3" cx="14.5384615" cy="13.7666667" rx="3.92307692" ry="3.96666667"></ellipse>
                    <ellipse id="Oval-3" cx="38.5384615" cy="13.7666667" rx="3.92307692" ry="3.96666667"></ellipse>
                    <ellipse id="Oval-3" cx="26.5384615" cy="24.0333333" rx="3.92307692" ry="3.96666667"></ellipse>
                    <ellipse id="Oval-3" cx="3.92307692" cy="3.96666667" rx="3.92307692" ry="3.96666667"></ellipse>
                    <ellipse id="Oval-3" cx="50.0769231" cy="3.96666667" rx="3.92307692" ry="3.96666667"></ellipse>
                </g>
            </g>
        </g>
    </g>
</svg>