<?xml version="1.0" encoding="UTF-8"?>
<svg width="404px" height="45px" viewBox="0 0 404 45" version="1.1" xmlns="http://www.w3.org/2000/svg" xmlns:xlink="http://www.w3.org/1999/xlink">
    <!-- Generator: Sketch 51.3 (57544) - http://www.bohemiancoding.com/sketch -->
    <title>insecurebar</title>
    <desc>Created with Sketch.</desc>
    <defs></defs>
    <g id="Page-1" stroke="none" stroke-width="1" fill="none" fill-rule="evenodd">
        <g id="001" transform="translate(-99.000000, -568.000000)">
            <g id="Group-4" transform="translate(99.000000, 427.000000)">
                <g id="insecurebar" transform="translate(0.000000, 141.000000)">
                    <rect id="Rectangle-2" fill="#F2F2F2" x="0" y="0" width="404" height="45"></rect>
                    <g id="rotate-cw" transform="translate(51.000000, 13.000000)" stroke="#72777D" stroke-linecap="round" stroke-linejoin="round" stroke-width="2">
                        <polyline id="Shape" points="20 1 20 7 14 7"></polyline>
                        <path d="M17.49,12 C16.1546218,15.7797845 12.4803151,18.2207055 8.4784162,17.9865893 C4.47651725,17.752473 1.11189474,14.8997654 0.226361989,10.9900548 C-0.659170766,7.08034411 1.14789059,3.05627226 4.6583505,1.1206388 C8.1688104,-0.814994661 12.5362874,-0.195503228 15.37,2.64 L20,7" id="Shape"></path>
                    </g>
                    <g id="url" transform="translate(88.000000, 7.000000)">
                        <rect id="Rectangle-3" stroke="#BBBBBB" fill="#FFFFFF" x="0.5" y="0.5" width="297" height="30" rx="4"></rect>
                        <path d="M46.2080078,20.0332031 C46.4541028,20.0332031 46.7382796,20.0039065 47.0605469,19.9453125 L47.0605469,21 C46.902343,21.0468752 46.7177745,21.0878904 46.5068359,21.1230469 C46.2958974,21.1582033 46.084962,21.1757812 45.8740234,21.1757812 C45.4580057,21.1757812 45.1459971,21.0908212 44.9379883,20.9208984 C44.7299794,20.7509757 44.59668,20.5312513 44.5380859,20.2617188 C44.4794919,19.9921862 44.4501953,19.6464865 44.4501953,19.2246094 L44.4501953,8.58105469 L45.7773438,8.58105469 L45.7773438,19.5322266 C45.7773438,19.6142582 45.8081052,19.7182611 45.8696289,19.8442383 C45.9311527,19.9702155 46.0439445,20.0332031 46.2080078,20.0332031 Z M52.4482422,21.1757812 C51.6455038,21.1757812 50.9292024,20.9692403 50.2993164,20.5561523 C49.6694304,20.1430643 49.1801775,19.5864293 48.831543,18.8862305 C48.4829084,18.1860317 48.3085938,17.419926 48.3085938,16.5878906 C48.3085938,15.7558552 48.4829084,14.9926793 48.831543,14.2983398 C49.1801775,13.6040004 49.6679656,13.0532247 50.2949219,12.6459961 C50.9218781,12.2387675 51.6396444,12.0351562 52.4482422,12.0351562 C53.2509806,12.0351562 53.9702117,12.2387675 54.605957,12.6459961 C55.2417024,13.0532247 55.7382795,13.6054653 56.0957031,14.3027344 C56.4531268,15.0000035 56.6318359,15.7617146 56.6318359,16.5878906 C56.6318359,17.419926 56.4531268,18.1860317 56.0957031,18.8862305 C55.7382795,19.5864293 55.2417024,20.1430643 54.605957,20.5561523 C53.9702117,20.9692403 53.2509806,21.1757812 52.4482422,21.1757812 Z M52.4570312,20.0859375 C53.0839875,20.0859375 53.611326,19.9204118 54.0390625,19.5893555 C54.466799,19.2582991 54.7846669,18.8276394 54.9926758,18.2973633 C55.2006846,17.7670872 55.3046875,17.1972687 55.3046875,16.5878906 C55.3046875,15.9726532 55.2006846,15.4028347 54.9926758,14.878418 C54.7846669,14.3540013 54.4682638,13.9306657 54.043457,13.6083984 C53.6186502,13.2861312 53.0957062,13.125 52.4746094,13.125 C51.8535125,13.125 51.3291037,13.2861312 50.9013672,13.6083984 C50.4736307,13.9306657 50.1542979,14.3554661 49.9433594,14.8828125 C49.7324208,15.4101589 49.6269531,15.9785126 49.6269531,16.5878906 C49.6269531,17.2031281 49.7324208,17.7773411 49.9433594,18.3105469 C50.1542979,18.8437527 50.4721658,19.2729476 50.8969727,19.5981445 C51.3217795,19.9233415 51.8417938,20.0859375 52.4570312,20.0859375 Z M62.0107422,21.1757812 C61.2021444,21.1757812 60.5092802,20.9677755 59.9321289,20.5517578 C59.3549776,20.1357401 58.9213882,19.5805699 58.6313477,18.8862305 C58.3413071,18.1918911 58.1962891,17.4375041 58.1962891,16.6230469 C58.1962891,15.8144491 58.3413071,15.0600621 58.6313477,14.3598633 C58.9213882,13.6596645 59.3520479,13.0971701 59.9233398,12.6723633 C60.4946318,12.2475565 61.1845663,12.0351562 61.9931641,12.0351562 C62.7783242,12.0351562 63.4667939,12.2416972 64.0585938,12.6547852 C64.6503936,13.0678732 65.1015609,13.6406213 65.4121094,14.3730469 L64.1728516,14.9003906 C64.0439447,14.3671848 63.7802754,13.9409196 63.3818359,13.621582 C62.9833964,13.3022445 62.5205104,13.1425781 61.9931641,13.1425781 C61.4248018,13.1425781 60.9560565,13.3139631 60.5869141,13.6567383 C60.2177716,13.9995134 59.9511727,14.4360325 59.7871094,14.9663086 C59.6230461,15.4965847 59.5410156,16.0488253 59.5410156,16.6230469 C59.5410156,17.2089873 59.6215812,17.7626927 59.7827148,18.2841797 C59.9438485,18.8056667 60.2089825,19.2333968 60.578125,19.5673828 C60.9472675,19.9013689 61.4189424,20.0683594 61.9931641,20.0683594 C62.5263699,20.0683594 62.9892558,19.9130875 63.3818359,19.6025391 C63.774416,19.2919906 64.0380853,18.8759792 64.1728516,18.3544922 L65.3154297,18.8466797 C65.0517565,19.5791052 64.6328154,20.1503886 64.0585938,20.5605469 C63.4843721,20.9707052 62.8017618,21.1757812 62.0107422,21.1757812 Z M69.4726562,21.1757812 C68.9218722,21.1757812 68.4311545,21.0717784 68.0004883,20.8637695 C67.5698221,20.6557607 67.2329114,20.3540059 66.9897461,19.9584961 C66.7465808,19.5629863 66.625,19.0957058 66.625,18.5566406 C66.625,17.6894488 66.9531217,17.0434592 67.609375,16.6186523 C68.2656283,16.1938455 69.2265562,15.9814453 70.4921875,15.9814453 L72.4960938,15.9814453 C72.4960938,14.1122953 71.7783275,13.1777344 70.3427734,13.1777344 C69.7744112,13.1777344 69.2910176,13.3051745 68.8925781,13.5600586 C68.4941386,13.8149427 68.1660169,14.1298809 67.9082031,14.5048828 L66.9501953,13.7578125 C67.7822307,12.6093693 68.8867119,12.0351562 70.2636719,12.0351562 C70.9960974,12.0351562 71.6201146,12.183104 72.1357422,12.4790039 C72.6513698,12.7749038 73.0410143,13.1923801 73.3046875,13.7314453 C73.5683607,14.2705105 73.7001953,14.8974574 73.7001953,15.6123047 L73.7001953,21 L72.5839844,21 L72.5576172,19.3037109 C72.2529282,19.9365266 71.8281277,20.4067367 71.2832031,20.7143555 C70.7382785,21.0219742 70.1347689,21.1757812 69.4726562,21.1757812 Z M69.6220703,20.0683594 C70.1904325,20.0683594 70.6943337,19.9145523 71.1337891,19.6069336 C71.5732444,19.2993149 71.9101551,18.9052758 72.1445312,18.4248047 C72.3789074,17.9443335 72.4960938,17.4609399 72.4960938,16.9746094 L70.6152344,16.9746094 C69.7246049,16.9746094 69.0625022,17.1005847 68.6289062,17.3525391 C68.1953103,17.6044934 67.9785156,18.0175753 67.9785156,18.5917969 C67.9785156,19.0898462 68.129393,19.460448 68.4311523,19.7036133 C68.7329117,19.9467786 69.1298804,20.0683594 69.6220703,20.0683594 Z M78.1650391,20.0332031 C78.411134,20.0332031 78.6953109,20.0039065 79.0175781,19.9453125 L79.0175781,21 C78.8593742,21.0468752 78.6748057,21.0878904 78.4638672,21.1230469 C78.2529286,21.1582033 78.0419932,21.1757812 77.8310547,21.1757812 C77.415037,21.1757812 77.1030284,21.0908212 76.8950195,20.9208984 C76.6870107,20.7509757 76.5537112,20.5312513 76.4951172,20.2617188 C76.4365231,19.9921862 76.4072266,19.6464865 76.4072266,19.2246094 L76.4072266,8.58105469 L77.734375,8.58105469 L77.734375,19.5322266 C77.734375,19.6142582 77.7651364,19.7182611 77.8266602,19.8442383 C77.8881839,19.9702155 78.0009757,20.0332031 78.1650391,20.0332031 Z M81.0039062,8.58105469 L82.3046875,8.58105469 L82.3046875,13.6611328 C82.5976577,13.1806617 83.0048802,12.7939468 83.5263672,12.5009766 C84.0478542,12.2080063 84.5927706,12.0615234 85.1611328,12.0615234 C85.8291049,12.0615234 86.3842751,12.219725 86.8266602,12.5361328 C87.2690452,12.8525406 87.5942372,13.2758763 87.8022461,13.8061523 C88.0102549,14.3364284 88.1142578,14.9296842 88.1142578,15.5859375 L88.1142578,21 L86.7871094,21 L86.7871094,15.796875 C86.7871094,15.0820277 86.6479506,14.4858422 86.3696289,14.0083008 C86.0913072,13.5307593 85.6093784,13.2919922 84.9238281,13.2919922 C84.4257788,13.2919922 83.9760762,13.4252916 83.574707,13.6918945 C83.1733378,13.9584974 82.8613292,14.3188454 82.6386719,14.7729492 C82.4160145,15.2270531 82.3046875,15.7236301 82.3046875,16.2626953 L82.3046875,21 L81.0039062,21 L81.0039062,8.58105469 Z M94.2841797,21.1757812 C93.4814413,21.1757812 92.7651399,20.9692403 92.1352539,20.5561523 C91.5053679,20.1430643 91.016115,19.5864293 90.6674805,18.8862305 C90.3188459,18.1860317 90.1445312,17.419926 90.1445312,16.5878906 C90.1445312,15.7558552 90.3188459,14.9926793 90.6674805,14.2983398 C91.016115,13.6040004 91.5039031,13.0532247 92.1308594,12.6459961 C92.7578156,12.2387675 93.4755819,12.0351562 94.2841797,12.0351562 C95.0869181,12.0351562 95.8061492,12.2387675 96.4418945,12.6459961 C97.0776399,13.0532247 97.574217,13.6054653 97.9316406,14.3027344 C98.2890643,15.0000035 98.4677734,15.7617146 98.4677734,16.5878906 C98.4677734,17.419926 98.2890643,18.1860317 97.9316406,18.8862305 C97.574217,19.5864293 97.0776399,20.1430643 96.4418945,20.5561523 C95.8061492,20.9692403 95.0869181,21.1757812 94.2841797,21.1757812 Z M94.2929688,20.0859375 C94.919925,20.0859375 95.4472635,19.9204118 95.875,19.5893555 C96.3027365,19.2582991 96.6206044,18.8276394 96.8286133,18.2973633 C97.0366221,17.7670872 97.140625,17.1972687 97.140625,16.5878906 C97.140625,15.9726532 97.0366221,15.4028347 96.8286133,14.878418 C96.6206044,14.3540013 96.3042013,13.9306657 95.8793945,13.6083984 C95.4545877,13.2861312 94.9316437,13.125 94.3105469,13.125 C93.68945,13.125 93.1650412,13.2861312 92.7373047,13.6083984 C92.3095682,13.9306657 91.9902354,14.3554661 91.7792969,14.8828125 C91.5683583,15.4101589 91.4628906,15.9785126 91.4628906,16.5878906 C91.4628906,17.2031281 91.5683583,17.7773411 91.7792969,18.3105469 C91.9902354,18.8437527 92.3081033,19.2729476 92.7329102,19.5981445 C93.157717,19.9233415 93.6777313,20.0859375 94.2929688,20.0859375 Z M103.134766,21.1757812 C102.60156,21.1757812 102.110842,21.0776377 101.662598,20.8813477 C101.214353,20.6850576 100.836427,20.4228532 100.528809,20.0947266 C100.22119,19.7665999 99.997071,19.4033223 99.8564453,19.0048828 L100.963867,18.4335938 C101.127931,18.9316431 101.394529,19.3344711 101.763672,19.6420898 C102.132814,19.9497086 102.5957,20.1035156 103.152344,20.1035156 C103.667971,20.1035156 104.083983,19.9775403 104.400391,19.7255859 C104.716798,19.4736316 104.875,19.1162133 104.875,18.6533203 C104.875,18.3076155 104.779786,18.0234386 104.589355,17.8007812 C104.398925,17.5781239 104.164552,17.4052741 103.88623,17.2822266 C103.607909,17.1591791 103.225588,17.0185555 102.739258,16.8603516 C102.188474,16.6845694 101.746095,16.5161141 101.412109,16.3549805 C101.078123,16.1938469 100.793946,15.960939 100.55957,15.65625 C100.325194,15.351561 100.208008,14.9560571 100.208008,14.4697266 C100.208008,13.9599584 100.333983,13.5219745 100.585938,13.1557617 C100.837892,12.789549 101.174803,12.5112314 101.59668,12.3208008 C102.018557,12.1303701 102.484372,12.0351562 102.994141,12.0351562 C103.650394,12.0351562 104.226072,12.191893 104.721191,12.5053711 C105.216311,12.8188492 105.601561,13.2451145 105.876953,13.7841797 L104.910156,14.3378906 C104.716796,13.9453105 104.456056,13.6406261 104.12793,13.4238281 C103.799803,13.2070302 103.407229,13.0986328 102.950195,13.0986328 C102.481443,13.0986328 102.107912,13.2099598 101.82959,13.4326172 C101.551268,13.6552746 101.412109,13.9482404 101.412109,14.3115234 C101.412109,14.5927748 101.497069,14.8242178 101.666992,15.0058594 C101.836915,15.1875009 102.05078,15.3339838 102.308594,15.4453125 C102.566408,15.5566412 102.920896,15.6826165 103.37207,15.8232422 C103.958011,16.0048837 104.43701,16.1835929 104.809082,16.359375 C105.181154,16.5351571 105.497557,16.7958967 105.758301,17.1416016 C106.019044,17.4873064 106.149414,17.9384738 106.149414,18.4951172 C106.149414,19.0693388 106.00879,19.5585917 105.727539,19.9628906 C105.446288,20.3671895 105.075686,20.6704091 104.615723,20.8725586 C104.155759,21.074708 103.662112,21.1757812 103.134766,21.1757812 Z M110.772461,21.1757812 C109.354485,21.1757812 108.645508,20.3408287 108.645508,18.6708984 L108.645508,13.2919922 L107.239258,13.2919922 L107.239258,12.2197266 L108.654297,12.2197266 L108.654297,10.2421875 L109.955078,9.01171875 L109.955078,12.2197266 L112.178711,12.2197266 L112.178711,13.2919922 L109.955078,13.2919922 L109.955078,18.6796875 C109.955078,19.1425804 110.057616,19.4941394 110.262695,19.734375 C110.467774,19.9746106 110.737303,20.0947266 111.071289,20.0947266 C111.35254,20.0947266 111.645506,20.0214851 111.950195,19.875 L111.950195,21 C111.838867,21.0468752 111.676271,21.0878904 111.462402,21.1230469 C111.248534,21.1582033 111.018556,21.1757812 110.772461,21.1757812 Z" id="localhost" fill="#4A4A4A"></path>
                        <path d="M115.091797,12.6152344 L116.805664,12.6152344 L116.805664,14.3115234 L115.091797,14.3115234 L115.091797,12.6152344 Z M115.091797,19.2949219 L116.805664,19.2949219 L116.805664,21 L115.091797,21 L115.091797,19.2949219 Z M123.942383,21.1757812 C123.250973,21.1757812 122.624026,21.0249039 122.061523,20.7231445 C121.499021,20.4213852 121.03174,20.0097682 120.659668,19.4882812 C120.287596,18.9667943 120.031251,18.3808626 119.890625,17.7304688 L121.129883,17.3173828 C121.282227,18.0673866 121.576658,18.7016576 122.013184,19.2202148 C122.449709,19.7387721 123.08398,19.9980469 123.916016,19.9980469 C124.501956,19.9980469 125.002928,19.851564 125.418945,19.5585938 C125.834963,19.2656235 126.146972,18.8862328 126.35498,18.4204102 C126.562989,17.9545875 126.666992,17.4609401 126.666992,16.9394531 C126.666992,16.4238255 126.565919,15.9448264 126.36377,15.5024414 C126.16162,15.0600564 125.862795,14.7041029 125.467285,14.4345703 C125.071775,14.1650377 124.592776,14.0302734 124.030273,14.0302734 C123.508786,14.0302734 123.025393,14.1518543 122.580078,14.3950195 C122.134763,14.6381848 121.777345,14.9736307 121.507812,15.4013672 L120.3125,14.8388672 L121.402344,8.58105469 L127.537109,8.58105469 L127.537109,9.79394531 L122.46582,9.79394531 L121.797852,13.8017578 C122.125978,13.4677718 122.500974,13.2319343 122.922852,13.0942383 C123.344729,12.9565423 123.775388,12.8876953 124.214844,12.8876953 C124.970707,12.8876953 125.643063,13.070799 126.231934,13.4370117 C126.820804,13.8032245 127.279295,14.2968719 127.607422,14.9179688 C127.935549,15.5390656 128.099609,16.212887 128.099609,16.9394531 C128.099609,17.6953163 127.919435,18.3984342 127.559082,19.0488281 C127.198729,19.699222 126.702152,20.2163067 126.069336,20.6000977 C125.43652,20.9838886 124.727543,21.1757812 123.942383,21.1757812 Z M134.216797,21.1757812 C133.132807,21.1757812 132.245121,20.8535188 131.553711,20.2089844 C130.862301,19.5644499 130.362795,18.7558642 130.055176,17.7832031 C129.747557,16.810542 129.59375,15.8115286 129.59375,14.7861328 C129.59375,13.7548777 129.743163,12.7514697 130.041992,11.7758789 C130.340822,10.8002881 130.827145,9.9902376 131.500977,9.34570312 C132.174808,8.70116865 133.036128,8.37890625 134.084961,8.37890625 C135.063481,8.37890625 135.899899,8.68066104 136.594238,9.28417969 C137.288578,9.88769833 137.811522,10.6816357 138.163086,11.6660156 C138.51465,12.6503955 138.69043,13.7021428 138.69043,14.8212891 C138.69043,15.9287165 138.519045,16.9672803 138.17627,17.9370117 C137.833494,18.9067431 137.325199,19.6889619 136.651367,20.2836914 C135.977536,20.8784209 135.16602,21.1757812 134.216797,21.1757812 Z M134.164062,19.9101562 C134.884769,19.9101562 135.473631,19.6435574 135.930664,19.1103516 C136.387698,18.5771458 136.717284,17.9179727 136.919434,17.1328125 C137.121583,16.3476523 137.222656,15.5595743 137.222656,14.7685547 C137.222656,13.9540975 137.120118,13.1616249 136.915039,12.3911133 C136.70996,11.6206016 136.373049,10.9775416 135.904297,10.4619141 C135.435545,9.94628648 134.829105,9.68847656 134.084961,9.68847656 C133.346676,9.68847656 132.743166,9.94775131 132.274414,10.4663086 C131.805662,10.9848659 131.468751,11.6308555 131.263672,12.4042969 C131.058593,13.1777382 130.956055,13.9716756 130.956055,14.7861328 C130.956055,15.60059 131.060058,16.397457 131.268066,17.1767578 C131.476075,17.9560586 131.82031,18.6064427 132.300781,19.1279297 C132.781252,19.6494167 133.40234,19.9101562 134.164062,19.9101562 Z M144.368164,21.1757812 C143.284174,21.1757812 142.396488,20.8535188 141.705078,20.2089844 C141.013668,19.5644499 140.514162,18.7558642 140.206543,17.7832031 C139.898924,16.810542 139.745117,15.8115286 139.745117,14.7861328 C139.745117,13.7548777 139.89453,12.7514697 140.193359,11.7758789 C140.492189,10.8002881 140.978512,9.9902376 141.652344,9.34570312 C142.326175,8.70116865 143.187495,8.37890625 144.236328,8.37890625 C145.214849,8.37890625 146.051266,8.68066104 146.745605,9.28417969 C147.439945,9.88769833 147.962889,10.6816357 148.314453,11.6660156 C148.666017,12.6503955 148.841797,13.7021428 148.841797,14.8212891 C148.841797,15.9287165 148.670412,16.9672803 148.327637,17.9370117 C147.984862,18.9067431 147.476566,19.6889619 146.802734,20.2836914 C146.128903,20.8784209 145.317388,21.1757812 144.368164,21.1757812 Z M144.31543,19.9101562 C145.036136,19.9101562 145.624998,19.6435574 146.082031,19.1103516 C146.539065,18.5771458 146.868651,17.9179727 147.070801,17.1328125 C147.27295,16.3476523 147.374023,15.5595743 147.374023,14.7685547 C147.374023,13.9540975 147.271485,13.1616249 147.066406,12.3911133 C146.861327,11.6206016 146.524416,10.9775416 146.055664,10.4619141 C145.586912,9.94628648 144.980472,9.68847656 144.236328,9.68847656 C143.498043,9.68847656 142.894534,9.94775131 142.425781,10.4663086 C141.957029,10.9848659 141.620118,11.6308555 141.415039,12.4042969 C141.20996,13.1777382 141.107422,13.9716756 141.107422,14.7861328 C141.107422,15.60059 141.211425,16.397457 141.419434,17.1767578 C141.627442,17.9560586 141.971677,18.6064427 142.452148,19.1279297 C142.93262,19.6494167 143.553707,19.9101562 144.31543,19.9101562 Z M154.519531,21.1757812 C153.435541,21.1757812 152.547855,20.8535188 151.856445,20.2089844 C151.165036,19.5644499 150.665529,18.7558642 150.35791,17.7832031 C150.050291,16.810542 149.896484,15.8115286 149.896484,14.7861328 C149.896484,13.7548777 150.045897,12.7514697 150.344727,11.7758789 C150.643556,10.8002881 151.129879,9.9902376 151.803711,9.34570312 C152.477542,8.70116865 153.338862,8.37890625 154.387695,8.37890625 C155.366216,8.37890625 156.202633,8.68066104 156.896973,9.28417969 C157.591312,9.88769833 158.114256,10.6816357 158.46582,11.6660156 C158.817385,12.6503955 158.993164,13.7021428 158.993164,14.8212891 C158.993164,15.9287165 158.821779,16.9672803 158.479004,17.9370117 C158.136229,18.9067431 157.627933,19.6889619 156.954102,20.2836914 C156.28027,20.8784209 155.468755,21.1757812 154.519531,21.1757812 Z M154.466797,19.9101562 C155.187504,19.9101562 155.776365,19.6435574 156.233398,19.1103516 C156.690432,18.5771458 157.020019,17.9179727 157.222168,17.1328125 C157.424317,16.3476523 157.525391,15.5595743 157.525391,14.7685547 C157.525391,13.9540975 157.422853,13.1616249 157.217773,12.3911133 C157.012694,11.6206016 156.675784,10.9775416 156.207031,10.4619141 C155.738279,9.94628648 155.13184,9.68847656 154.387695,9.68847656 C153.64941,9.68847656 153.045901,9.94775131 152.577148,10.4663086 C152.108396,10.9848659 151.771485,11.6308555 151.566406,12.4042969 C151.361327,13.1777382 151.258789,13.9716756 151.258789,14.7861328 C151.258789,15.60059 151.362792,16.397457 151.570801,17.1767578 C151.77881,17.9560586 152.123044,18.6064427 152.603516,19.1279297 C153.083987,19.6494167 153.705074,19.9101562 154.466797,19.9101562 Z" id=":5000" fill="#9B9B9B"></path>
                    </g>
                    <g id="arrow-right" transform="translate(12.000000, 15.000000)" stroke="#D8D9DB" stroke-linecap="round" stroke-linejoin="round" stroke-width="2">
                        <path d="M0,8 L20,8" id="Shape"></path>
                        <polyline id="Shape" points="13 0 21 7.5 13 15"></polyline>
                    </g>
                    <g id="info" transform="translate(102.000000, 13.000000)">
                        <circle id="Oval" stroke="#606368" stroke-width="2" stroke-linecap="round" stroke-linejoin="round" cx="9.5" cy="9.5" r="9.5"></circle>
                        <path d="M9.5,14.3 L9.5,10.5" id="Shape" stroke="#606368" stroke-width="2" stroke-linecap="round" stroke-linejoin="round"></path>
                        <circle id="Oval-2" fill="#606368" cx="9.5" cy="6.5" r="1.5"></circle>
                    </g>
                </g>
            </g>
        </g>
    </g>
</svg>