<?xml version="1.0" encoding="UTF-8"?>
<svg width="72px" height="130px" viewBox="0 0 72 130" version="1.1" xmlns="http://www.w3.org/2000/svg" xmlns:xlink="http://www.w3.org/1999/xlink">
    <!-- Generator: Sketch 51.3 (57544) - http://www.bohemiancoding.com/sketch -->
    <title>person</title>
    <desc>Created with Sketch.</desc>
    <defs>
        <linearGradient x1="49.985491%" y1="99.9908759%" x2="49.985491%" y2="0.00912408759%" id="linearGradient-1">
            <stop stop-color="#808080" stop-opacity="0.25" offset="0%"></stop>
            <stop stop-color="#808080" stop-opacity="0.12" offset="54%"></stop>
            <stop stop-color="#808080" stop-opacity="0.1" offset="100%"></stop>
        </linearGradient>
    </defs>
    <g id="Page-1" stroke="none" stroke-width="1" fill="none" fill-rule="evenodd">
        <g id="001" transform="translate(-220.000000, -187.000000)" fill-rule="nonzero">
            <g id="illustration" transform="translate(174.000000, 95.000000)">
                <g id="person" transform="translate(46.000000, 92.000000)">
                    <g id="person-shadow" opacity="0.5" fill="url(#linearGradient-1)">
                        <path d="M67.8529639,18.5957066 C66.7719856,18.7291559 65.8339862,19.4083814 65.3664523,20.3962433 C64.346571,22.5185152 62.3244433,26.2376565 60.4669075,26.822093 C59.2589213,27.1999106 57.498377,26.881127 55.9465116,26.4265653 L55.3145967,26.2317531 L55.3145967,25.4259392 C55.3145967,25.4259392 46.2355962,20.3667263 41.050955,19.1860465 L41.050955,15.478712 C42.686975,14.4364793 43.7951125,12.7354782 44.0907686,10.8125703 C44.3864247,8.88966243 43.8407919,6.93220838 42.594003,5.44293381 C43.9842157,4.9293381 44.9012271,4.04087657 44.9012271,3.02844365 C44.9012271,1.43747764 42.6263335,0.147584973 39.8223949,0.147584973 C37.3829095,0.147584973 35.3460861,1.1216458 34.8552499,2.42334526 C32.0334948,2.99640445 29.8648919,5.27244934 29.4191608,8.12876159 C28.9734297,10.9850738 30.3447312,13.8182568 32.8566353,15.2307692 L32.8566353,18.9203936 C30.0703315,18.8938283 22.0846907,20.0686047 18.5988718,33.8028623 C18.5988718,33.8028623 19.0926472,34.227907 19.8568234,34.8241503 L19.7539535,35.0927549 L10.4868481,59.066458 C10.4868481,59.066458 3.11254824,61.0411449 6.88052449,64.6746869 C6.88052449,64.6746869 6.88052449,64.6186047 6.86288966,64.5241503 L8.71454725,68.8041145 L9.04373083,69.5125224 L11.2275111,74.1939177 L11.0100148,75.2594812 L8.21195448,89.0498211 L4.3587432,89.0498211 L4.3587432,91.2370304 L7.75932707,91.2370304 L2.84217094e-14,129.538283 L2.45124196,129.538283 L9.92841168,91.2370304 L19.1808214,91.2370304 L24.1567838,101.907424 L21.8054725,101.907424 L21.8054725,104.369141 L25.3324394,104.369141 L28.5243444,111.27907 C28.136378,111.671646 28.0952301,112.273792 29.4060861,113.144544 L30.4230282,115.322898 L27.5250371,115.322898 L27.5250371,116.964043 L31.1901435,116.964043 L37.0684216,129.550089 L41.9709055,129.550089 L36.042662,116.964043 L38.6878872,116.964043 L38.6878872,116.134615 C41.3771994,116.527191 43.5962494,116.527191 44.0047897,116.116905 C44.8248095,115.293381 44.6602177,111.836941 43.5139535,110.192844 C43.3922573,110.012569 43.2435446,109.852268 43.0730826,109.717621 C43.208283,106.264132 43.6961801,99.3866726 45.4802375,95.218873 C47.9373577,89.4601073 44.1693815,83.040161 44.1693815,83.040161 L44.0518159,80.6522361 L44.0518159,79.6958855 C45.4038199,79.436136 46.3002573,79.2442755 46.3002573,79.2442755 C46.3002573,79.2442755 43.8431371,71.1802326 46.3002573,67.0655635 C48.0078971,64.2083184 48.1313409,60.0021467 47.117338,56.2623435 L47.117338,56.2357782 C47.0663929,56.050805 47.0134884,55.8677996 46.9586244,55.6867621 L46.9586244,55.6572451 C47.5016754,55.1716301 48.0003776,54.638198 48.4487679,54.0633274 C48.4487679,54.0633274 45.0070361,37.9352415 48.4487679,32.8317531 L55.3322316,33.3246869 L55.3322316,32.4185152 L61.4779713,32.4185152 L66.8859871,24.8474061 C66.8859871,24.8474061 70.6539634,23.8585868 71.8031667,20.5674419 C72.5320732,18.3979428 69.8045522,18.3743292 67.8529639,18.5957066 Z M22.1228996,47.0648479 C22.1228996,47.0648479 24.3595844,43.1125224 25.4617615,39.0568873 L25.4617615,39.0421288 C25.5166254,38.8453488 25.5685502,38.6406977 25.6175359,38.4281753 C25.7938842,38.4931127 25.9643543,38.5521467 26.1318852,38.5964222 C26.1318852,38.5964222 27.7719248,53.4080501 25.1472736,54.0662791 C25.1472736,54.0662791 25.6733795,54.4086762 26.5815735,54.9045617 L25.6175359,55.2912343 L20.0684414,57.5197674 L20.4240772,58.7004472 C20.2242157,58.7388193 20.0008412,58.7830948 19.7627709,58.8332737 C18.178575,59.1727191 15.8302029,59.8338998 13.9491539,61.0175313 C13.9491539,61.0175313 16.0594557,53.8124329 22.1228996,47.0648479 Z M11.8535477,62.8711986 C11.6715313,63.1179259 11.5121654,63.380719 11.3774072,63.6563506 L10.7895794,62.0949016 C11.0100148,62.1214669 11.2363286,62.1568873 11.4802771,62.2011628 C11.4714597,62.2041145 11.6331123,62.4786225 11.8535477,62.8711986 Z M12.4942801,78.1019678 L12.661811,77.2489267 L16.4650569,85.4015206 C14.905493,85.7251699 13.3126437,85.857979 11.7212865,85.7970483 C11.4146948,85.9431197 11.1314062,86.1341122 10.8806927,86.3637746 L12.4942801,78.0990161 L12.4942801,78.1019678 Z M10.357526,89.0439177 L10.6514399,87.4824687 C10.9453538,87.8779964 11.6595646,88.294186 13.1673429,88.6838104 C13.7747742,88.8368308 14.3899369,88.957039 15.0101831,89.0439177 L10.357526,89.0439177 Z M30.0967838,104.369141 L32.9595052,104.369141 L32.9595052,101.907424 L28.938763,101.907424 L23.9245918,91.2370304 L26.1642157,91.2370304 L26.1642157,89.0498211 L23.4954775,89.0498211 C25.2795349,88.8166369 26.5756952,88.4594812 26.8108263,88.0875671 C27.4192281,87.1371199 26.6021475,83.9551878 25.2119347,82.529517 C24.289045,78.6126118 22.0935082,70.1323792 20.0860762,68.8720036 L22.9605542,68.3347943 L22.9899456,68.3347943 L23.3602771,68.2669052 L24.3478278,71.5137746 C26.6602957,71.3590011 28.9598962,71.0493682 31.2312914,70.586941 L31.2312914,70.6223614 C29.3239717,70.9958029 27.3980043,71.2657827 25.4617615,71.431127 L25.4823355,71.5019678 C27.3974932,71.3751476 29.3040664,71.1406116 31.1930826,70.7994633 C30.778664,74.4802326 30.4230282,80.8145796 32.8566353,81.0477639 C33.3024059,81.0844778 33.7500168,81.09335 34.1968827,81.0743292 L34.1968827,81.9037567 L34.2497872,81.9037567 C34.4261356,84.1470483 34.9022761,87.1400716 36.1337754,89.6135957 L37.7150322,111.060644 C36.267926,111.288156 34.800129,111.353495 33.3386541,111.255456 L30.1056012,104.375045 L30.0967838,104.369141 Z" id="Shape"></path>
                    </g>
                    <path d="M21.4981183,59 C21.4981183,59 7.58565928,60.55112 11.7924503,68.6238634 C14.4618097,73.8747246 16.6019807,79.3583722 18.1837679,85 L25.5456522,83.5267243 C25.5456522,83.5267243 22.6339519,70.3335551 20.0437705,68.779552 L27,67.5369261 L21.4981183,59 Z" id="Shape" fill="#FDA57D"></path>
                    <path d="M19.9276986,68.779552 L27,67.5369261 L21.4063136,59 C21.4063136,59 21.2413442,59.0172987 20.9511202,59.0605456 L26.5050916,67.5369261 L19.4327902,68.779552 C22.0631365,70.330672 25.0264766,83.5267243 25.0264766,83.5267243 L18,84.9077401 L18.0244399,85 L25.509165,83.5267243 C25.509165,83.5267243 22.5580448,70.330672 19.9276986,68.779552 Z" id="Shape" fill="#000000" opacity="0.05"></path>
                    <path d="M22.8046695,81.9645704 C22.8046695,81.9645704 18.5766481,84.9228113 12.1681377,84.6863827 C12.1681377,84.6863827 8.7614929,86.2001024 13.5833873,87.4053116 C18.4052818,88.6105209 26.1935867,87.7599545 26.8022327,86.8286565 C27.4108787,85.8973584 26.5481378,82.7517047 25.1240244,81.4657637 C23.6999109,80.1798228 22.8046695,81.9645704 22.8046695,81.9645704 Z" id="Shape" fill="#C3CED5"></path>
                    <path d="M33.0160904,77.9983587 C33.0160904,77.9983587 32.6915995,83.9848825 34.9570265,88.2809261 L36.5734717,109 L41.7503028,109 C41.7503028,109 41.7503028,98.8713718 44.1779752,93.497754 C46.6056476,88.1241361 42.8830163,82.140463 42.8830163,82.140463 L42.5585254,76 L33.0160904,77.9983587 Z" id="Shape" fill="#FDA57D"></path>
                    <path d="M30.6185316,68.0460174 C30.6185316,68.0460174 28.5969554,79.6612917 31.863245,79.9678532 C35.1295346,80.2744147 44.6136152,78.2874421 44.6136152,78.2874421 C44.6136152,78.2874421 42.2801386,70.7993938 44.6136152,66.9787293 C46.9470918,63.1580647 46.167341,56.7401432 43.524852,52.7661979 C40.882363,48.7922526 37.9279738,52.7661979 37.9279738,52.7661979 L30.6185316,68.0460174 Z" id="Shape" fill="#47E6B1"></path>
                    <circle id="Oval" fill="#FDA57D" cx="36.5" cy="11.5" r="6.5"></circle>
                    <rect id="Rectangle-path" fill="#FDA57D" x="32" y="15" width="8" height="7"></rect>
                    <path d="M40.5870807,108.732132 C40.5870807,108.732132 35.7394437,110.882114 29.4360147,109.229699 C29.4360147,109.229699 25.7199932,110.055906 30.2434539,112.371744 C34.7669146,114.687581 42.6882237,115.513788 43.495663,114.687581 C44.3031022,113.861373 44.141014,110.387618 43.0093984,108.735203 C41.8777828,107.082789 40.5870807,108.732132 40.5870807,108.732132 Z" id="Shape" fill="#C3CED5"></path>
                    <path d="M19.1695782,36 L9.61945564,60.5751557 C9.61945564,60.5751557 2.33587142,62.5149835 6.06032905,66.0733363 C6.06032905,66.0733363 5.41403495,62.6771362 10.5903998,63.6470501 C10.5903998,63.6470501 12.0483191,66.0733363 12.0483191,66.8810974 C12.0483191,67.6888585 13.7136536,64.1785509 13.0433114,62.4609325 C14.7754419,57.3991597 17.5205134,52.742394 21.1114666,48.7740362 C21.1114666,48.7740362 25.1575682,41.6603334 24.9952432,36.8107639 L19.1695782,36 Z" id="Shape" fill="#FDA57D"></path>
                    <path d="M51.6587794,26.7079229 C51.6587794,26.7079229 56.9137655,29.1950476 59.5397335,28.3639539 C61.4001755,27.7760321 63.4253123,24.0299545 64.4500803,21.8998923 C64.921344,20.9107967 65.859358,20.2321013 66.9388026,20.0991895 C68.8937916,19.8621739 71.6295562,19.8867989 70.8701299,22.0722673 C69.7203158,25.3874075 65.9445336,26.3816417 65.9445336,26.3816417 L60.5248528,34 L51,34 L51.6587794,26.7079229 Z" id="Shape" fill="#FDA57D"></path>
                    <circle id="Oval" fill="#3D213C" cx="35.5" cy="11.5" r="6.5"></circle>
                    <ellipse id="Oval" fill="#3D213C" cx="39" cy="6" rx="5" ry="3"></ellipse>
                    <polygon id="Shape" fill="#000000" opacity="0.05" points="33 81.2503458 33 82 43 80.8547718 43 80"></polygon>
                    <path d="M29.2496682,54.0997454 L19,58.2932455 L23.0998673,72 C23.0998673,72 35.3994691,71.3559982 39.9708211,66.515501 C44.5421731,61.6750037 32.4036375,52 32.4036375,52 L29.2496682,54.0997454 Z" id="Shape" fill="#47E6B1"></path>
                    <path d="M42.0467215,63 C42.0982094,63.9949833 41.7233856,64.9653222 41.014389,65.6724891 C37.1909352,69.5938865 27.9558239,70.6826783 25,70.9330422 L25.0205878,71 C25.0205878,71 37.3732846,70.3740902 41.9643702,65.6695779 C42.6399388,64.9977603 43.0131881,64.0846224 42.9996438,63.1368268" id="Shape" fill="#000000" opacity="0.05"></path>
                    <path d="M32.9462687,21.0705582 C32.9462687,21.0705582 22.1791045,19.1252238 18,35.6635781 C18,35.6635781 22.4985075,39.554247 25.3940299,40.3643011 C25.3940299,40.3643011 27,54.957321 24.4298507,55.604762 C24.4298507,55.604762 39.5373134,65.4940475 47.2507463,55.604762 C47.2507463,55.604762 43.8746269,39.7168601 47.2507463,34.6909108 L54,35.1787501 L54,27.3944009 C54,27.3944009 43.8746269,21.7210106 39.0537313,21.0705582 L32.9462687,21.0705582 Z" id="Shape" fill="#C3CED5"></path>
                    <polygon id="Shape" fill="#000000" opacity="0.05" points="19.7380952 59 19 59.1253958 22.5544218 68 23 67.9316023"></polygon>
                    <polygon id="Shape" fill="#000000" opacity="0.05" points="54 28 54.7561837 28.1926877 55 34 54 34"></polygon>
                    <polygon id="Shape" fill="#000000" opacity="0.05" points="19.2166836 36 19 36.5358436 24.8351984 40 25 39.3946416"></polygon>
                    <path d="M25.9400765,55 L25,55.3680187 C25,55.3680187 40.7938802,62.880274 46,56.2968279 L45.8274543,55.7126712 C45.8274543,55.7126712 41.0378241,62.0128013 25.9400765,55 Z" id="Shape" fill="#000000" opacity="0.05"></path>
                    <rect id="Rectangle-path" fill="#B0BEC5" x="4" y="88" width="21" height="2"></rect>
                    <polygon id="Shape" fill="#B0BEC5" points="7 62.8061882 9.59205627 69 14 69 11.4079437 62"></polygon>
                    <polygon id="Shape" fill="#B0BEC5" points="36.1581967 129 41 129 12.360929 69 8 69.3331846"></polygon>
                    <polygon id="Shape" fill="#B0BEC5" points="1 127 3.38896489 127 14 73.8261491 12.4083447 72"></polygon>
                    <polygon id="Shape" fill="#ECEFF1" points="8.34581218 69.8863953 8 69 12.8286802 69 13 69.4412791"></polygon>
                    <polygon id="Shape" fill="#000000" opacity="0.1" points="8.34581218 69.8863953 8 69 12.8286802 69 13 69.4412791"></polygon>
                    <polygon id="Shape" fill="#000000" opacity="0.1" points="11.2624769 75 13 78.1288056 12.7966728 79 11 76.0897736"></polygon>
                    <polygon id="Shape" fill="#000000" opacity="0.1" points="11.3932584 88 11 90 11.6825843 90 12 88"></polygon>
                    <rect id="Rectangle-path" fill="#B0BEC5" x="22" y="101" width="11" height="2"></rect>
                    <rect id="Rectangle-path" fill="#B0BEC5" x="28" y="114" width="11" height="2"></rect>
                    <polygon id="Shape" fill="#000000" opacity="0.1" points="29 101 30.3070326 103 31 103 30.0017153 101"></polygon>
                    <polygon id="Shape" fill="#000000" opacity="0.1" points="34 114 34.5313808 116 35 116 34.5 114"></polygon>
                    <polygon id="Shape" fill="#000000" opacity="0.1" points="22 88 23.2988506 90 24 90 22.6283525 88"></polygon>
                </g>
            </g>
        </g>
    </g>
</svg>