<?xml version="1.0" encoding="UTF-8"?>
<svg width="404px" height="45px" viewBox="0 0 404 45" version="1.1" xmlns="http://www.w3.org/2000/svg" xmlns:xlink="http://www.w3.org/1999/xlink">
    <!-- Generator: Sketch 51.3 (57544) - http://www.bohemiancoding.com/sketch -->
    <title>securebar</title>
    <desc>Created with Sketch.</desc>
    <defs></defs>
    <g id="Page-1" stroke="none" stroke-width="1" fill="none" fill-rule="evenodd">
        <g id="001" transform="translate(-99.000000, -427.000000)">
            <g id="Group-4" transform="translate(99.000000, 427.000000)">
                <g id="securebar">
                    <rect id="Rectangle-2" fill="#F2F2F2" x="0" y="0" width="404" height="45"></rect>
                    <g id="rotate-cw" transform="translate(51.000000, 13.000000)" stroke="#72777D" stroke-linecap="round" stroke-linejoin="round" stroke-width="2">
                        <polyline id="Shape" points="20 1 20 7 14 7"></polyline>
                        <path d="M17.49,12 C16.1546218,15.7797845 12.4803151,18.2207055 8.4784162,17.9865893 C4.47651725,17.752473 1.11189474,14.8997654 0.226361989,10.9900548 C-0.659170766,7.08034411 1.14789059,3.05627226 4.6583505,1.1206388 C8.1688104,-0.814994661 12.5362874,-0.195503228 15.37,2.64 L20,7" id="Shape"></path>
                    </g>
                    <g id="url" transform="translate(88.000000, 7.000000)">
                        <rect id="Rectangle-3" stroke="#BBBBBB" fill="#FFFFFF" x="0.5" y="0.5" width="297" height="30" rx="4"></rect>
                        <g id="Group-2" transform="translate(10.000000, 3.000000)">
                            <path d="M25.0185547,19.140625 C24.327145,19.140625 23.6767609,19.0146497 23.0673828,18.7626953 C22.4580048,18.5107409 21.9438498,18.1357447 21.5249023,17.6376953 C21.1059549,17.1396459 20.8408209,16.5332067 20.7294922,15.8183594 L22.0302734,15.4316406 C22.0888675,15.9707058 22.2587877,16.4262677 22.5400391,16.7983398 C22.8212905,17.170412 23.1787088,17.4472647 23.6123047,17.6289062 C24.0459006,17.8105478 24.5175756,17.9013672 25.0273438,17.9013672 C25.7949257,17.9013672 26.4057594,17.7124042 26.8598633,17.3344727 C27.3139671,16.9565411 27.5410156,16.4043005 27.5410156,15.6777344 C27.5410156,15.1972632 27.4150403,14.7915056 27.1630859,14.4604492 C26.9111316,14.1293929 26.6005878,13.8569347 26.2314453,13.6430664 C25.8623028,13.4291981 25.3613313,13.1845717 24.7285156,12.9091797 C24.0312465,12.6044907 23.4731466,12.327638 23.0541992,12.0786133 C22.6352518,11.8295886 22.2807632,11.4970724 21.9907227,11.0810547 C21.7006821,10.665037 21.5556641,10.1523468 21.5556641,9.54296875 C21.5556641,8.92187189 21.7065415,8.37256098 22.0083008,7.89501953 C22.3100601,7.41747808 22.7172826,7.04834115 23.2299805,6.78759766 C23.7426783,6.52685417 24.3066375,6.39648438 24.921875,6.39648438 C25.6660193,6.39648438 26.3310518,6.55761558 26.9169922,6.87988281 C27.5029326,7.20215005 27.9863262,7.68554365 28.3671875,8.33007812 L27.3212891,9.03320312 C27.0810535,8.55859138 26.7470725,8.20117308 26.3193359,7.9609375 C25.8915994,7.72070192 25.4199245,7.60058594 24.9042969,7.60058594 C24.5527326,7.60058594 24.2246109,7.67529222 23.9199219,7.82470703 C23.6152329,7.97412184 23.3706064,8.18652206 23.1860352,8.46191406 C23.0014639,8.73730606 22.9091797,9.05663881 22.9091797,9.41992188 C22.9091797,9.81250196 23.0234364,10.1523423 23.2519531,10.4394531 C23.4804699,10.7265639 23.7646467,10.9682607 24.1044922,11.1645508 C24.4443376,11.3608408 24.9072236,11.590819 25.4931641,11.8544922 C26.2255896,12.1826188 26.8173806,12.4843736 27.2685547,12.7597656 C27.7197288,13.0351576 28.103514,13.4028297 28.4199219,13.862793 C28.7363297,14.3227562 28.8945312,14.8925747 28.8945312,15.5722656 C28.8945312,16.2812535 28.7260759,16.9067356 28.3891602,17.4487305 C28.0522444,17.9907254 27.5893584,18.4082017 27.0004883,18.7011719 C26.4116181,18.9941421 25.7509802,19.140625 25.0185547,19.140625 Z M34.5107422,19.1230469 C33.6552692,19.1230469 32.9301788,18.9223653 32.3354492,18.5209961 C31.7407197,18.1196269 31.2954116,17.5805698 30.9995117,16.9038086 C30.7036118,16.2270474 30.5556641,15.4785197 30.5556641,14.6582031 C30.5556641,13.8496053 30.7006821,13.098148 30.9907227,12.4038086 C31.2807632,11.7094692 31.7128878,11.1513693 32.2871094,10.7294922 C32.861331,10.3076151 33.55566,10.0966797 34.3701172,10.0966797 C35.266606,10.0966797 35.9916965,10.3032206 36.5454102,10.7163086 C37.0991239,11.1293966 37.4960925,11.6581999 37.7363281,12.3027344 C37.9765637,12.9472688 38.0966797,13.6386682 38.0966797,14.3769531 C38.0966797,14.5644541 38.0820314,14.7900377 38.0527344,15.0537109 L31.9355469,15.0537109 C31.9296875,15.5869167 32.0249014,16.0747048 32.2211914,16.5170898 C32.4174815,16.9594749 32.7089824,17.3124987 33.0957031,17.5761719 C33.4824238,17.8398451 33.9511691,17.9716797 34.5019531,17.9716797 C35.0351589,17.9716797 35.4980449,17.9028327 35.890625,17.7651367 C36.2832051,17.6274407 36.643553,17.3828143 36.9716797,17.03125 L37.8681641,17.7519531 C37.3935523,18.2324243 36.8911159,18.5810536 36.3608398,18.7978516 C35.8305638,19.0146495 35.2138707,19.1230469 34.5107422,19.1230469 Z M36.8398438,13.9814453 C36.8222655,13.1845663 36.6142598,12.5180691 36.2158203,11.9819336 C35.8173808,11.4457981 35.2021526,11.1777344 34.3701172,11.1777344 C33.8544896,11.1777344 33.4179705,11.3037097 33.0605469,11.5556641 C32.7031232,11.8076184 32.4321298,12.1445291 32.2475586,12.5664062 C32.0629874,12.9882834 31.9589845,13.4599583 31.9355469,13.9814453 L36.8398438,13.9814453 Z M43.5019531,19.1757812 C42.6933553,19.1757812 42.0004912,18.9677755 41.4233398,18.5517578 C40.8461885,18.1357401 40.4125991,17.5805699 40.1225586,16.8862305 C39.8325181,16.1918911 39.6875,15.4375041 39.6875,14.6230469 C39.6875,13.8144491 39.8325181,13.0600621 40.1225586,12.3598633 C40.4125991,11.6596645 40.8432589,11.0971701 41.4145508,10.6723633 C41.9858427,10.2475565 42.6757772,10.0351562 43.484375,10.0351562 C44.2695352,10.0351562 44.9580049,10.2416972 45.5498047,10.6547852 C46.1416045,11.0678732 46.5927719,11.6406213 46.9033203,12.3730469 L45.6640625,12.9003906 C45.5351556,12.3671848 45.2714864,11.9409196 44.8730469,11.621582 C44.4746074,11.3022445 44.0117214,11.1425781 43.484375,11.1425781 C42.9160128,11.1425781 42.4472675,11.3139631 42.078125,11.6567383 C41.7089825,11.9995134 41.4423836,12.4360325 41.2783203,12.9663086 C41.114257,13.4965847 41.0322266,14.0488253 41.0322266,14.6230469 C41.0322266,15.2089873 41.1127922,15.7626927 41.2739258,16.2841797 C41.4350594,16.8056667 41.7001935,17.2333968 42.0693359,17.5673828 C42.4384784,17.9013689 42.9101534,18.0683594 43.484375,18.0683594 C44.0175808,18.0683594 44.4804668,17.9130875 44.8730469,17.6025391 C45.265627,17.2919906 45.5292962,16.8759792 45.6640625,16.3544922 L46.8066406,16.8466797 C46.5429674,17.5791052 46.1240263,18.1503886 45.5498047,18.5605469 C44.9755831,18.9707052 44.2929727,19.1757812 43.5019531,19.1757812 Z M51.7109375,19.1933594 C50.6855417,19.1933594 49.9267603,18.8403356 49.4345703,18.1342773 C48.9423804,17.4282191 48.6962891,16.4892637 48.6962891,15.3173828 L48.6962891,10.2197266 L50.0058594,10.2197266 L50.0058594,15.4052734 C50.0058594,16.166996 50.1435533,16.8041967 50.4189453,17.3168945 C50.6943373,17.8295924 51.1718716,18.0859375 51.8515625,18.0859375 C52.3144554,18.0859375 52.74658,17.9541029 53.1479492,17.6904297 C53.5493184,17.4267565 53.870116,17.0664085 54.1103516,16.609375 C54.3505871,16.1523415 54.4707031,15.6425809 54.4707031,15.0800781 L54.4707031,10.2197266 L55.7714844,10.2197266 L55.7714844,19 L54.4707031,19 L54.4707031,17.5146484 C54.3476556,17.784181 54.1542982,18.0478503 53.890625,18.3056641 C53.6269518,18.5634779 53.3061542,18.7758781 52.9282227,18.9428711 C52.5502911,19.1098641 52.1445334,19.1933594 51.7109375,19.1933594 Z M58.7333984,10.2197266 L60.0429688,10.2197266 L60.0429688,11.7753906 C60.2714855,11.2421848 60.6215797,10.8188492 61.0932617,10.5053711 C61.5649438,10.191893 62.0790988,10.0351562 62.6357422,10.0351562 C62.922853,10.0351562 63.1865222,10.0761715 63.4267578,10.1582031 C63.6669934,10.2402348 63.8749991,10.3515618 64.0507812,10.4921875 L63.4970703,11.6259766 C63.2333971,11.4033192 62.8759788,11.2919922 62.4248047,11.2919922 C61.9267553,11.2919922 61.4975604,11.422362 61.137207,11.6831055 C60.7768537,11.943849 60.5014658,12.3232397 60.3110352,12.8212891 C60.1206045,13.3193384 60.0253906,13.9169887 60.0253906,14.6142578 L60.0253906,19 L58.7333984,19 L58.7333984,10.2197266 Z M68.9990234,19.1230469 C68.1435504,19.1230469 67.41846,18.9223653 66.8237305,18.5209961 C66.2290009,18.1196269 65.7836929,17.5805698 65.487793,16.9038086 C65.1918931,16.2270474 65.0439453,15.4785197 65.0439453,14.6582031 C65.0439453,13.8496053 65.1889634,13.098148 65.4790039,12.4038086 C65.7690444,11.7094692 66.201169,11.1513693 66.7753906,10.7294922 C67.3496122,10.3076151 68.0439412,10.0966797 68.8583984,10.0966797 C69.7548873,10.0966797 70.4799777,10.3032206 71.0336914,10.7163086 C71.5874051,11.1293966 71.9843738,11.6581999 72.2246094,12.3027344 C72.464845,12.9472688 72.5849609,13.6386682 72.5849609,14.3769531 C72.5849609,14.5644541 72.5703126,14.7900377 72.5410156,15.0537109 L66.4238281,15.0537109 C66.4179687,15.5869167 66.5131826,16.0747048 66.7094727,16.5170898 C66.9057627,16.9594749 67.1972637,17.3124987 67.5839844,17.5761719 C67.9707051,17.8398451 68.4394504,17.9716797 68.9902344,17.9716797 C69.5234402,17.9716797 69.9863262,17.9028327 70.3789062,17.7651367 C70.7714863,17.6274407 71.1318343,17.3828143 71.4599609,17.03125 L72.3564453,17.7519531 C71.8818336,18.2324243 71.3793972,18.5810536 70.8491211,18.7978516 C70.318845,19.0146495 69.702152,19.1230469 68.9990234,19.1230469 Z M71.328125,13.9814453 C71.3105468,13.1845663 71.1025411,12.5180691 70.7041016,11.9819336 C70.3056621,11.4457981 69.6904338,11.1777344 68.8583984,11.1777344 C68.3427709,11.1777344 67.9062518,11.3037097 67.5488281,11.5556641 C67.1914045,11.8076184 66.9204111,12.1445291 66.7358398,12.5664062 C66.5512686,12.9882834 66.4472657,13.4599583 66.4238281,13.9814453 L71.328125,13.9814453 Z" id="Secure" fill="#3B8039"></path>
                            <g id="lock" transform="translate(0.000000, 4.000000)" stroke="#3B8039" stroke-linecap="round" stroke-linejoin="round" stroke-width="2">
                                <rect id="Rectangle-path" fill="#3B8039" x="0" y="6.73684211" width="11.7894737" height="9.26315789" rx="2"></rect>
                                <path d="M1.68421053,7.57894737 L1.68421053,4.21052632 C1.68421053,1.88511684 3.56932737,1.26214828e-15 5.89473684,8.8817842e-16 C8.22014632,1.40238698e-16 10.1052632,1.88511684 10.1052632,4.21052632 L10.1052632,7.57894737" id="Shape"></path>
                            </g>
                            <path d="M82.5,0.5 L82.5,23.5" id="Line" stroke="#9B9B9B" stroke-linecap="square"></path>
                        </g>
                        <path d="M103.494141,8.58105469 L104.794922,8.58105469 L104.794922,13.6611328 C105.087892,13.1806617 105.495115,12.7939468 106.016602,12.5009766 C106.538089,12.2080063 107.083005,12.0615234 107.651367,12.0615234 C108.319339,12.0615234 108.87451,12.219725 109.316895,12.5361328 C109.75928,12.8525406 110.084472,13.2758763 110.29248,13.8061523 C110.500489,14.3364284 110.604492,14.9296842 110.604492,15.5859375 L110.604492,21 L109.277344,21 L109.277344,15.796875 C109.277344,15.0820277 109.138185,14.4858422 108.859863,14.0083008 C108.581542,13.5307593 108.099613,13.2919922 107.414062,13.2919922 C106.916013,13.2919922 106.466311,13.4252916 106.064941,13.6918945 C105.663572,13.9584974 105.351564,14.3188454 105.128906,14.7729492 C104.906249,15.2270531 104.794922,15.7236301 104.794922,16.2626953 L104.794922,21 L103.494141,21 L103.494141,8.58105469 Z M115.798828,21.1757812 C114.380852,21.1757812 113.671875,20.3408287 113.671875,18.6708984 L113.671875,13.2919922 L112.265625,13.2919922 L112.265625,12.2197266 L113.680664,12.2197266 L113.680664,10.2421875 L114.981445,9.01171875 L114.981445,12.2197266 L117.205078,12.2197266 L117.205078,13.2919922 L114.981445,13.2919922 L114.981445,18.6796875 C114.981445,19.1425804 115.083983,19.4941394 115.289062,19.734375 C115.494142,19.9746106 115.76367,20.0947266 116.097656,20.0947266 C116.378908,20.0947266 116.671873,20.0214851 116.976562,19.875 L116.976562,21 C116.865234,21.0468752 116.702638,21.0878904 116.48877,21.1230469 C116.274901,21.1582033 116.044923,21.1757812 115.798828,21.1757812 Z M121.713867,21.1757812 C120.295891,21.1757812 119.586914,20.3408287 119.586914,18.6708984 L119.586914,13.2919922 L118.180664,13.2919922 L118.180664,12.2197266 L119.595703,12.2197266 L119.595703,10.2421875 L120.896484,9.01171875 L120.896484,12.2197266 L123.120117,12.2197266 L123.120117,13.2919922 L120.896484,13.2919922 L120.896484,18.6796875 C120.896484,19.1425804 120.999022,19.4941394 121.204102,19.734375 C121.409181,19.9746106 121.678709,20.0947266 122.012695,20.0947266 C122.293947,20.0947266 122.586913,20.0214851 122.891602,19.875 L122.891602,21 C122.780273,21.0468752 122.617677,21.0878904 122.403809,21.1230469 C122.18994,21.1582033 121.959962,21.1757812 121.713867,21.1757812 Z M125.203125,12.2197266 L126.521484,12.2197266 L126.521484,13.4150391 C126.814455,12.9814431 127.190916,12.6430676 127.650879,12.3999023 C128.110842,12.1567371 128.627927,12.0351562 129.202148,12.0351562 C129.963871,12.0351562 130.614255,12.2373027 131.15332,12.6416016 C131.692386,13.0459005 132.099608,13.5937465 132.375,14.2851562 C132.650392,14.976566 132.788086,15.7499957 132.788086,16.6054688 C132.788086,17.4550824 132.650392,18.2255825 132.375,18.9169922 C132.099608,19.6084019 131.69385,20.1577128 131.157715,20.5649414 C130.621579,20.97217 129.97266,21.1757812 129.210938,21.1757812 C128.642575,21.1757812 128.126955,21.0571301 127.664062,20.8198242 C127.20117,20.5825183 126.820314,20.2441428 126.521484,19.8046875 L126.521484,24.8496094 L125.203125,24.8496094 L125.203125,12.2197266 Z M128.929688,20.0683594 C129.49219,20.0683594 129.963865,19.908693 130.344727,19.5893555 C130.725588,19.2700179 131.0083,18.8481472 131.192871,18.3237305 C131.377442,17.7993138 131.469727,17.2265656 131.469727,16.6054688 C131.469727,15.9843719 131.377442,15.4116237 131.192871,14.887207 C131.0083,14.3627903 130.725588,13.9409196 130.344727,13.621582 C129.963865,13.3022445 129.49219,13.1425781 128.929688,13.1425781 C128.361325,13.1425781 127.888185,13.3022445 127.510254,13.621582 C127.132322,13.9409196 126.85254,14.3627903 126.670898,14.887207 C126.489257,15.4116237 126.398438,15.9843719 126.398438,16.6054688 C126.398438,17.232425 126.489257,17.8081028 126.670898,18.3325195 C126.85254,18.8569362 127.132322,19.2773422 127.510254,19.59375 C127.888185,19.9101578 128.361325,20.0683594 128.929688,20.0683594 Z M137.542969,21.1757812 C137.009763,21.1757812 136.519045,21.0776377 136.070801,20.8813477 C135.622556,20.6850576 135.24463,20.4228532 134.937012,20.0947266 C134.629393,19.7665999 134.405274,19.4033223 134.264648,19.0048828 L135.37207,18.4335938 C135.536134,18.9316431 135.802733,19.3344711 136.171875,19.6420898 C136.541017,19.9497086 137.003903,20.1035156 137.560547,20.1035156 C138.076174,20.1035156 138.492186,19.9775403 138.808594,19.7255859 C139.125002,19.4736316 139.283203,19.1162133 139.283203,18.6533203 C139.283203,18.3076155 139.187989,18.0234386 138.997559,17.8007812 C138.807128,17.5781239 138.572755,17.4052741 138.294434,17.2822266 C138.016112,17.1591791 137.633791,17.0185555 137.147461,16.8603516 C136.596677,16.6845694 136.154299,16.5161141 135.820312,16.3549805 C135.486326,16.1938469 135.20215,15.960939 134.967773,15.65625 C134.733397,15.351561 134.616211,14.9560571 134.616211,14.4697266 C134.616211,13.9599584 134.742186,13.5219745 134.994141,13.1557617 C135.246095,12.789549 135.583006,12.5112314 136.004883,12.3208008 C136.42676,12.1303701 136.892576,12.0351562 137.402344,12.0351562 C138.058597,12.0351562 138.634275,12.191893 139.129395,12.5053711 C139.624514,12.8188492 140.009764,13.2451145 140.285156,13.7841797 L139.318359,14.3378906 C139.124999,13.9453105 138.864259,13.6406261 138.536133,13.4238281 C138.208006,13.2070302 137.815432,13.0986328 137.358398,13.0986328 C136.889646,13.0986328 136.516115,13.2099598 136.237793,13.4326172 C135.959471,13.6552746 135.820312,13.9482404 135.820312,14.3115234 C135.820312,14.5927748 135.905273,14.8242178 136.075195,15.0058594 C136.245118,15.1875009 136.458983,15.3339838 136.716797,15.4453125 C136.974611,15.5566412 137.329099,15.6826165 137.780273,15.8232422 C138.366214,16.0048837 138.845213,16.1835929 139.217285,16.359375 C139.589357,16.5351571 139.90576,16.7958967 140.166504,17.1416016 C140.427247,17.4873064 140.557617,17.9384738 140.557617,18.4951172 C140.557617,19.0693388 140.416994,19.5585917 140.135742,19.9628906 C139.854491,20.3671895 139.483889,20.6704091 139.023926,20.8725586 C138.563963,21.074708 138.070315,21.1757812 137.542969,21.1757812 Z" id="https" fill="#3B8039"></path>
                        <path d="M168.623047,21.1757812 C167.814449,21.1757812 167.121585,20.9677755 166.544434,20.5517578 C165.967282,20.1357401 165.533693,19.5805699 165.243652,18.8862305 C164.953612,18.1918911 164.808594,17.4375041 164.808594,16.6230469 C164.808594,15.8144491 164.953612,15.0600621 165.243652,14.3598633 C165.533693,13.6596645 165.964353,13.0971701 166.535645,12.6723633 C167.106936,12.2475565 167.796871,12.0351562 168.605469,12.0351562 C169.390629,12.0351562 170.079099,12.2416972 170.670898,12.6547852 C171.262698,13.0678732 171.713866,13.6406213 172.024414,14.3730469 L170.785156,14.9003906 C170.656249,14.3671848 170.39258,13.9409196 169.994141,13.621582 C169.595701,13.3022445 169.132815,13.1425781 168.605469,13.1425781 C168.037107,13.1425781 167.568361,13.3139631 167.199219,13.6567383 C166.830076,13.9995134 166.563477,14.4360325 166.399414,14.9663086 C166.235351,15.4965847 166.15332,16.0488253 166.15332,16.6230469 C166.15332,17.2089873 166.233886,17.7626927 166.39502,18.2841797 C166.556153,18.8056667 166.821287,19.2333968 167.19043,19.5673828 C167.559572,19.9013689 168.031247,20.0683594 168.605469,20.0683594 C169.138675,20.0683594 169.601561,19.9130875 169.994141,19.6025391 C170.386721,19.2919906 170.65039,18.8759792 170.785156,18.3544922 L171.927734,18.8466797 C171.664061,19.5791052 171.24512,20.1503886 170.670898,20.5605469 C170.096677,20.9707052 169.414066,21.1757812 168.623047,21.1757812 Z M176.084961,21.1757812 C175.534177,21.1757812 175.043459,21.0717784 174.612793,20.8637695 C174.182127,20.6557607 173.845216,20.3540059 173.602051,19.9584961 C173.358886,19.5629863 173.237305,19.0957058 173.237305,18.5566406 C173.237305,17.6894488 173.565426,17.0434592 174.22168,16.6186523 C174.877933,16.1938455 175.838861,15.9814453 177.104492,15.9814453 L179.108398,15.9814453 C179.108398,14.1122953 178.390632,13.1777344 176.955078,13.1777344 C176.386716,13.1777344 175.903322,13.3051745 175.504883,13.5600586 C175.106443,13.8149427 174.778322,14.1298809 174.520508,14.5048828 L173.5625,13.7578125 C174.394535,12.6093693 175.499017,12.0351562 176.875977,12.0351562 C177.608402,12.0351562 178.232419,12.183104 178.748047,12.4790039 C179.263674,12.7749038 179.653319,13.1923801 179.916992,13.7314453 C180.180665,14.2705105 180.3125,14.8974574 180.3125,15.6123047 L180.3125,21 L179.196289,21 L179.169922,19.3037109 C178.865233,19.9365266 178.440432,20.4067367 177.895508,20.7143555 C177.350583,21.0219742 176.747074,21.1757812 176.084961,21.1757812 Z M176.234375,20.0683594 C176.802737,20.0683594 177.306638,19.9145523 177.746094,19.6069336 C178.185549,19.2993149 178.52246,18.9052758 178.756836,18.4248047 C178.991212,17.9443335 179.108398,17.4609399 179.108398,16.9746094 L177.227539,16.9746094 C176.33691,16.9746094 175.674807,17.1005847 175.241211,17.3525391 C174.807615,17.6044934 174.59082,18.0175753 174.59082,18.5917969 C174.59082,19.0898462 174.741698,19.460448 175.043457,19.7036133 C175.345216,19.9467786 175.742185,20.0683594 176.234375,20.0683594 Z M185.489258,21.1757812 C184.071282,21.1757812 183.362305,20.3408287 183.362305,18.6708984 L183.362305,13.2919922 L181.956055,13.2919922 L181.956055,12.2197266 L183.371094,12.2197266 L183.371094,10.2421875 L184.671875,9.01171875 L184.671875,12.2197266 L186.895508,12.2197266 L186.895508,13.2919922 L184.671875,13.2919922 L184.671875,18.6796875 C184.671875,19.1425804 184.774413,19.4941394 184.979492,19.734375 C185.184571,19.9746106 185.4541,20.0947266 185.788086,20.0947266 C186.069337,20.0947266 186.362303,20.0214851 186.666992,19.875 L186.666992,21 C186.555664,21.0468752 186.393067,21.0878904 186.179199,21.1230469 C185.965331,21.1582033 185.735353,21.1757812 185.489258,21.1757812 Z M189.523438,19.2949219 L191.263672,19.2949219 L191.263672,21 L189.523438,21 L189.523438,19.2949219 Z M196.510742,20.0332031 C196.756837,20.0332031 197.041014,20.0039065 197.363281,19.9453125 L197.363281,21 C197.205077,21.0468752 197.020509,21.0878904 196.80957,21.1230469 C196.598632,21.1582033 196.387696,21.1757812 196.176758,21.1757812 C195.76074,21.1757812 195.448732,21.0908212 195.240723,20.9208984 C195.032714,20.7509757 194.899414,20.5312513 194.84082,20.2617188 C194.782226,19.9921862 194.75293,19.6464865 194.75293,19.2246094 L194.75293,8.58105469 L196.080078,8.58105469 L196.080078,19.5322266 C196.080078,19.6142582 196.11084,19.7182611 196.172363,19.8442383 C196.233887,19.9702155 196.346679,20.0332031 196.510742,20.0332031 Z M202.750977,21.1757812 C201.948238,21.1757812 201.231937,20.9692403 200.602051,20.5561523 C199.972165,20.1430643 199.482912,19.5864293 199.134277,18.8862305 C198.785643,18.1860317 198.611328,17.419926 198.611328,16.5878906 C198.611328,15.7558552 198.785643,14.9926793 199.134277,14.2983398 C199.482912,13.6040004 199.9707,13.0532247 200.597656,12.6459961 C201.224613,12.2387675 201.942379,12.0351562 202.750977,12.0351562 C203.553715,12.0351562 204.272946,12.2387675 204.908691,12.6459961 C205.544437,13.0532247 206.041014,13.6054653 206.398438,14.3027344 C206.755861,15.0000035 206.93457,15.7617146 206.93457,16.5878906 C206.93457,17.419926 206.755861,18.1860317 206.398438,18.8862305 C206.041014,19.5864293 205.544437,20.1430643 204.908691,20.5561523 C204.272946,20.9692403 203.553715,21.1757812 202.750977,21.1757812 Z M202.759766,20.0859375 C203.386722,20.0859375 203.91406,19.9204118 204.341797,19.5893555 C204.769533,19.2582991 205.087401,18.8276394 205.29541,18.2973633 C205.503419,17.7670872 205.607422,17.1972687 205.607422,16.5878906 C205.607422,15.9726532 205.503419,15.4028347 205.29541,14.878418 C205.087401,14.3540013 204.770998,13.9306657 204.346191,13.6083984 C203.921385,13.2861312 203.398441,13.125 202.777344,13.125 C202.156247,13.125 201.631838,13.2861312 201.204102,13.6083984 C200.776365,13.9306657 200.457032,14.3554661 200.246094,14.8828125 C200.035155,15.4101589 199.929688,15.9785126 199.929688,16.5878906 C199.929688,17.2031281 200.035155,17.7773411 200.246094,18.3105469 C200.457032,18.8437527 200.7749,19.2729476 201.199707,19.5981445 C201.624514,19.9233415 202.144528,20.0859375 202.759766,20.0859375 Z M212.313477,21.1757812 C211.504879,21.1757812 210.812015,20.9677755 210.234863,20.5517578 C209.657712,20.1357401 209.224123,19.5805699 208.934082,18.8862305 C208.644042,18.1918911 208.499023,17.4375041 208.499023,16.6230469 C208.499023,15.8144491 208.644042,15.0600621 208.934082,14.3598633 C209.224123,13.6596645 209.654782,13.0971701 210.226074,12.6723633 C210.797366,12.2475565 211.487301,12.0351562 212.295898,12.0351562 C213.081059,12.0351562 213.769528,12.2416972 214.361328,12.6547852 C214.953128,13.0678732 215.404295,13.6406213 215.714844,14.3730469 L214.475586,14.9003906 C214.346679,14.3671848 214.08301,13.9409196 213.68457,13.621582 C213.286131,13.3022445 212.823245,13.1425781 212.295898,13.1425781 C211.727536,13.1425781 211.258791,13.3139631 210.889648,13.6567383 C210.520506,13.9995134 210.253907,14.4360325 210.089844,14.9663086 C209.92578,15.4965847 209.84375,16.0488253 209.84375,16.6230469 C209.84375,17.2089873 209.924316,17.7626927 210.085449,18.2841797 C210.246583,18.8056667 210.511717,19.2333968 210.880859,19.5673828 C211.250002,19.9013689 211.721677,20.0683594 212.295898,20.0683594 C212.829104,20.0683594 213.29199,19.9130875 213.68457,19.6025391 C214.07715,19.2919906 214.34082,18.8759792 214.475586,18.3544922 L215.618164,18.8466797 C215.354491,19.5791052 214.93555,20.1503886 214.361328,20.5605469 C213.787107,20.9707052 213.104496,21.1757812 212.313477,21.1757812 Z M219.775391,21.1757812 C219.224607,21.1757812 218.733889,21.0717784 218.303223,20.8637695 C217.872556,20.6557607 217.535646,20.3540059 217.29248,19.9584961 C217.049315,19.5629863 216.927734,19.0957058 216.927734,18.5566406 C216.927734,17.6894488 217.255856,17.0434592 217.912109,16.6186523 C218.568363,16.1938455 219.529291,15.9814453 220.794922,15.9814453 L222.798828,15.9814453 C222.798828,14.1122953 222.081062,13.1777344 220.645508,13.1777344 C220.077146,13.1777344 219.593752,13.3051745 219.195312,13.5600586 C218.796873,13.8149427 218.468751,14.1298809 218.210938,14.5048828 L217.25293,13.7578125 C218.084965,12.6093693 219.189446,12.0351562 220.566406,12.0351562 C221.298832,12.0351562 221.922849,12.183104 222.438477,12.4790039 C222.954104,12.7749038 223.343749,13.1923801 223.607422,13.7314453 C223.871095,14.2705105 224.00293,14.8974574 224.00293,15.6123047 L224.00293,21 L222.886719,21 L222.860352,19.3037109 C222.555663,19.9365266 222.130862,20.4067367 221.585938,20.7143555 C221.041013,21.0219742 220.437503,21.1757812 219.775391,21.1757812 Z M219.924805,20.0683594 C220.493167,20.0683594 220.997068,19.9145523 221.436523,19.6069336 C221.875979,19.2993149 222.212889,18.9052758 222.447266,18.4248047 C222.681642,17.9443335 222.798828,17.4609399 222.798828,16.9746094 L220.917969,16.9746094 C220.027339,16.9746094 219.365237,17.1005847 218.931641,17.3525391 C218.498045,17.6044934 218.28125,18.0175753 218.28125,18.5917969 C218.28125,19.0898462 218.432127,19.460448 218.733887,19.7036133 C219.035646,19.9467786 219.432615,20.0683594 219.924805,20.0683594 Z M228.467773,20.0332031 C228.713868,20.0332031 228.998045,20.0039065 229.320312,19.9453125 L229.320312,21 C229.162109,21.0468752 228.97754,21.0878904 228.766602,21.1230469 C228.555663,21.1582033 228.344728,21.1757812 228.133789,21.1757812 C227.717771,21.1757812 227.405763,21.0908212 227.197754,20.9208984 C226.989745,20.7509757 226.856446,20.5312513 226.797852,20.2617188 C226.739258,19.9921862 226.709961,19.6464865 226.709961,19.2246094 L226.709961,8.58105469 L228.037109,8.58105469 L228.037109,19.5322266 C228.037109,19.6142582 228.067871,19.7182611 228.129395,19.8442383 C228.190918,19.9702155 228.30371,20.0332031 228.467773,20.0332031 Z" id="cat.local" fill="#4A4A4A"></path>
                        <path d="M143.091797,11.6152344 L144.805664,11.6152344 L144.805664,13.3115234 L143.091797,13.3115234 L143.091797,11.6152344 Z M143.091797,18.2949219 L144.805664,18.2949219 L144.805664,20 L143.091797,20 L143.091797,18.2949219 Z M153.621094,6.67578125 L154.957031,6.67578125 L148.338867,23.7792969 L146.994141,23.7792969 L153.621094,6.67578125 Z M161.768555,6.67578125 L163.104492,6.67578125 L156.486328,23.7792969 L155.141602,23.7792969 L161.768555,6.67578125 Z" id="://" fill="#9B9B9B"></path>
                    </g>
                    <g id="arrow-right" transform="translate(12.000000, 15.000000)" stroke="#D8D9DB" stroke-linecap="round" stroke-linejoin="round" stroke-width="2">
                        <path d="M0,8 L20,8" id="Shape"></path>
                        <polyline id="Shape" points="13 0 21 7.5 13 15"></polyline>
                    </g>
                </g>
            </g>
        </g>
    </g>
</svg>