<?xml version="1.0" encoding="UTF-8"?>
<svg width="404px" height="45px" viewBox="0 0 404 45" version="1.1" xmlns="http://www.w3.org/2000/svg" xmlns:xlink="http://www.w3.org/1999/xlink">
    <!-- Generator: Sketch 51.3 (57544) - http://www.bohemiancoding.com/sketch -->
    <title>securebar</title>
    <desc>Created with Sketch.</desc>
    <defs></defs>
    <g id="app" stroke="none" stroke-width="1" fill="none" fill-rule="evenodd">
        <g id="001" transform="translate(-99.000000, -427.000000)">
            <g id="Group-4" transform="translate(99.000000, 427.000000)">
                <g id="securebar">
                    <rect id="Rectangle-2" fill="#F2F2F2" x="0" y="0" width="404" height="45"></rect>
                    <g id="rotate-cw" transform="translate(51.000000, 13.000000)" stroke="#72777D" stroke-linecap="round" stroke-linejoin="round" stroke-width="2">
                        <polyline id="Shape" points="20 1 20 7 14 7"></polyline>
                        <path d="M17.49,12 C16.1546218,15.7797845 12.4803151,18.2207055 8.4784162,17.9865893 C4.47651725,17.752473 1.11189474,14.8997654 0.226361989,10.9900548 C-0.659170766,7.08034411 1.14789059,3.05627226 4.6583505,1.1206388 C8.1688104,-0.814994661 12.5362874,-0.195503228 15.37,2.64 L20,7" id="Shape"></path>
                    </g>
                    <g id="url" transform="translate(88.000000, 7.000000)">
                        <rect id="Rectangle-3" stroke="#BBBBBB" fill="#FFFFFF" x="0.5" y="0.5" width="297" height="30" rx="4"></rect>
                        <g id="Group-2" transform="translate(10.000000, 3.000000)">
                            <path d="M25.0185547,19.140625 C24.327145,19.140625 23.6767609,19.0146497 23.0673828,18.7626953 C22.4580048,18.5107409 21.9438498,18.1357447 21.5249023,17.6376953 C21.1059549,17.1396459 20.8408209,16.5332067 20.7294922,15.8183594 L22.0302734,15.4316406 C22.0888675,15.9707058 22.2587877,16.4262677 22.5400391,16.7983398 C22.8212905,17.170412 23.1787088,17.4472647 23.6123047,17.6289062 C24.0459006,17.8105478 24.5175756,17.9013672 25.0273438,17.9013672 C25.7949257,17.9013672 26.4057594,17.7124042 26.8598633,17.3344727 C27.3139671,16.9565411 27.5410156,16.4043005 27.5410156,15.6777344 C27.5410156,15.1972632 27.4150403,14.7915056 27.1630859,14.4604492 C26.9111316,14.1293929 26.6005878,13.8569347 26.2314453,13.6430664 C25.8623028,13.4291981 25.3613313,13.1845717 24.7285156,12.9091797 C24.0312465,12.6044907 23.4731466,12.327638 23.0541992,12.0786133 C22.6352518,11.8295886 22.2807632,11.4970724 21.9907227,11.0810547 C21.7006821,10.665037 21.5556641,10.1523468 21.5556641,9.54296875 C21.5556641,8.92187189 21.7065415,8.37256098 22.0083008,7.89501953 C22.3100601,7.41747808 22.7172826,7.04834115 23.2299805,6.78759766 C23.7426783,6.52685417 24.3066375,6.39648438 24.921875,6.39648438 C25.6660193,6.39648438 26.3310518,6.55761558 26.9169922,6.87988281 C27.5029326,7.20215005 27.9863262,7.68554365 28.3671875,8.33007812 L27.3212891,9.03320312 C27.0810535,8.55859138 26.7470725,8.20117308 26.3193359,7.9609375 C25.8915994,7.72070192 25.4199245,7.60058594 24.9042969,7.60058594 C24.5527326,7.60058594 24.2246109,7.67529222 23.9199219,7.82470703 C23.6152329,7.97412184 23.3706064,8.18652206 23.1860352,8.46191406 C23.0014639,8.73730606 22.9091797,9.05663881 22.9091797,9.41992188 C22.9091797,9.81250196 23.0234364,10.1523423 23.2519531,10.4394531 C23.4804699,10.7265639 23.7646467,10.9682607 24.1044922,11.1645508 C24.4443376,11.3608408 24.9072236,11.590819 25.4931641,11.8544922 C26.2255896,12.1826188 26.8173806,12.4843736 27.2685547,12.7597656 C27.7197288,13.0351576 28.103514,13.4028297 28.4199219,13.862793 C28.7363297,14.3227562 28.8945312,14.8925747 28.8945312,15.5722656 C28.8945312,16.2812535 28.7260759,16.9067356 28.3891602,17.4487305 C28.0522444,17.9907254 27.5893584,18.4082017 27.0004883,18.7011719 C26.4116181,18.9941421 25.7509802,19.140625 25.0185547,19.140625 Z M34.5107422,19.1230469 C33.6552692,19.1230469 32.9301788,18.9223653 32.3354492,18.5209961 C31.7407197,18.1196269 31.2954116,17.5805698 30.9995117,16.9038086 C30.7036118,16.2270474 30.5556641,15.4785197 30.5556641,14.6582031 C30.5556641,13.8496053 30.7006821,13.098148 30.9907227,12.4038086 C31.2807632,11.7094692 31.7128878,11.1513693 32.2871094,10.7294922 C32.861331,10.3076151 33.55566,10.0966797 34.3701172,10.0966797 C35.266606,10.0966797 35.9916965,10.3032206 36.5454102,10.7163086 C37.0991239,11.1293966 37.4960925,11.6581999 37.7363281,12.3027344 C37.9765637,12.9472688 38.0966797,13.6386682 38.0966797,14.3769531 C38.0966797,14.5644541 38.0820314,14.7900377 38.0527344,15.0537109 L31.9355469,15.0537109 C31.9296875,15.5869167 32.0249014,16.0747048 32.2211914,16.5170898 C32.4174815,16.9594749 32.7089824,17.3124987 33.0957031,17.5761719 C33.4824238,17.8398451 33.9511691,17.9716797 34.5019531,17.9716797 C35.0351589,17.9716797 35.4980449,17.9028327 35.890625,17.7651367 C36.2832051,17.6274407 36.643553,17.3828143 36.9716797,17.03125 L37.8681641,17.7519531 C37.3935523,18.2324243 36.8911159,18.5810536 36.3608398,18.7978516 C35.8305638,19.0146495 35.2138707,19.1230469 34.5107422,19.1230469 Z M36.8398438,13.9814453 C36.8222655,13.1845663 36.6142598,12.5180691 36.2158203,11.9819336 C35.8173808,11.4457981 35.2021526,11.1777344 34.3701172,11.1777344 C33.8544896,11.1777344 33.4179705,11.3037097 33.0605469,11.5556641 C32.7031232,11.8076184 32.4321298,12.1445291 32.2475586,12.5664062 C32.0629874,12.9882834 31.9589845,13.4599583 31.9355469,13.9814453 L36.8398438,13.9814453 Z M43.5019531,19.1757812 C42.6933553,19.1757812 42.0004912,18.9677755 41.4233398,18.5517578 C40.8461885,18.1357401 40.4125991,17.5805699 40.1225586,16.8862305 C39.8325181,16.1918911 39.6875,15.4375041 39.6875,14.6230469 C39.6875,13.8144491 39.8325181,13.0600621 40.1225586,12.3598633 C40.4125991,11.6596645 40.8432589,11.0971701 41.4145508,10.6723633 C41.9858427,10.2475565 42.6757772,10.0351562 43.484375,10.0351562 C44.2695352,10.0351562 44.9580049,10.2416972 45.5498047,10.6547852 C46.1416045,11.0678732 46.5927719,11.6406213 46.9033203,12.3730469 L45.6640625,12.9003906 C45.5351556,12.3671848 45.2714864,11.9409196 44.8730469,11.621582 C44.4746074,11.3022445 44.0117214,11.1425781 43.484375,11.1425781 C42.9160128,11.1425781 42.4472675,11.3139631 42.078125,11.6567383 C41.7089825,11.9995134 41.4423836,12.4360325 41.2783203,12.9663086 C41.114257,13.4965847 41.0322266,14.0488253 41.0322266,14.6230469 C41.0322266,15.2089873 41.1127922,15.7626927 41.2739258,16.2841797 C41.4350594,16.8056667 41.7001935,17.2333968 42.0693359,17.5673828 C42.4384784,17.9013689 42.9101534,18.0683594 43.484375,18.0683594 C44.0175808,18.0683594 44.4804668,17.9130875 44.8730469,17.6025391 C45.265627,17.2919906 45.5292962,16.8759792 45.6640625,16.3544922 L46.8066406,16.8466797 C46.5429674,17.5791052 46.1240263,18.1503886 45.5498047,18.5605469 C44.9755831,18.9707052 44.2929727,19.1757812 43.5019531,19.1757812 Z M51.7109375,19.1933594 C50.6855417,19.1933594 49.9267603,18.8403356 49.4345703,18.1342773 C48.9423804,17.4282191 48.6962891,16.4892637 48.6962891,15.3173828 L48.6962891,10.2197266 L50.0058594,10.2197266 L50.0058594,15.4052734 C50.0058594,16.166996 50.1435533,16.8041967 50.4189453,17.3168945 C50.6943373,17.8295924 51.1718716,18.0859375 51.8515625,18.0859375 C52.3144554,18.0859375 52.74658,17.9541029 53.1479492,17.6904297 C53.5493184,17.4267565 53.870116,17.0664085 54.1103516,16.609375 C54.3505871,16.1523415 54.4707031,15.6425809 54.4707031,15.0800781 L54.4707031,10.2197266 L55.7714844,10.2197266 L55.7714844,19 L54.4707031,19 L54.4707031,17.5146484 C54.3476556,17.784181 54.1542982,18.0478503 53.890625,18.3056641 C53.6269518,18.5634779 53.3061542,18.7758781 52.9282227,18.9428711 C52.5502911,19.1098641 52.1445334,19.1933594 51.7109375,19.1933594 Z M58.7333984,10.2197266 L60.0429688,10.2197266 L60.0429688,11.7753906 C60.2714855,11.2421848 60.6215797,10.8188492 61.0932617,10.5053711 C61.5649438,10.191893 62.0790988,10.0351562 62.6357422,10.0351562 C62.922853,10.0351562 63.1865222,10.0761715 63.4267578,10.1582031 C63.6669934,10.2402348 63.8749991,10.3515618 64.0507812,10.4921875 L63.4970703,11.6259766 C63.2333971,11.4033192 62.8759788,11.2919922 62.4248047,11.2919922 C61.9267553,11.2919922 61.4975604,11.422362 61.137207,11.6831055 C60.7768537,11.943849 60.5014658,12.3232397 60.3110352,12.8212891 C60.1206045,13.3193384 60.0253906,13.9169887 60.0253906,14.6142578 L60.0253906,19 L58.7333984,19 L58.7333984,10.2197266 Z M68.9990234,19.1230469 C68.1435504,19.1230469 67.41846,18.9223653 66.8237305,18.5209961 C66.2290009,18.1196269 65.7836929,17.5805698 65.487793,16.9038086 C65.1918931,16.2270474 65.0439453,15.4785197 65.0439453,14.6582031 C65.0439453,13.8496053 65.1889634,13.098148 65.4790039,12.4038086 C65.7690444,11.7094692 66.201169,11.1513693 66.7753906,10.7294922 C67.3496122,10.3076151 68.0439412,10.0966797 68.8583984,10.0966797 C69.7548873,10.0966797 70.4799777,10.3032206 71.0336914,10.7163086 C71.5874051,11.1293966 71.9843738,11.6581999 72.2246094,12.3027344 C72.464845,12.9472688 72.5849609,13.6386682 72.5849609,14.3769531 C72.5849609,14.5644541 72.5703126,14.7900377 72.5410156,15.0537109 L66.4238281,15.0537109 C66.4179687,15.5869167 66.5131826,16.0747048 66.7094727,16.5170898 C66.9057627,16.9594749 67.1972637,17.3124987 67.5839844,17.5761719 C67.9707051,17.8398451 68.4394504,17.9716797 68.9902344,17.9716797 C69.5234402,17.9716797 69.9863262,17.9028327 70.3789062,17.7651367 C70.7714863,17.6274407 71.1318343,17.3828143 71.4599609,17.03125 L72.3564453,17.7519531 C71.8818336,18.2324243 71.3793972,18.5810536 70.8491211,18.7978516 C70.318845,19.0146495 69.702152,19.1230469 68.9990234,19.1230469 Z M71.328125,13.9814453 C71.3105468,13.1845663 71.1025411,12.5180691 70.7041016,11.9819336 C70.3056621,11.4457981 69.6904338,11.1777344 68.8583984,11.1777344 C68.3427709,11.1777344 67.9062518,11.3037097 67.5488281,11.5556641 C67.1914045,11.8076184 66.9204111,12.1445291 66.7358398,12.5664062 C66.5512686,12.9882834 66.4472657,13.4599583 66.4238281,13.9814453 L71.328125,13.9814453 Z" id="Secure" fill="#3B8039"></path>
                            <g id="lock" transform="translate(0.000000, 4.000000)" stroke="#3B8039" stroke-linecap="round" stroke-linejoin="round" stroke-width="2">
                                <rect id="Rectangle-path" fill="#3B8039" x="0" y="6.73684211" width="11.7894737" height="9.26315789" rx="2"></rect>
                                <path d="M1.68421053,7.57894737 L1.68421053,4.21052632 C1.68421053,1.88511684 3.56932737,1.26214828e-15 5.89473684,8.8817842e-16 C8.22014632,1.40238698e-16 10.1052632,1.88511684 10.1052632,4.21052632 L10.1052632,7.57894737" id="Shape"></path>
                            </g>
                            <path d="M82.5,0.5 L82.5,23.5" id="Line" stroke="#9B9B9B" stroke-linecap="square"></path>
                        </g>
                        <path d="M103.494141,8.58105469 L104.794922,8.58105469 L104.794922,13.6611328 C105.087892,13.1806617 105.495115,12.7939468 106.016602,12.5009766 C106.538089,12.2080063 107.083005,12.0615234 107.651367,12.0615234 C108.319339,12.0615234 108.87451,12.219725 109.316895,12.5361328 C109.75928,12.8525406 110.084472,13.2758763 110.29248,13.8061523 C110.500489,14.3364284 110.604492,14.9296842 110.604492,15.5859375 L110.604492,21 L109.277344,21 L109.277344,15.796875 C109.277344,15.0820277 109.138185,14.4858422 108.859863,14.0083008 C108.581542,13.5307593 108.099613,13.2919922 107.414062,13.2919922 C106.916013,13.2919922 106.466311,13.4252916 106.064941,13.6918945 C105.663572,13.9584974 105.351564,14.3188454 105.128906,14.7729492 C104.906249,15.2270531 104.794922,15.7236301 104.794922,16.2626953 L104.794922,21 L103.494141,21 L103.494141,8.58105469 Z M115.798828,21.1757812 C114.380852,21.1757812 113.671875,20.3408287 113.671875,18.6708984 L113.671875,13.2919922 L112.265625,13.2919922 L112.265625,12.2197266 L113.680664,12.2197266 L113.680664,10.2421875 L114.981445,9.01171875 L114.981445,12.2197266 L117.205078,12.2197266 L117.205078,13.2919922 L114.981445,13.2919922 L114.981445,18.6796875 C114.981445,19.1425804 115.083983,19.4941394 115.289062,19.734375 C115.494142,19.9746106 115.76367,20.0947266 116.097656,20.0947266 C116.378908,20.0947266 116.671873,20.0214851 116.976562,19.875 L116.976562,21 C116.865234,21.0468752 116.702638,21.0878904 116.48877,21.1230469 C116.274901,21.1582033 116.044923,21.1757812 115.798828,21.1757812 Z M121.713867,21.1757812 C120.295891,21.1757812 119.586914,20.3408287 119.586914,18.6708984 L119.586914,13.2919922 L118.180664,13.2919922 L118.180664,12.2197266 L119.595703,12.2197266 L119.595703,10.2421875 L120.896484,9.01171875 L120.896484,12.2197266 L123.120117,12.2197266 L123.120117,13.2919922 L120.896484,13.2919922 L120.896484,18.6796875 C120.896484,19.1425804 120.999022,19.4941394 121.204102,19.734375 C121.409181,19.9746106 121.678709,20.0947266 122.012695,20.0947266 C122.293947,20.0947266 122.586913,20.0214851 122.891602,19.875 L122.891602,21 C122.780273,21.0468752 122.617677,21.0878904 122.403809,21.1230469 C122.18994,21.1582033 121.959962,21.1757812 121.713867,21.1757812 Z M125.203125,12.2197266 L126.521484,12.2197266 L126.521484,13.4150391 C126.814455,12.9814431 127.190916,12.6430676 127.650879,12.3999023 C128.110842,12.1567371 128.627927,12.0351562 129.202148,12.0351562 C129.963871,12.0351562 130.614255,12.2373027 131.15332,12.6416016 C131.692386,13.0459005 132.099608,13.5937465 132.375,14.2851562 C132.650392,14.976566 132.788086,15.7499957 132.788086,16.6054688 C132.788086,17.4550824 132.650392,18.2255825 132.375,18.9169922 C132.099608,19.6084019 131.69385,20.1577128 131.157715,20.5649414 C130.621579,20.97217 129.97266,21.1757812 129.210938,21.1757812 C128.642575,21.1757812 128.126955,21.0571301 127.664062,20.8198242 C127.20117,20.5825183 126.820314,20.2441428 126.521484,19.8046875 L126.521484,24.8496094 L125.203125,24.8496094 L125.203125,12.2197266 Z M128.929688,20.0683594 C129.49219,20.0683594 129.963865,19.908693 130.344727,19.5893555 C130.725588,19.2700179 131.0083,18.8481472 131.192871,18.3237305 C131.377442,17.7993138 131.469727,17.2265656 131.469727,16.6054688 C131.469727,15.9843719 131.377442,15.4116237 131.192871,14.887207 C131.0083,14.3627903 130.725588,13.9409196 130.344727,13.621582 C129.963865,13.3022445 129.49219,13.1425781 128.929688,13.1425781 C128.361325,13.1425781 127.888185,13.3022445 127.510254,13.621582 C127.132322,13.9409196 126.85254,14.3627903 126.670898,14.887207 C126.489257,15.4116237 126.398438,15.9843719 126.398438,16.6054688 C126.398438,17.232425 126.489257,17.8081028 126.670898,18.3325195 C126.85254,18.8569362 127.132322,19.2773422 127.510254,19.59375 C127.888185,19.9101578 128.361325,20.0683594 128.929688,20.0683594 Z M137.542969,21.1757812 C137.009763,21.1757812 136.519045,21.0776377 136.070801,20.8813477 C135.622556,20.6850576 135.24463,20.4228532 134.937012,20.0947266 C134.629393,19.7665999 134.405274,19.4033223 134.264648,19.0048828 L135.37207,18.4335938 C135.536134,18.9316431 135.802733,19.3344711 136.171875,19.6420898 C136.541017,19.9497086 137.003903,20.1035156 137.560547,20.1035156 C138.076174,20.1035156 138.492186,19.9775403 138.808594,19.7255859 C139.125002,19.4736316 139.283203,19.1162133 139.283203,18.6533203 C139.283203,18.3076155 139.187989,18.0234386 138.997559,17.8007812 C138.807128,17.5781239 138.572755,17.4052741 138.294434,17.2822266 C138.016112,17.1591791 137.633791,17.0185555 137.147461,16.8603516 C136.596677,16.6845694 136.154299,16.5161141 135.820312,16.3549805 C135.486326,16.1938469 135.20215,15.960939 134.967773,15.65625 C134.733397,15.351561 134.616211,14.9560571 134.616211,14.4697266 C134.616211,13.9599584 134.742186,13.5219745 134.994141,13.1557617 C135.246095,12.789549 135.583006,12.5112314 136.004883,12.3208008 C136.42676,12.1303701 136.892576,12.0351562 137.402344,12.0351562 C138.058597,12.0351562 138.634275,12.191893 139.129395,12.5053711 C139.624514,12.8188492 140.009764,13.2451145 140.285156,13.7841797 L139.318359,14.3378906 C139.124999,13.9453105 138.864259,13.6406261 138.536133,13.4238281 C138.208006,13.2070302 137.815432,13.0986328 137.358398,13.0986328 C136.889646,13.0986328 136.516115,13.2099598 136.237793,13.4326172 C135.959471,13.6552746 135.820312,13.9482404 135.820312,14.3115234 C135.820312,14.5927748 135.905273,14.8242178 136.075195,15.0058594 C136.245118,15.1875009 136.458983,15.3339838 136.716797,15.4453125 C136.974611,15.5566412 137.329099,15.6826165 137.780273,15.8232422 C138.366214,16.0048837 138.845213,16.1835929 139.217285,16.359375 C139.589357,16.5351571 139.90576,16.7958967 140.166504,17.1416016 C140.427247,17.4873064 140.557617,17.9384738 140.557617,18.4951172 C140.557617,19.0693388 140.416994,19.5585917 140.135742,19.9628906 C139.854491,20.3671895 139.483889,20.6704091 139.023926,20.8725586 C138.563963,21.074708 138.070315,21.1757812 137.542969,21.1757812 Z" id="https" fill="#3B8039"></path>
                        <path d="M143.091797,11.6152344 L144.805664,11.6152344 L144.805664,13.3115234 L143.091797,13.3115234 L143.091797,11.6152344 Z M143.091797,18.2949219 L144.805664,18.2949219 L144.805664,20 L143.091797,20 L143.091797,18.2949219 Z M153.621094,6.67578125 L154.957031,6.67578125 L148.338867,23.7792969 L146.994141,23.7792969 L153.621094,6.67578125 Z M161.768555,6.67578125 L163.104492,6.67578125 L156.486328,23.7792969 L155.141602,23.7792969 L161.768555,6.67578125 Z" id="://" fill="#9B9B9B"></path>
                    </g>
                    <g id="arrow-right" transform="translate(12.000000, 15.000000)" stroke="#D8D9DB" stroke-linecap="round" stroke-linejoin="round" stroke-width="2">
                        <path d="M0,8 L20,8" id="Shape"></path>
                        <polyline id="Shape" points="13 0 21 7.5 13 15"></polyline>
                    </g>
                    <path d="M254.524414,28.1757812 C253.97363,28.1757812 253.482912,28.0717784 253.052246,27.8637695 C252.62158,27.6557607 252.284669,27.3540059 252.041504,26.9584961 C251.798339,26.5629863 251.676758,26.0957058 251.676758,25.5566406 C251.676758,24.6894488 252.00488,24.0434592 252.661133,23.6186523 C253.317386,23.1938455 254.278314,22.9814453 255.543945,22.9814453 L257.547852,22.9814453 C257.547852,21.1122953 256.830085,20.1777344 255.394531,20.1777344 C254.826169,20.1777344 254.342775,20.3051745 253.944336,20.5600586 C253.545896,20.8149427 253.217775,21.1298809 252.959961,21.5048828 L252.001953,20.7578125 C252.833989,19.6093693 253.93847,19.0351562 255.31543,19.0351562 C256.047855,19.0351562 256.671872,19.183104 257.1875,19.4790039 C257.703128,19.7749038 258.092772,20.1923801 258.356445,20.7314453 C258.620119,21.2705105 258.751953,21.8974574 258.751953,22.6123047 L258.751953,28 L257.635742,28 L257.609375,26.3037109 C257.304686,26.9365266 256.879886,27.4067367 256.334961,27.7143555 C255.790036,28.0219742 255.186527,28.1757812 254.524414,28.1757812 Z M254.673828,27.0683594 C255.24219,27.0683594 255.746092,26.9145523 256.185547,26.6069336 C256.625002,26.2993149 256.961913,25.9052758 257.196289,25.4248047 C257.430665,24.9443335 257.547852,24.4609399 257.547852,23.9746094 L255.666992,23.9746094 C254.776363,23.9746094 254.11426,24.1005847 253.680664,24.3525391 C253.247068,24.6044934 253.030273,25.0175753 253.030273,25.5917969 C253.030273,26.0898462 253.181151,26.460448 253.48291,26.7036133 C253.784669,26.9467786 254.181638,27.0683594 254.673828,27.0683594 Z M263.928711,28.1757812 C262.510735,28.1757812 261.801758,27.3408287 261.801758,25.6708984 L261.801758,20.2919922 L260.395508,20.2919922 L260.395508,19.2197266 L261.810547,19.2197266 L261.810547,17.2421875 L263.111328,16.0117188 L263.111328,19.2197266 L265.334961,19.2197266 L265.334961,20.2919922 L263.111328,20.2919922 L263.111328,25.6796875 C263.111328,26.1425804 263.213866,26.4941394 263.418945,26.734375 C263.624024,26.9746106 263.893553,27.0947266 264.227539,27.0947266 C264.50879,27.0947266 264.801756,27.0214851 265.106445,26.875 L265.106445,28 C264.995117,28.0468752 264.832521,28.0878904 264.618652,28.1230469 C264.404784,28.1582033 264.174806,28.1757812 263.928711,28.1757812 Z M267.417969,15.5810547 L268.71875,15.5810547 L268.71875,20.6611328 C269.01172,20.1806617 269.418943,19.7939468 269.94043,19.5009766 C270.461917,19.2080063 271.006833,19.0615234 271.575195,19.0615234 C272.243167,19.0615234 272.798338,19.219725 273.240723,19.5361328 C273.683108,19.8525406 274.0083,20.2758763 274.216309,20.8061523 C274.424317,21.3364284 274.52832,21.9296842 274.52832,22.5859375 L274.52832,28 L273.201172,28 L273.201172,22.796875 C273.201172,22.0820277 273.062013,21.4858422 272.783691,21.0083008 C272.50537,20.5307593 272.023441,20.2919922 271.337891,20.2919922 C270.839841,20.2919922 270.390139,20.4252916 269.98877,20.6918945 C269.5874,20.9584974 269.275392,21.3188454 269.052734,21.7729492 C268.830077,22.2270531 268.71875,22.7236301 268.71875,23.2626953 L268.71875,28 L267.417969,28 L267.417969,15.5810547 Z M280.557617,28.1230469 C279.702144,28.1230469 278.977054,27.9223653 278.382324,27.5209961 C277.787595,27.1196269 277.342287,26.5805698 277.046387,25.9038086 C276.750487,25.2270474 276.602539,24.4785197 276.602539,23.6582031 C276.602539,22.8496053 276.747557,22.098148 277.037598,21.4038086 C277.327638,20.7094692 277.759763,20.1513693 278.333984,19.7294922 C278.908206,19.3076151 279.602535,19.0966797 280.416992,19.0966797 C281.313481,19.0966797 282.038571,19.3032206 282.592285,19.7163086 C283.145999,20.1293966 283.542968,20.6581999 283.783203,21.3027344 C284.023439,21.9472688 284.143555,22.6386682 284.143555,23.3769531 C284.143555,23.5644541 284.128906,23.7900377 284.099609,24.0537109 L277.982422,24.0537109 C277.976562,24.5869167 278.071776,25.0747048 278.268066,25.5170898 C278.464356,25.9594749 278.755857,26.3124987 279.142578,26.5761719 C279.529299,26.8398451 279.998044,26.9716797 280.548828,26.9716797 C281.082034,26.9716797 281.54492,26.9028327 281.9375,26.7651367 C282.33008,26.6274407 282.690428,26.3828143 283.018555,26.03125 L283.915039,26.7519531 C283.440427,27.2324243 282.937991,27.5810536 282.407715,27.7978516 C281.877439,28.0146495 281.260746,28.1230469 280.557617,28.1230469 Z M282.886719,22.9814453 C282.869141,22.1845663 282.661135,21.5180691 282.262695,20.9819336 C281.864256,20.4457981 281.249028,20.1777344 280.416992,20.1777344 C279.901365,20.1777344 279.464846,20.3037097 279.107422,20.5556641 C278.749998,20.8076184 278.479005,21.1445291 278.294434,21.5664062 C278.109862,21.9882834 278.005859,22.4599583 277.982422,22.9814453 L282.886719,22.9814453 Z M286.402344,19.2197266 L287.711914,19.2197266 L287.711914,20.7490234 C288.010744,20.2216771 288.401853,19.8085952 288.885254,19.5097656 C289.368655,19.210936 289.920895,19.0615234 290.541992,19.0615234 C291.209964,19.0615234 291.76367,19.2226546 292.203125,19.5449219 C292.64258,19.8671891 292.966308,20.2993137 293.174316,20.8413086 C293.382325,21.3833035 293.486328,21.9912076 293.486328,22.6650391 L293.486328,28 L292.185547,28 L292.185547,22.796875 C292.185547,22.0820277 292.02881,21.4667995 291.715332,20.9511719 C291.401854,20.4355443 290.893558,20.1777344 290.19043,20.1777344 C289.721677,20.1777344 289.299807,20.30078 288.924805,20.546875 C288.549803,20.79297 288.253907,21.1606421 288.037109,21.6499023 C287.820311,22.1391626 287.711914,22.735348 287.711914,23.4384766 L287.711914,28 L286.402344,28 L286.402344,19.2197266 Z M298.285156,28.1757812 C297.734372,28.1757812 297.243654,28.0717784 296.812988,27.8637695 C296.382322,27.6557607 296.045411,27.3540059 295.802246,26.9584961 C295.559081,26.5629863 295.4375,26.0957058 295.4375,25.5566406 C295.4375,24.6894488 295.765622,24.0434592 296.421875,23.6186523 C297.078128,23.1938455 298.039056,22.9814453 299.304688,22.9814453 L301.308594,22.9814453 C301.308594,21.1122953 300.590827,20.1777344 299.155273,20.1777344 C298.586911,20.1777344 298.103518,20.3051745 297.705078,20.5600586 C297.306639,20.8149427 296.978517,21.1298809 296.720703,21.5048828 L295.762695,20.7578125 C296.594731,19.6093693 297.699212,19.0351562 299.076172,19.0351562 C299.808597,19.0351562 300.432615,19.183104 300.948242,19.4790039 C301.46387,19.7749038 301.853514,20.1923801 302.117188,20.7314453 C302.380861,21.2705105 302.512695,21.8974574 302.512695,22.6123047 L302.512695,28 L301.396484,28 L301.370117,26.3037109 C301.065428,26.9365266 300.640628,27.4067367 300.095703,27.7143555 C299.550779,28.0219742 298.947269,28.1757812 298.285156,28.1757812 Z M298.43457,27.0683594 C299.002933,27.0683594 299.506834,26.9145523 299.946289,26.6069336 C300.385744,26.2993149 300.722655,25.9052758 300.957031,25.4248047 C301.191407,24.9443335 301.308594,24.4609399 301.308594,23.9746094 L299.427734,23.9746094 C298.537105,23.9746094 297.875002,24.1005847 297.441406,24.3525391 C297.00781,24.6044934 296.791016,25.0175753 296.791016,25.5917969 C296.791016,26.0898462 296.941893,26.460448 297.243652,26.7036133 C297.545412,26.9467786 297.94238,27.0683594 298.43457,27.0683594 Z M305.808594,26.2949219 L307.548828,26.2949219 L307.548828,28 L305.808594,28 L305.808594,26.2949219 Z M312.795898,27.0332031 C313.041993,27.0332031 313.32617,27.0039065 313.648438,26.9453125 L313.648438,28 C313.490234,28.0468752 313.305665,28.0878904 313.094727,28.1230469 C312.883788,28.1582033 312.672853,28.1757812 312.461914,28.1757812 C312.045896,28.1757812 311.733888,28.0908212 311.525879,27.9208984 C311.31787,27.7509757 311.184571,27.5312513 311.125977,27.2617188 C311.067383,26.9921862 311.038086,26.6464865 311.038086,26.2246094 L311.038086,15.5810547 L312.365234,15.5810547 L312.365234,26.5322266 C312.365234,26.6142582 312.395996,26.7182611 312.45752,26.8442383 C312.519043,26.9702155 312.631835,27.0332031 312.795898,27.0332031 Z M319.036133,28.1757812 C318.233394,28.1757812 317.517093,27.9692403 316.887207,27.5561523 C316.257321,27.1430643 315.768068,26.5864293 315.419434,25.8862305 C315.070799,25.1860317 314.896484,24.419926 314.896484,23.5878906 C314.896484,22.7558552 315.070799,21.9926793 315.419434,21.2983398 C315.768068,20.6040004 316.255856,20.0532247 316.882812,19.6459961 C317.509769,19.2387675 318.227535,19.0351562 319.036133,19.0351562 C319.838871,19.0351562 320.558102,19.2387675 321.193848,19.6459961 C321.829593,20.0532247 322.32617,20.6054653 322.683594,21.3027344 C323.041017,22.0000035 323.219727,22.7617146 323.219727,23.5878906 C323.219727,24.419926 323.041017,25.1860317 322.683594,25.8862305 C322.32617,26.5864293 321.829593,27.1430643 321.193848,27.5561523 C320.558102,27.9692403 319.838871,28.1757812 319.036133,28.1757812 Z M319.044922,27.0859375 C319.671878,27.0859375 320.199217,26.9204118 320.626953,26.5893555 C321.05469,26.2582991 321.372558,25.8276394 321.580566,25.2973633 C321.788575,24.7670872 321.892578,24.1972687 321.892578,23.5878906 C321.892578,22.9726532 321.788575,22.4028347 321.580566,21.878418 C321.372558,21.3540013 321.056154,20.9306657 320.631348,20.6083984 C320.206541,20.2861312 319.683597,20.125 319.0625,20.125 C318.441403,20.125 317.916994,20.2861312 317.489258,20.6083984 C317.061521,20.9306657 316.742189,21.3554661 316.53125,21.8828125 C316.320311,22.4101589 316.214844,22.9785126 316.214844,23.5878906 C316.214844,24.2031281 316.320311,24.7773411 316.53125,25.3105469 C316.742189,25.8437527 317.060056,26.2729476 317.484863,26.5981445 C317.90967,26.9233415 318.429684,27.0859375 319.044922,27.0859375 Z M328.598633,28.1757812 C327.790035,28.1757812 327.097171,27.9677755 326.52002,27.5517578 C325.942868,27.1357401 325.509279,26.5805699 325.219238,25.8862305 C324.929198,25.1918911 324.78418,24.4375041 324.78418,23.6230469 C324.78418,22.8144491 324.929198,22.0600621 325.219238,21.3598633 C325.509279,20.6596645 325.939939,20.0971701 326.51123,19.6723633 C327.082522,19.2475565 327.772457,19.0351562 328.581055,19.0351562 C329.366215,19.0351562 330.054685,19.2416972 330.646484,19.6547852 C331.238284,20.0678732 331.689452,20.6406213 332,21.3730469 L330.760742,21.9003906 C330.631835,21.3671848 330.368166,20.9409196 329.969727,20.621582 C329.571287,20.3022445 329.108401,20.1425781 328.581055,20.1425781 C328.012692,20.1425781 327.543947,20.3139631 327.174805,20.6567383 C326.805662,20.9995134 326.539063,21.4360325 326.375,21.9663086 C326.210937,22.4965847 326.128906,23.0488253 326.128906,23.6230469 C326.128906,24.2089873 326.209472,24.7626927 326.370605,25.2841797 C326.531739,25.8056667 326.796873,26.2333968 327.166016,26.5673828 C327.535158,26.9013689 328.006833,27.0683594 328.581055,27.0683594 C329.11426,27.0683594 329.577146,26.9130875 329.969727,26.6025391 C330.362307,26.2919906 330.625976,25.8759792 330.760742,25.3544922 L331.90332,25.8466797 C331.639647,26.5791052 331.220706,27.1503886 330.646484,27.5605469 C330.072263,27.9707052 329.389652,28.1757812 328.598633,28.1757812 Z M336.060547,28.1757812 C335.509763,28.1757812 335.019045,28.0717784 334.588379,27.8637695 C334.157713,27.6557607 333.820802,27.3540059 333.577637,26.9584961 C333.334471,26.5629863 333.212891,26.0957058 333.212891,25.5566406 C333.212891,24.6894488 333.541012,24.0434592 334.197266,23.6186523 C334.853519,23.1938455 335.814447,22.9814453 337.080078,22.9814453 L339.083984,22.9814453 C339.083984,21.1122953 338.366218,20.1777344 336.930664,20.1777344 C336.362302,20.1777344 335.878908,20.3051745 335.480469,20.5600586 C335.082029,20.8149427 334.753908,21.1298809 334.496094,21.5048828 L333.538086,20.7578125 C334.370121,19.6093693 335.474602,19.0351562 336.851562,19.0351562 C337.583988,19.0351562 338.208005,19.183104 338.723633,19.4790039 C339.23926,19.7749038 339.628905,20.1923801 339.892578,20.7314453 C340.156251,21.2705105 340.288086,21.8974574 340.288086,22.6123047 L340.288086,28 L339.171875,28 L339.145508,26.3037109 C338.840819,26.9365266 338.416018,27.4067367 337.871094,27.7143555 C337.326169,28.0219742 336.72266,28.1757812 336.060547,28.1757812 Z M336.209961,27.0683594 C336.778323,27.0683594 337.282224,26.9145523 337.72168,26.6069336 C338.161135,26.2993149 338.498046,25.9052758 338.732422,25.4248047 C338.966798,24.9443335 339.083984,24.4609399 339.083984,23.9746094 L337.203125,23.9746094 C336.312496,23.9746094 335.650393,24.1005847 335.216797,24.3525391 C334.783201,24.6044934 334.566406,25.0175753 334.566406,25.5917969 C334.566406,26.0898462 334.717284,26.460448 335.019043,26.7036133 C335.320802,26.9467786 335.717771,27.0683594 336.209961,27.0683594 Z M344.75293,27.0332031 C344.999025,27.0332031 345.283202,27.0039065 345.605469,26.9453125 L345.605469,28 C345.447265,28.0468752 345.262696,28.0878904 345.051758,28.1230469 C344.840819,28.1582033 344.629884,28.1757812 344.418945,28.1757812 C344.002928,28.1757812 343.690919,28.0908212 343.48291,27.9208984 C343.274901,27.7509757 343.141602,27.5312513 343.083008,27.2617188 C343.024414,26.9921862 342.995117,26.6464865 342.995117,26.2246094 L342.995117,15.5810547 L344.322266,15.5810547 L344.322266,26.5322266 C344.322266,26.6142582 344.353027,26.7182611 344.414551,26.8442383 C344.476075,26.9702155 344.588866,27.0332031 344.75293,27.0332031 Z" id="athena.local" fill="#4A4A4A"></path>
                </g>
            </g>
        </g>
    </g>
</svg>